<svg id="Layer_1" enable-background="new 0 0 479.423 479.423" height="512" viewBox="0 0 479.423 479.423" width="512" xmlns="http://www.w3.org/2000/svg">
  <g transform="translate(239.7115 239.7115) scale(0.95) translate(-239.7115 -239.7115)" fill="#000" stroke="#000" stroke-width="8" stroke-linejoin="round" stroke-linecap="round">
    <path d="m479.01 336.152c-39.556-80.233-37.236-76.067-38.55-76.939-2.748-1.83-86.749-53.585-103.171-61.514-7.071-3.412-13.423-4.104-18.663-3.597 12.176-14.372 20.333-29.961 22.217-43.473 5.41-38.823-23.987-75.119-65.533-80.909-42.16-5.878-79.816 21.522-85.166 59.905-1.252 8.98-.732 18.926 1.393 28.995-12.974-3.355-21.001-5.479-21.094-5.504-.994-.264-2.051-.133-2.953.363-164.533 90.637-154.306 84.753-155.133 85.914-.342.48.505-1.248-11.979 25.391-.893 1.905-.157 4.176 1.683 5.196l112.947 62.601c-.258 9.222 4.417 24.409 24.42 30.695 20.966 6.589 35.879 2.139 41.344-.092l166.273 108.213c1.616 1.052 3.731.795 5.053-.568l126.195-130.124c1.178-1.213 1.465-3.036.717-4.553zm-280.941-205.424c4.721-33.874 38.228-58.368 76.139-53.085 37.176 5.182 63.515 37.428 58.713 71.882-2.537 18.199-18.926 41.89-40.781 58.953-13.959 10.898-23.539 22.957-31.636 39.128-.224.477-.459.956-.671 1.431-.5.804-5.826 8.619-21.267 7.621-15.13-.978-17.943-13.326-18.208-14.686-1.719-20.088-5.874-40.385-10.753-55.833-.789-2.499-1.649-4.714-2.63-6.774-7.713-16.19-10.959-33.917-8.906-48.637zm36.874 142.441c-2.195-.21-4.148 1.411-4.354 3.612-.205 2.199 1.412 4.149 3.611 4.354 6.012.561 12.569.471 18.401-1.275-4.529 8.375-13.598 9.783-23.097 8.343-9.921-1.505-17.192-5.851-17.145-15.92 1.607 1.533 3.041 2.618 4.625 3.706.728.597 1.629.905 2.538.905 3.302 0 5.222-3.844 3.134-6.482-.414-.524-.822-.801-1.338-1.151-7.441-5.05-10.556-11.604-6.896-19.976 3.207 6.753 10.338 14.499 23.626 15.358 10.209.661 17.749-1.825 22.98-5.629-1.062 13.021-13.025 15.371-26.085 14.155zm-64.994-111.911c3.348.882 11.926 3.133 23.874 6.213 3.398 11.196 6.144 14.708 8.152 21.077 2.246 7.108 7.495 25.553 9.974 49.479-7.96 10.416-7.894 18.829-6.013 24.49-.423 1.315-.979 3.366-1.306 5.838-20.49 14.228-40.461 28.09-43.588 30.277-3.589 2.505-5.872 5.592-7.322 8.65-6.635-9.701-21.017-23.633-52.095-36.448-36.507-15.046-63.497-25.18-76.341-29.884zm178.7 301.638-165.354-107.615c-1.226-.798-2.808-.853-4.096-.159-.146.077-14.656 7.661-37.372.523-21.095-6.629-18.766-23.955-18.659-24.666.269-1.664-.536-3.318-2.01-4.135l-111.949-62.05 2.161-4.612 112.554 53.125c1.993.94 4.379.092 5.324-1.91.943-1.998.088-4.382-1.91-5.324l-112.574-53.135 2.923-6.238c9.581 3.453 38.895 14.222 80.888 31.53 48.095 19.832 52.585 41.078 52.83 42.475.383 2.985 3.962 4.556 6.425 2.632 10.699-8.34 19.834-9.959 57.253 11.168 36.79 20.782 85.475 53.978 85.962 54.311 1.527 1.043 3.578.905 4.95-.347l28.96-26.391c1.633-1.488 1.75-4.018.262-5.651s-4.019-1.75-5.65-.262l-26.63 24.268c-10.67-7.21-51.758-34.726-83.919-52.893-30.572-17.262-45.465-21.567-58.779-15.161.862-2.485 2.461-5.146 5.385-7.188 3.033-2.121 19.75-13.724 39.313-27.309 2.456 11.122 11.945 16.498 23.369 18.23 9.064 1.374 18.437.591 25.548-5.313 6.679-5.547 8.469-13.364 8.945-16.828 8.043-8.102 6.426-19.895 5.499-24.147 2.954-6.025 6.925-12.217 11.835-18.448 8.528-10.82 16.387-15.797 23.434-21.977 3.025-2.109 4.739-3.297 4.742-3.299 7.812-5.329 17.053-5.274 25.503-1.196 14.533 7.017 79.962 47.229 97.824 58.244l-62.938 57.355c-2.709 2.469-.927 6.957 2.695 6.957.962 0 1.927-.345 2.693-1.043l62.929-57.348 22.849 46.345-121.906 110.093-161.899-95.255c-1.903-1.12-4.355-.485-5.476 1.419-1.12 1.904-.485 4.356 1.419 5.476l164.43 96.743c1.492.879 3.401.702 4.709-.479l122.403-110.539 7.044 14.288z"/>
    <path d="m227.267 231.838c-2.015.905-2.915 3.272-2.011 5.287.904 2.016 3.272 2.915 5.288 2.01 5.558-2.495 14.107-3.902 23.27 3.574.742.606 1.637.901 2.526.901 3.739 0 5.45-4.717 2.53-7.1-12.975-10.586-25.368-7.471-31.603-4.672z"/>
    <path d="m218.361 138.541c6.042 0 13.62-4.027 20.139-11.24 9.424-10.428 11.999-22.388 5.99-27.819h-.001c-6.011-5.431-17.647-1.664-27.073 8.765-4.104 4.541-7.106 9.667-8.456 14.434-2.854 10.079 2.376 15.86 9.401 15.86zm-1.704-13.682c2.821-9.962 14.551-19.89 20.878-19.89.721 0 1.267.155 1.59.447 1.624 1.468.367 8.855-6.561 16.521-6.925 7.664-14.148 9.662-15.774 8.194-.644-.582-.935-2.438-.133-5.272z"/>
    <path d="m290.928 66.546c2.142.543 4.318-.757 4.859-2.896l12.984-51.29c.542-2.142-.755-4.317-2.896-4.859-2.14-.542-4.316.754-4.859 2.896l-12.984 51.29c-.542 2.141.755 4.316 2.896 4.859z"/>
    <path d="m354.544 103.338 53.685-26.829c1.977-.988 2.777-3.39 1.79-5.366-.988-1.976-3.39-2.779-5.366-1.79l-53.685 26.829c-1.977.988-2.777 3.39-1.79 5.366.988 1.976 3.389 2.777 5.366 1.79z"/>
    <path d="m355.73 170.145c-.341 2.183 1.152 4.229 3.335 4.57l55.417 8.659c2.171.34 4.226-1.142 4.569-3.335.341-2.183-1.152-4.229-3.335-4.57l-55.417-8.659c-2.178-.342-4.228 1.152-4.569 3.335z"/>
    <path d="m210.978 60.549c1.304 1.792 3.807 2.178 5.588.882 1.787-1.299 2.182-3.801.883-5.588l-27.709-38.098c-1.3-1.787-3.803-2.181-5.588-.882-1.787 1.299-2.182 3.801-.883 5.588z"/>
    <path d="m133.136 103.501c41.083 15.54 38.1 14.531 39.145 14.531 1.615 0 3.137-.986 3.742-2.586.781-2.066-.26-4.375-2.326-5.156l-37.73-14.272c-2.067-.782-4.375.26-5.156 2.326-.782 2.067.259 4.375 2.325 5.157z"/>
  </g>
</svg>