<svg id="Layer_1" enable-background="new 0 0 425.882 425.882" height="512" viewBox="0 0 425.882 425.882" width="512" xmlns="http://www.w3.org/2000/svg">
  <g transform="translate(212.941 212.941) scale(0.95) translate(-212.941 -212.941)" fill="#000" stroke="#000" stroke-width="7" stroke-linejoin="round" stroke-linecap="round">
    <path d="m417.827 34.852-120.65-34.7c-.77-.22-1.6-.2-2.37.05-.89.3-20.98 7.19-27.96 24.96-.11.03-54.74 11.89-252.83 54.95-8.2 1.9-10.57 10.3-7.64 17.82l42.72 133.62c.77 2.53 2.38 4.76 4.53 6.3l65.44 46.6c2.51 1.78 5.75 2.62 9.06 2.04 2.43-.35-3.4.66 93.71-18.05l-152.58 63.9c-.75.31-1.39.85-1.82 1.53l-17.09 26.699c-1.19 1.86-.64 4.33 1.22 5.521 1.85 1.189 4.33.649 5.52-1.21l7.59-11.86c-1.4 5.72-1.92 9.07-.48 15.22 2.92 12.48 14.61 18.08 27.28 10.07 17.26-10.91 25.59-40.32 13.05-52.07l135.66-56.81c-2.12 4.21-4.13 9.8-5.49 17.15-.79 4.25-.1 8.119.5 10.659 2.14 9.12 8.57 13.801 15.7 13.801 16.5 0 32.45-23.42 30.48-42.61-.43-4.26-1.71-7.91-3.73-10.74l59.21-11.41-14.86 40.5c-9.47 3.641-19.4 14.4-23.44 28.9l-126.09 38.96c-16.1-3.57-14.67-3.3-15.5-3.33-10.98.14-23.03 9.811-29.97 24.07-.32.64 1.88-1.65-25.39 25.62-2.53 2.52-.7 6.83 2.83 6.83 1.02 0 2.04-.4 2.82-1.181l14.71-14.7c-1.31 10.591 1.2 22.341 10.76 27 2.2 1.061 19.51 5.311 25.26 6.431 1.37.33 2.77.5 4.2.5 10.82 0 22.95-9.25 30.17-24.08 8.88-18.24 6.55-37.101-5.24-43.311l109.91-33.96c-.56 8.971 2.07 18.36 10.1 22.271 1.98.96 17.44 4.75 22.74 5.8 18.041 4.371 38.256-22.308 36.01-44.49-1.1-10.83-7.19-16.609-13.98-17.819-.03-.011-.05-.011-.07-.021 0 0-.01 0-.02 0-.1-.098-5.458-1.217-20.87-4.63 17.39-47.39 16.19-43.67 16.09-44.93.57-.851 1.27-2.15 1.48-3.07 18.4-80.77 37.87-167.39 37.87-167.39 2.26-5.2 10.01-20.72 31.58-27.75 3.73-1.22 3.65-6.56-.13-7.65zm-319.06 322.97c-7.5 15.45-23.44 22.851-26.78 8.601-.43-1.84-.94-4.601-.43-7.38 3.44-18.561 11.35-23.49 11.37-23.5 2.4-1.311-3.72 1.31 12.07-5.311 4.82.5 6.93 5.21 7.43 10.01.54 5.37-.75 11.61-3.66 17.58zm37.45 53.931c-3.56-1.74-5.85-5.88-6.44-11.67-.61-6.021.72-12.94 3.71-19.65 0 0 0 0 .01-.01.22-.42 7.61-14.021 15.24-18.45.76-.45 1.53-.86 2.3-1.2 2.75-1.24 5.89-1.34 8.76-.39l4.32 1.439s-3.69 2.71-7.28 6.48c-11.46 12.53-16.74 32.71-11.21 46-4.48-1.11-8.46-2.15-9.41-2.549zm48.95-13.46c-6.8 13.97-19.22 22.52-27.13 18.659-11.46-5.569-7.45-33.6 8.02-46.439 0 .16 9.49-8.78 17.07-5.09 7.91 3.849 8.84 18.91 2.04 32.87zm152.31-95.011h.01c11.46-9.52 19.32-5.25 20.43 5.641 1.2 11.85-6.17 27.069-16.31 33.47-8.57 5.42-15.67 2.47-16.91-7.79-1.1-9.131 3.01-23.211 12.78-31.321zm-2.05-8.46c-5.959 4.053-12.602 10.755-16.42 22.351-2.536 7.702-3.61 16.979-.79 24.51-3.64-.91-6.78-1.73-7.59-2.07-5.648-2.755-5.99-11.431-5.26-17.66 1.175-10.032 8.52-19.649 12.17-23.01 0 0 4.72-5.439 10.55-5.529 2.203-.001 7.34 1.408 7.34 1.408zm-65.66-8c-7.52 15.49-23.44 22.83-26.78 8.601-.43-1.84-.94-4.61-.43-7.38 3.44-18.561 11.35-23.49 11.37-23.5.71-.391.8-.67 2.42-1.88l3.37-1.41c.69-.29-1.38.16 7.95-1.641 3.78 1.36 5.35 5.65 5.76 9.63.54 5.37-.75 11.61-3.66 17.58zm71-51.239c-.51 1.21-1.62 2.109-2.92 2.359l-207 39.891-18.68-116.37c-.35-2.181-2.4-3.681-4.58-3.32-2.18.35-3.67 2.41-3.32 4.59l18.37 114.44-64.37-45.84c-.72-.511-1.26-1.261-1.53-2.16l-39.7-124.181 83.12 35.801c2.41 1.22 5.22 1.62 7.94 1.04.12-.03 26.63-5.7 267.12-57.141zm34.05-158.991c-232.47 49.729-268.02 57.33-268.39 57.41-1.45.31-2.39-.25-2.98-.5-55.9-24.061-80.22-34.4-87.41-37.82-3.71-1.77-3.66-6.98-.27-7.77l252.82-54.94c.73-.17 1.49-.13 2.2.11l104.49 35.8c2.32.8 2.68 2.7 2.71 3.66 0 0 .2 3.32-3.17 4.05zm5.78-13.95c-1.82-1.19 7.12 2.04-105.44-36.52 5.37-10.87 17.4-16.42 21.09-17.91l108.49 31.2c-13.19 6.95-20.44 16.6-24.14 23.23zm-28.79 227.62v.01h.02s0-.01-.02-.01z"/>
  </g>
</svg>