<svg xmlns="http://www.w3.org/2000/svg" version="1.1" xmlns:xlink="http://www.w3.org/1999/xlink" width="512" height="512" x="0" y="0" viewBox="0 0 512.002 512.002" style="enable-background:new 0 0 512 512" xml:space="preserve"><g><path d="M90.495 327.682c-10.96-4.09-23.792-7.091-38.854-8.561 0 0 68.035-80.513-15.641-136.923 78.009 1.76 110.634-25.992 110-105.299 26.592 46.059 107.179 78.034 139.145 10.342 0 0 52.649 87.436 153.248 12.222 0 0-50.812 95.897 52.607 126.923 0 0-110.085 48.085-66.111 156.068 0 0-110.94-39.487-131.624 52.65 0 0-72.051-73.333-140.684-3.761 0 0 2.611-17.93-3.025-39.52z" style="fill-rule: evenodd; clip-rule: evenodd; stroke-width: 12; stroke-linecap: round; stroke-linejoin: round; stroke-miterlimit: 22.9256;" fill-rule="evenodd" clip-rule="evenodd" fill="#FFFFFF" stroke="#000000" stroke-width="12" stroke-linecap="round" stroke-linejoin="round" stroke-miterlimit="22.9256" data-original="#000000"></path><path d="M83.357 41.404 58.092 10M44.779 379.713 10 400.083M77.031 441.893l-27.955 29.035M416.717 469.785l24.22 32.217M470.072 420.916l31.93 24.597M426.178 41.571 451.234 10M354.936 62.039l18.315-35.904M80.802 126.715l-32.431-23.932" style="fill-rule: evenodd; clip-rule: evenodd; stroke-width: 12; stroke-linecap: round; stroke-linejoin: round; stroke-miterlimit: 22.9256;" fill-rule="evenodd" clip-rule="evenodd" fill="none" stroke="#000000" stroke-width="12" stroke-linecap="round" stroke-linejoin="round" stroke-miterlimit="22.9256" data-original="#000000"></path><path d="M128.241 352.181h.007" style="fill-rule: evenodd; clip-rule: evenodd; stroke-width: 12; stroke-linecap: round; stroke-linejoin: round; stroke-miterlimit: 2.6131;" fill-rule="evenodd" clip-rule="evenodd" fill="none" stroke="#000000" stroke-width="12" stroke-linecap="round" stroke-linejoin="round" stroke-miterlimit="2.6131" data-original="#000000"></path></g></svg>