<?xml version="1.0" encoding="iso-8859-1"?>
<!-- Generator: Adobe Illustrator 18.0.0, SVG Export Plug-In . SVG Version: 6.00 Build 0)  -->
<!DOCTYPE svg PUBLIC "-//W3C//DTD SVG 1.1//EN" "http://www.w3.org/Graphics/SVG/1.1/DTD/svg11.dtd">
<svg version="1.1" id="Capa_1" xmlns="http://www.w3.org/2000/svg" xmlns:xlink="http://www.w3.org/1999/xlink" x="0px" y="0px"
	 viewBox="0 0 44.294 44.294" style="enable-background:new 0 0 44.294 44.294;" xml:space="preserve">
<path style="fill:#141414;" d="M22.963,0c0.593,0.911,1.3,1.855,1.854,2.882c0.999,1.849,1.969,3.719,2.834,5.633
	c0.675,1.493,1.688,1.985,3.322,1.991c3.423,0.013,6.848,0.225,10.266,0.439c2.803,0.177,3.381,1.347,1.863,3.701
	c-1.856,2.876-3.745,5.731-5.669,8.562c-1.068,1.572-1.568,3.274-1.355,5.146c0.433,3.801,0.953,7.592,1.365,11.395
	c0.077,0.712,0.063,1.785-0.356,2.106c-0.459,0.351-1.534,0.238-2.174-0.047c-2.848-1.266-5.67-2.599-8.433-4.038
	c-2.185-1.138-4.06-1.137-6.121,0.432c-2.718,2.066-5.62,3.903-8.527,5.701c-0.652,0.402-1.785,0.523-2.456,0.228
	c-0.456-0.201-0.695-1.357-0.684-2.081c0.067-4.134,0.126-8.272,0.417-12.394c0.179-2.53-0.572-4.491-2.377-6.208
	c-1.896-1.803-3.683-3.72-5.529-5.575c-1.29-1.297-1.09-2.325,0.676-2.79c3.109-0.819,6.232-1.593,9.375-2.275
	c1.766-0.384,3.171-1.086,4.096-2.738c1.425-2.546,2.99-5.013,4.453-7.538C20.472,1.375,21.15,0.292,22.963,0z"/>
<g>
</g>
<g>
</g>
<g>
</g>
<g>
</g>
<g>
</g>
<g>
</g>
<g>
</g>
<g>
</g>
<g>
</g>
<g>
</g>
<g>
</g>
<g>
</g>
<g>
</g>
<g>
</g>
<g>
</g>
</svg>
