<svg xmlns="http://www.w3.org/2000/svg" version="1.1" xmlns:xlink="http://www.w3.org/1999/xlink" width="512" height="512" x="0" y="0" viewBox="0 0 128 128" style="enable-background:new 0 0 512 512" xml:space="preserve" class=""><g><path fill="#ba081e" d="M79.836 66.472a1.75 1.75 0 0 1-1.487-2.67l2.369-3.837-3.751.428a3.75 3.75 0 0 1-4.152-3.31l-.158-1.421-1.457 1.02a3.751 3.751 0 0 1-5.385-1.168L64 52.425l-1.818 3.089a3.752 3.752 0 0 1-5.382 1.169l-1.454-1.021-.158 1.421a3.752 3.752 0 0 1-4.152 3.311l-3.751-.429 2.366 3.835a1.75 1.75 0 1 1-2.977 1.84l-4.264-6.9a1.75 1.75 0 0 1 1.69-2.661l7.332.837a.261.261 0 0 0 .184-.054.244.244 0 0 0 .093-.168l.487-4.353a1.749 1.749 0 0 1 2.741-1.241l3.87 2.713a.248.248 0 0 0 .2.039.239.239 0 0 0 .163-.117l3.326-5.65a1.75 1.75 0 0 1 3.016 0l3.326 5.65a.251.251 0 0 0 .36.077l3.865-2.712a1.749 1.749 0 0 1 2.744 1.238l.487 4.353a.244.244 0 0 0 .093.168.206.206 0 0 0 .184.053l7.332-.836a1.75 1.75 0 0 1 1.687 2.658l-4.264 6.9a1.749 1.749 0 0 1-1.49.838zM64 122.75a1.749 1.749 0 0 1-1.508-.862l-3.326-5.651a.245.245 0 0 0-.166-.117.237.237 0 0 0-.2.04l-3.869 2.713a1.75 1.75 0 0 1-2.744-1.238l-.487-4.354a.246.246 0 0 0-.093-.168.249.249 0 0 0-.183-.052l-7.324.839a1.749 1.749 0 0 1-1.687-2.658l4.264-6.9a1.75 1.75 0 1 1 2.977 1.84l-2.369 3.836 3.751-.427a3.75 3.75 0 0 1 4.152 3.309l.158 1.42 1.454-1.019a3.749 3.749 0 0 1 5.385 1.168L64 117.551l1.818-3.089a3.75 3.75 0 0 1 5.385-1.169l1.454 1.02.158-1.42a3.75 3.75 0 0 1 4.153-3.309l3.75.427-2.369-3.836a1.75 1.75 0 1 1 2.977-1.84l4.264 6.9a1.749 1.749 0 0 1-1.69 2.665l-7.332-.835a.249.249 0 0 0-.184.052.246.246 0 0 0-.093.168l-.487 4.354a1.75 1.75 0 0 1-2.744 1.238l-3.87-2.714a.233.233 0 0 0-.2-.039.245.245 0 0 0-.163.117l-3.326 5.651a1.749 1.749 0 0 1-1.501.858z" opacity="1" data-original="#fd5c70" class=""></path><g fill="#27276d"><path d="M64 80.338a1.75 1.75 0 0 1-1.75-1.75 3.587 3.587 0 0 0-3.583-3.583H40.533a1.75 1.75 0 0 1 0-3.5h18.134a7.092 7.092 0 0 1 7.083 7.083 1.75 1.75 0 0 1-1.75 1.75zM58.667 107.005H35.259a17.775 17.775 0 0 1-8.944-2.418l-2.664-1.554a1.75 1.75 0 1 1 1.764-3.023l2.664 1.553a14.26 14.26 0 0 0 7.18 1.942h23.408a3.587 3.587 0 0 0 3.583-3.584 1.75 1.75 0 1 1 3.5 0 7.092 7.092 0 0 1-7.083 7.084z" fill="#4e4949" opacity="1" data-original="#27276d" class=""></path><path d="M24.533 75.005a1.75 1.75 0 0 1-1.233-2.987l3.847-3.848a17.632 17.632 0 0 1 12.551-5.2h8.839a6.017 6.017 0 1 1 0 12.033 1.75 1.75 0 0 1 0-3.5 2.517 2.517 0 1 0 0-5.033h-8.843a14.157 14.157 0 0 0-10.076 4.173l-3.847 3.847a1.745 1.745 0 0 1-1.238.515z" fill="#4e4949" opacity="1" data-original="#27276d" class=""></path><path d="M24.533 103.271H7a1.75 1.75 0 0 1-1.75-1.75V73.255A1.75 1.75 0 0 1 7 71.505h17.533a1.749 1.749 0 0 1 1.75 1.75v28.266a1.749 1.749 0 0 1-1.75 1.75zm-15.783-3.5h14.033V75.005H8.75zM92.741 107.005H80.212a1.75 1.75 0 1 1 0-3.5h12.529a14.267 14.267 0 0 0 7.181-1.942l2.663-1.553a1.75 1.75 0 1 1 1.764 3.023l-2.664 1.554a17.775 17.775 0 0 1-8.944 2.418zM103.467 75.005a1.745 1.745 0 0 1-1.238-.513l-3.847-3.847a14.157 14.157 0 0 0-10.076-4.173h-8.839a2.517 2.517 0 1 0 0 5.033 1.75 1.75 0 0 1 0 3.5 6.017 6.017 0 1 1 0-12.033h8.839a17.632 17.632 0 0 1 12.551 5.2l3.847 3.848a1.75 1.75 0 0 1-1.237 2.987z" fill="#4e4949" opacity="1" data-original="#27276d" class=""></path><path d="M121 103.271h-17.533a1.749 1.749 0 0 1-1.75-1.75V73.255a1.749 1.749 0 0 1 1.75-1.75H121a1.75 1.75 0 0 1 1.75 1.75v28.266a1.75 1.75 0 0 1-1.75 1.75zm-15.783-3.5h14.033V75.005h-14.033zM80.212 107.005H69.333a7.092 7.092 0 0 1-7.083-7.084V78.588a7.092 7.092 0 0 1 7.083-7.083h10.879a7.091 7.091 0 0 1 7.088 7.083v21.333a7.091 7.091 0 0 1-7.088 7.084zm-10.879-32a3.587 3.587 0 0 0-3.583 3.583v21.333a3.587 3.587 0 0 0 3.583 3.584h10.879a3.587 3.587 0 0 0 3.588-3.584V78.588a3.587 3.587 0 0 0-3.583-3.583z" fill="#4e4949" opacity="1" data-original="#27276d" class=""></path></g><path fill="#ba081e" d="M82 32.75h-8a1.75 1.75 0 0 1 0-3.5h8a2.25 2.25 0 0 0 0-4.5h-4a5.75 5.75 0 0 1 0-11.5h8a1.75 1.75 0 0 1 0 3.5h-8a2.25 2.25 0 0 0 0 4.5h4a5.75 5.75 0 0 1 0 11.5zM48 32.75a1.754 1.754 0 0 1-1.329-.611l-6-7A1.75 1.75 0 0 1 40.25 24v-9a1.75 1.75 0 0 1 3.5 0v8.353L48 28.311l4.25-4.958V15a1.75 1.75 0 0 1 3.5 0v9a1.75 1.75 0 0 1-.421 1.139l-6 7A1.754 1.754 0 0 1 48 32.75z" opacity="1" data-original="#fd5c70" class=""></path><path fill="#ba081e" d="M96 40.75H32A1.75 1.75 0 0 1 30.25 39V7A1.75 1.75 0 0 1 32 5.25h64A1.75 1.75 0 0 1 97.75 7v32A1.75 1.75 0 0 1 96 40.75zm-62.25-3.5h60.5V8.75h-60.5z" opacity="1" data-original="#fd5c70" class=""></path><path fill="#ba081e" d="M60.5 40.75a1.792 1.792 0 0 1-.375-.04 1.75 1.75 0 0 1-1.335-2.084l7-32a1.749 1.749 0 1 1 3.418.748l-7 32A1.749 1.749 0 0 1 60.5 40.75z" opacity="1" data-original="#fd5c70" class=""></path></g></svg>