<svg xmlns="http://www.w3.org/2000/svg" height="512pt" version="1.1" viewBox="0 0 512 512" width="512pt">
<g id="surface1">
<path d="M 437.019531 74.980469 C 388.667969 26.628906 324.378906 0 256 0 C 187.621094 0 123.332031 26.628906 74.980469 74.980469 C 26.628906 123.332031 0 187.621094 0 256 C 0 324.378906 26.628906 388.667969 74.980469 437.019531 C 123.332031 485.371094 187.621094 512 256 512 C 324.378906 512 388.667969 485.371094 437.019531 437.019531 C 485.371094 388.667969 512 324.378906 512 256 C 512 187.621094 485.371094 123.332031 437.019531 74.980469 Z M 256 458 C 144.617188 458 54 367.382812 54 256 C 54 144.617188 144.617188 54 256 54 C 367.382812 54 458 144.617188 458 256 C 458 367.382812 367.382812 458 256 458 Z M 256 458 " style=" stroke:none;fill-rule:nonzero;fill:rgb(0%,0%,0%);fill-opacity:1;" />
<path d="M 256 84 C 161.160156 84 84 161.160156 84 256 C 84 350.839844 161.160156 428 256 428 C 350.839844 428 428 350.839844 428 256 C 428 161.160156 350.839844 84 256 84 Z" style=" stroke:none;fill-rule:nonzero;fill:rgb(0%,0%,0%);fill-opacity:1;" />
</g>
</svg>