<svg id="outline" height="512" viewBox="0 0 512 512" width="512" xmlns="http://www.w3.org/2000/svg"><path d="m112 224a144.05 144.05 0 0 0 88 132.69482v99.30518a40.04521 40.04521 0 0 0 40 40h32a40.04521 40.04521 0 0 0 40-40v-99.30518a144.1152 144.1152 0 0 0 85.0144-103.45922c.02155-.104.04511-.20728.06641-.31128q.301-1.479.56964-2.96546c.10925-.59753.21-1.19787.31177-1.79785q.30222-1.79243.56268-3.59412c.14154-.98559.27631-1.97314.39777-2.96484q.11774-.96881.22241-1.93994.20947-1.92737.3692-3.8689c.02832-.35095.05963-.70117.08551-1.05261.11048-1.49158.1919-2.99084.25641-4.49438q.0282-.66046.05042-1.322c.05523-1.63565.09338-3.27542.09338-4.92422 0-79.40186-64.59814-144-144-144s-144 64.59814-144 144zm184 208v16h-80v-16h16v-16h-16v-16h80v16h-40v16zm-24 48h-32a24.03771 24.03771 0 0 1 -22.6239-16h77.2478a24.03771 24.03771 0 0 1 -22.6239 16zm-16-384a128.14477 128.14477 0 0 1 128 128c0 1.46289-.03424 2.9209-.083 4.37671q-.01986.589-.04486 1.17676-.08478 1.99256-.22674 3.97583c-.02411.32666-.0528.65185-.07935.97778-.092 1.136-.20239 2.26855-.32416 3.39893q-.09567.88128-.20172 1.75952c-.10333.84875-.22058 1.69458-.34064 2.53991q-.24105 1.68513-.525 3.35608c-.08331.49219-.16669.98462-.25574 1.47559-.16571.90771-.33679 1.81372-.52154 2.7146l-.01343.06287c-11.97525 58.24816-63.64462 102.18542-125.38382 102.18542v16a143.594 143.594 0 0 0 40-5.65784v21.65784h-80v-32.72314a8.00058 8.00058 0 0 0 -5.17578-7.48487 128.01721 128.01721 0 0 1 45.17578-247.79199z"/><path d="m248 16h16v32h-16z"/><path d="m112.236 72.236h16v32h-16z" transform="matrix(.707 -.707 .707 .707 -27.176 110.863)"/><path d="m48 216h32v16h-32z"/><path d="m104.236 351.765h32v16h-32z" transform="matrix(.707 -.707 .707 .707 -219.176 190.392)"/><path d="m383.765 343.764h16v32h-16z" transform="matrix(.707 -.707 .707 .707 -139.647 382.392)"/><path d="m432 216h32v16h-32z"/><path d="m375.764 80.236h32v16h-32z" transform="matrix(.707 -.707 .707 .707 52.353 302.863)"/></svg>