<svg id="svg2986" height="512" viewBox="0 0 6.3499999 6.3500002" width="512" xmlns="http://www.w3.org/2000/svg" xmlns:svg="http://www.w3.org/2000/svg"><g id="layer1" transform="translate(0 -290.65)"><path id="circle2815" d="m3.1739666 290.9533c-1.5731935 0-2.85357269 1.28245-2.85357269 2.85564s1.28037919 2.85357 2.85357269 2.85357c1.5731932 0 2.8556395-1.28038 2.8556395-2.85357s-1.2824463-2.85564-2.8556395-2.85564zm0 .52968c1.2872104 0 2.3264728 1.03875 2.3264728 2.32596s-1.0392624 2.32441-2.3264728 2.32441c-1.2872106 0-2.32388923-1.0372-2.32388926-2.32441 0-1.28721 1.03667866-2.32596 2.32388926-2.32596zm-1.3885458 2.60708h1.0583334v1.05885c0 .35312.5296834.35312.5296834 0v-1.05885h1.0583333c.3606639.008.3606639-.53714 0-.52917h-1.0583333v-1.05833c.00291-.14936-.1183087-.27152-.267684-.26975-.147147.001-.2648651.12262-.2619994.26975v1.05833h-1.0709942c-.3572672.0242-.3326842.53796.012661.52917z" font-variant-ligatures="normal" font-variant-position="normal" font-variant-caps="normal" font-variant-numeric="normal" font-variant-alternates="normal" font-feature-settings="normal" text-indent="0" text-align="start" text-decoration-line="none" text-decoration-style="solid" text-decoration-color="rgb(0,0,0)" text-transform="none" text-orientation="mixed" white-space="normal" shape-padding="0" isolation="auto" mix-blend-mode="normal" solid-color="rgb(0,0,0)" solid-opacity="1" vector-effect="none" paint-order="stroke fill markers"/></g></svg>