<?xml version="1.0" encoding="UTF-8"?>
<svg xmlns="http://www.w3.org/2000/svg" viewBox="0 0 512 512" width="512" height="512">
  <g id="Out_line" data-name="Out line">
    <path d="M 179.250 110.000 L 228.500 110.000 L 228.750 110.250 L 229.500 110.250 L 229.750 110.500 L 230.750 110.500 L 231.000 110.750 L 232.000 110.750 L 232.250 111.000 L 233.250 111.000 L 233.500 111.250 L 233.750 111.250 L 234.000 111.500 L 234.500 111.500 L 234.750 111.750 L 235.000 111.750 L 235.250 112.000 L 235.750 112.000 L 236.000 112.250 L 236.250 112.250 L 236.500 112.500 L 236.750 112.500 L 237.000 112.750 L 237.500 112.750 L 237.750 113.000 L 238.000 113.000 L 238.500 113.500 L 238.750 113.500 L 239.000 113.750 L 169.000 113.750 L 169.250 113.500 L 169.500 113.500 L 170.000 113.000 L 170.250 113.000 L 170.500 112.750 L 170.750 112.750 L 171.000 112.500 L 171.250 112.500 L 171.500 112.250 L 171.750 112.250 L 172.000 112.000 L 172.500 112.000 L 172.750 111.750 L 173.000 111.750 L 173.250 111.500 L 173.750 111.500 L 174.000 111.250 L 174.250 111.250 L 174.500 111.000 L 175.500 111.000 L 175.750 110.750 L 176.750 110.750 L 177.000 110.500 L 178.000 110.500 L 178.250 110.250 L 179.000 110.250 Z M 161.750 120.750 L 161.750 135.000 L 161.500 134.750 L 161.500 134.500 L 161.000 134.000 L 161.000 133.750 L 160.750 133.500 L 160.750 133.250 L 160.500 133.000 L 160.500 132.750 L 160.250 132.500 L 160.250 132.250 L 160.000 132.000 L 160.000 131.500 L 159.750 131.250 L 159.750 131.000 L 159.500 130.750 L 159.500 130.250 L 159.250 130.000 L 159.250 129.750 L 159.000 129.500 L 159.000 128.750 L 158.750 128.500 L 158.750 127.250 L 159.000 127.000 L 159.000 126.250 L 159.250 126.000 L 159.250 125.750 L 159.500 125.500 L 159.500 125.000 L 159.750 124.750 L 159.750 124.500 L 160.000 124.250 L 160.000 124.000 L 160.250 123.750 L 160.250 123.500 L 160.500 123.250 L 160.500 123.000 L 160.750 122.750 L 160.750 122.500 L 161.000 122.250 L 161.000 122.000 L 161.250 121.750 L 161.250 121.500 L 161.750 121.000 Z M 246.000 120.750 L 246.000 121.000 L 246.500 121.500 L 246.500 121.750 L 246.750 122.000 L 246.750 122.250 L 247.000 122.500 L 247.000 122.750 L 247.250 123.000 L 247.250 123.250 L 247.500 123.500 L 247.500 123.750 L 247.750 124.000 L 247.750 124.250 L 248.000 124.500 L 248.000 124.750 L 248.250 125.000 L 248.250 125.500 L 248.500 125.750 L 248.500 126.000 L 248.750 126.250 L 248.750 127.000 L 249.000 127.250 L 249.000 128.500 L 248.750 128.750 L 248.750 129.500 L 248.500 129.750 L 248.500 130.000 L 248.250 130.250 L 248.250 130.750 L 248.000 131.000 L 248.000 131.250 L 247.750 131.500 L 247.750 132.000 L 247.500 132.250 L 247.500 132.500 L 247.250 132.750 L 247.250 133.000 L 247.000 133.250 L 247.000 133.500 L 246.750 133.750 L 246.750 134.000 L 246.250 134.500 L 246.250 134.750 L 246.000 135.000 L 246.000 134.500 L 246.250 134.250 L 246.250 121.750 L 246.000 121.500 L 246.000 121.000 Z M 169.000 142.000 L 169.750 142.000 L 170.000 142.250 L 238.000 142.250 L 238.250 142.000 L 239.000 142.000 L 238.750 142.250 L 238.500 142.250 L 238.000 142.750 L 237.750 142.750 L 237.500 143.000 L 237.000 143.000 L 236.750 143.250 L 236.500 143.250 L 236.250 143.500 L 236.000 143.500 L 235.750 143.750 L 235.250 143.750 L 235.000 144.000 L 234.750 144.000 L 234.500 144.250 L 234.000 144.250 L 233.750 144.500 L 233.500 144.500 L 233.250 144.750 L 232.250 144.750 L 232.000 145.000 L 231.000 145.000 L 230.750 145.250 L 229.750 145.250 L 229.500 145.500 L 228.750 145.500 L 228.500 145.750 L 226.250 145.750 L 226.000 146.000 L 194.250 146.000 L 194.000 146.250 L 194.000 158.500 L 194.250 158.750 L 194.250 159.750 L 194.500 160.000 L 194.500 161.000 L 194.750 161.250 L 194.750 162.250 L 195.000 162.500 L 195.000 163.500 L 195.250 163.750 L 195.250 164.750 L 195.500 165.000 L 195.500 166.000 L 195.750 166.250 L 195.750 167.000 L 196.000 167.250 L 196.000 168.250 L 196.250 168.500 L 196.250 169.500 L 196.500 169.750 L 196.500 170.750 L 196.750 171.000 L 196.750 172.000 L 197.000 172.250 L 197.000 173.250 L 197.250 173.500 L 197.250 174.500 L 197.500 174.750 L 197.500 175.750 L 197.750 176.000 L 197.750 177.000 L 198.000 177.250 L 198.000 178.250 L 198.250 178.500 L 198.250 179.500 L 198.500 179.750 L 198.500 180.750 L 198.750 181.000 L 198.750 182.000 L 199.000 182.250 L 199.000 183.000 L 199.250 183.250 L 199.250 184.250 L 199.500 184.500 L 199.500 185.500 L 199.750 185.750 L 199.750 186.750 L 200.000 187.000 L 200.000 188.000 L 200.250 188.250 L 200.250 189.250 L 200.500 189.500 L 200.500 189.750 L 200.750 190.000 L 371.750 190.000 L 372.000 189.750 L 372.000 177.500 L 371.750 177.250 L 371.750 176.250 L 371.500 176.000 L 371.500 175.000 L 371.250 174.750 L 371.250 173.750 L 371.000 173.500 L 371.000 172.500 L 370.750 172.250 L 370.750 171.250 L 370.500 171.000 L 370.500 169.750 L 370.250 169.500 L 370.250 168.500 L 370.000 168.250 L 370.000 167.250 L 369.750 167.000 L 369.750 166.000 L 369.500 165.750 L 369.500 164.750 L 369.250 164.500 L 369.250 163.500 L 369.000 163.250 L 369.000 162.250 L 368.750 162.000 L 368.750 161.000 L 368.500 160.750 L 368.500 159.750 L 368.250 159.500 L 368.250 158.500 L 368.000 158.250 L 368.000 157.250 L 367.750 157.000 L 367.750 156.000 L 367.500 155.750 L 367.500 154.500 L 367.250 154.250 L 367.250 153.500 L 367.750 153.000 L 367.750 152.750 L 368.250 152.250 L 368.250 152.000 L 368.500 152.000 L 369.000 151.500 L 369.250 151.500 L 369.750 151.000 L 370.000 151.000 L 370.250 150.750 L 370.500 150.750 L 371.000 150.250 L 371.750 150.250 L 372.000 150.000 L 425.250 150.000 L 425.500 150.250 L 426.500 150.250 L 426.750 150.500 L 427.750 150.500 L 428.000 150.750 L 428.750 150.750 L 429.000 151.000 L 430.000 151.000 L 430.250 151.250 L 430.500 151.250 L 430.750 151.500 L 431.250 151.500 L 431.500 151.750 L 431.750 151.750 L 432.000 152.000 L 432.500 152.000 L 432.750 152.250 L 433.000 152.250 L 433.250 152.500 L 433.500 152.500 L 433.750 152.750 L 434.250 152.750 L 434.500 153.000 L 434.750 153.000 L 435.250 153.500 L 435.500 153.500 L 436.000 154.000 L 372.000 154.000 L 371.750 154.250 L 371.750 166.500 L 372.000 166.750 L 372.000 167.750 L 372.250 168.000 L 372.250 169.000 L 372.500 169.250 L 372.500 170.250 L 372.750 170.500 L 372.750 171.500 L 373.000 171.750 L 373.000 172.750 L 373.250 173.000 L 373.250 174.000 L 373.500 174.250 L 373.500 175.250 L 373.750 175.500 L 373.750 176.500 L 374.000 176.750 L 374.000 177.750 L 374.250 178.000 L 374.250 179.000 L 374.500 179.250 L 374.500 180.250 L 374.750 180.500 L 374.750 181.500 L 375.000 181.750 L 375.000 182.750 L 375.250 183.000 L 375.250 184.000 L 375.500 184.250 L 375.500 185.250 L 375.750 185.500 L 375.750 186.500 L 376.000 186.750 L 376.000 187.750 L 376.250 188.000 L 376.250 189.000 L 376.500 189.250 L 376.500 190.250 L 376.750 190.500 L 376.750 191.500 L 377.000 191.750 L 377.000 192.750 L 377.250 193.000 L 377.250 194.250 L 377.500 194.500 L 377.500 195.500 L 377.750 195.750 L 377.750 196.750 L 378.000 197.000 L 378.000 198.000 L 378.250 198.250 L 378.250 199.250 L 378.500 199.500 L 378.500 200.500 L 378.750 200.750 L 378.750 201.750 L 379.000 202.000 L 379.000 203.000 L 379.250 203.250 L 379.250 204.250 L 379.500 204.500 L 379.500 205.500 L 379.750 205.750 L 379.750 206.750 L 380.000 207.000 L 380.000 208.000 L 380.250 208.250 L 380.250 209.250 L 380.500 209.500 L 380.500 210.500 L 380.750 210.750 L 380.750 211.750 L 381.000 212.000 L 381.000 213.000 L 381.250 213.250 L 381.250 214.250 L 381.500 214.500 L 381.500 215.500 L 381.750 215.750 L 381.750 216.750 L 382.000 217.000 L 382.000 218.000 L 382.250 218.250 L 382.250 219.250 L 382.500 219.500 L 382.500 220.500 L 382.750 220.750 L 382.750 221.750 L 383.000 222.000 L 383.000 222.250 L 383.250 222.500 L 396.250 222.500 L 396.500 222.250 L 399.500 222.250 L 399.750 222.500 L 402.500 222.500 L 402.750 222.750 L 405.250 222.750 L 405.500 223.000 L 408.000 223.000 L 408.250 223.250 L 409.250 223.250 L 409.500 223.500 L 410.250 223.500 L 410.500 223.750 L 411.500 223.750 L 411.750 224.000 L 412.750 224.000 L 413.000 224.250 L 413.750 224.250 L 414.000 224.500 L 415.000 224.500 L 415.250 224.750 L 416.250 224.750 L 416.500 225.000 L 417.250 225.000 L 417.500 225.250 L 418.500 225.250 L 418.750 225.500 L 419.750 225.500 L 420.000 225.750 L 420.750 225.750 L 421.000 226.000 L 422.000 226.000 L 422.250 226.250 L 422.750 226.250 L 423.000 226.500 L 423.250 226.500 L 423.500 226.750 L 424.000 226.750 L 424.250 227.000 L 424.500 227.000 L 424.750 227.250 L 425.250 227.250 L 425.500 227.500 L 425.750 227.500 L 426.000 227.750 L 426.500 227.750 L 426.750 228.000 L 427.000 228.000 L 427.250 228.250 L 427.750 228.250 L 428.000 228.500 L 428.250 228.500 L 428.500 228.750 L 429.000 228.750 L 429.250 229.000 L 429.500 229.000 L 429.750 229.250 L 430.250 229.250 L 430.500 229.500 L 430.750 229.500 L 431.000 229.750 L 431.500 229.750 L 431.750 230.000 L 432.000 230.000 L 432.250 230.250 L 432.750 230.250 L 433.000 230.500 L 433.250 230.500 L 433.500 230.750 L 434.000 230.750 L 434.250 231.000 L 434.500 231.000 L 434.750 231.250 L 435.250 231.250 L 435.500 231.500 L 435.750 231.500 L 436.000 231.750 L 436.250 231.750 L 436.000 231.750 L 435.750 231.500 L 435.500 231.500 L 435.250 231.250 L 434.750 231.250 L 434.500 231.000 L 434.000 231.000 L 433.750 230.750 L 433.500 230.750 L 433.250 230.500 L 432.750 230.500 L 432.500 230.250 L 432.000 230.250 L 431.750 230.000 L 431.500 230.000 L 431.250 229.750 L 430.750 229.750 L 430.500 229.500 L 429.750 229.500 L 429.500 229.250 L 429.000 229.250 L 428.750 229.000 L 428.000 229.000 L 427.750 228.750 L 427.250 228.750 L 427.000 228.500 L 426.250 228.500 L 426.000 228.250 L 425.500 228.250 L 425.250 228.000 L 424.500 228.000 L 424.250 227.750 L 423.750 227.750 L 423.500 227.500 L 422.750 227.500 L 422.500 227.250 L 421.000 227.250 L 420.750 227.000 L 419.500 227.000 L 419.250 226.750 L 417.750 226.750 L 417.500 226.500 L 416.250 226.500 L 416.000 226.250 L 414.500 226.250 L 414.250 226.000 L 406.250 226.000 L 406.000 225.750 L 388.000 225.750 L 387.750 226.000 L 386.000 226.000 L 385.750 226.250 L 385.750 238.750 L 386.000 239.000 L 386.000 240.000 L 386.250 240.250 L 386.250 241.250 L 386.500 241.500 L 386.500 242.250 L 386.750 242.500 L 386.750 243.500 L 387.000 243.750 L 387.000 244.750 L 387.250 245.000 L 387.250 246.000 L 387.500 246.250 L 387.500 247.250 L 387.750 247.500 L 387.750 248.500 L 388.000 248.750 L 388.000 249.750 L 388.250 250.000 L 388.250 250.750 L 388.500 251.000 L 388.500 252.000 L 388.750 252.250 L 388.750 253.250 L 389.000 253.500 L 389.000 254.000 L 389.250 254.250 L 396.250 254.250 L 396.500 254.500 L 398.750 254.500 L 399.000 254.750 L 401.250 254.750 L 401.500 255.000 L 403.750 255.000 L 404.000 255.250 L 406.250 255.250 L 406.500 255.500 L 407.250 255.500 L 407.500 255.750 L 408.000 255.750 L 408.250 256.000 L 409.000 256.000 L 409.250 256.250 L 409.750 256.250 L 410.000 256.500 L 410.750 256.500 L 411.000 256.750 L 411.500 256.750 L 411.750 257.000 L 412.500 257.000 L 412.750 257.250 L 413.250 257.250 L 413.500 257.500 L 414.250 257.500 L 414.500 257.750 L 415.000 257.750 L 415.250 258.000 L 416.000 258.000 L 416.250 258.250 L 416.750 258.250 L 417.000 258.500 L 417.750 258.500 L 418.000 258.750 L 418.500 258.750 L 418.750 259.000 L 419.000 259.000 L 419.250 259.250 L 419.500 259.250 L 420.000 259.750 L 420.250 259.750 L 420.500 260.000 L 420.750 260.000 L 421.000 260.250 L 421.250 260.250 L 421.500 260.500 L 421.250 260.500 L 421.000 260.250 L 420.500 260.250 L 420.250 260.000 L 419.500 260.000 L 419.250 259.750 L 418.750 259.750 L 418.500 259.500 L 418.000 259.500 L 417.750 259.250 L 417.250 259.250 L 417.000 259.000 L 416.250 259.000 L 416.000 258.750 L 415.500 258.750 L 415.250 258.500 L 412.500 258.500 L 412.250 258.250 L 409.250 258.250 L 409.000 258.000 L 406.250 258.000 L 406.000 257.750 L 392.500 257.750 L 392.250 258.000 L 392.250 270.500 L 392.500 270.750 L 392.500 271.750 L 392.750 272.000 L 392.750 273.000 L 393.000 273.250 L 393.000 274.250 L 393.250 274.500 L 393.250 275.500 L 393.500 275.750 L 393.500 276.750 L 393.750 277.000 L 393.750 278.000 L 394.000 278.250 L 394.000 279.250 L 394.250 279.500 L 394.250 280.500 L 394.500 280.750 L 394.500 281.750 L 394.750 282.000 L 394.750 283.000 L 395.000 283.250 L 395.000 284.250 L 395.250 284.500 L 395.250 285.500 L 395.500 285.750 L 395.500 286.750 L 395.750 287.000 L 395.750 288.000 L 396.000 288.250 L 396.000 289.250 L 396.250 289.500 L 396.250 290.500 L 396.500 290.750 L 396.500 291.750 L 396.750 292.000 L 396.750 293.000 L 397.000 293.250 L 397.000 294.250 L 397.250 294.500 L 397.250 295.500 L 397.500 295.750 L 397.500 296.750 L 397.750 297.000 L 397.750 298.000 L 398.000 298.250 L 398.000 299.250 L 398.250 299.500 L 398.250 300.500 L 398.500 300.750 L 398.500 301.750 L 398.750 302.000 L 398.750 303.000 L 399.000 303.250 L 399.000 304.250 L 399.250 304.500 L 399.000 304.750 L 398.000 304.750 L 397.750 305.000 L 397.750 304.500 L 397.500 304.250 L 397.500 303.250 L 397.250 303.000 L 397.250 302.000 L 397.000 301.750 L 397.000 300.750 L 396.750 300.500 L 396.750 299.500 L 396.500 299.250 L 396.500 298.250 L 396.250 298.000 L 396.250 297.000 L 396.000 296.750 L 396.000 295.750 L 395.750 295.500 L 395.750 294.500 L 395.500 294.250 L 395.500 293.250 L 395.250 293.000 L 395.250 292.000 L 395.000 291.750 L 395.000 290.750 L 394.750 290.500 L 394.750 289.500 L 394.500 289.250 L 394.500 288.250 L 394.250 288.000 L 394.250 287.000 L 394.000 286.750 L 394.000 285.750 L 393.750 285.500 L 393.750 284.500 L 393.500 284.250 L 393.500 283.000 L 393.250 282.750 L 393.250 281.750 L 393.000 281.500 L 393.000 280.500 L 392.750 280.250 L 392.750 279.250 L 392.500 279.000 L 392.500 278.000 L 392.250 277.750 L 392.250 276.750 L 392.000 276.500 L 392.000 275.500 L 391.750 275.250 L 391.750 274.250 L 391.500 274.000 L 391.500 273.000 L 391.250 272.750 L 391.250 271.750 L 391.000 271.500 L 391.000 270.500 L 390.750 270.250 L 390.750 269.250 L 390.500 269.000 L 390.500 268.000 L 390.250 267.750 L 390.250 266.750 L 390.000 266.500 L 390.000 265.500 L 389.750 265.250 L 389.750 264.250 L 389.500 264.000 L 389.500 263.000 L 389.250 262.750 L 389.250 261.750 L 389.000 261.500 L 389.000 261.000 L 388.750 260.750 L 378.000 260.750 L 378.500 260.750 L 378.750 260.500 L 379.000 260.500 L 379.250 260.250 L 379.500 260.250 L 379.750 260.000 L 380.000 260.000 L 380.250 259.750 L 380.500 259.750 L 380.750 259.500 L 381.000 259.500 L 381.250 259.250 L 381.750 259.250 L 382.000 259.000 L 382.250 259.000 L 382.500 258.750 L 382.750 258.750 L 383.000 258.500 L 383.250 258.500 L 383.500 258.250 L 383.750 258.250 L 384.000 258.000 L 384.500 258.000 L 384.750 257.750 L 385.000 257.750 L 385.250 257.500 L 385.500 257.500 L 385.750 257.250 L 385.750 244.750 L 385.500 244.500 L 385.500 243.500 L 385.250 243.250 L 385.250 242.000 L 385.000 241.750 L 385.000 240.750 L 384.750 240.500 L 384.750 239.500 L 384.500 239.250 L 384.500 238.250 L 384.250 238.000 L 384.250 236.750 L 384.000 236.500 L 384.000 235.500 L 383.750 235.250 L 383.750 234.250 L 383.500 234.000 L 383.500 233.000 L 383.250 232.750 L 383.250 231.500 L 383.000 231.250 L 383.000 230.250 L 382.750 230.000 L 382.750 229.500 L 382.500 229.250 L 370.500 229.250 L 370.250 229.500 L 369.750 229.500 L 369.500 229.750 L 368.750 229.750 L 368.500 230.000 L 368.000 230.000 L 367.750 230.250 L 367.250 230.250 L 367.000 230.500 L 366.500 230.500 L 366.750 230.500 L 367.000 230.250 L 367.500 230.250 L 367.750 230.000 L 368.000 230.000 L 368.250 229.750 L 368.750 229.750 L 369.000 229.500 L 369.250 229.500 L 369.500 229.250 L 370.000 229.250 L 370.250 229.000 L 370.500 229.000 L 370.750 228.750 L 371.250 228.750 L 371.500 228.500 L 371.750 228.500 L 372.000 228.250 L 372.500 228.250 L 372.750 228.000 L 373.000 228.000 L 373.250 227.750 L 373.750 227.750 L 374.000 227.500 L 374.500 227.500 L 374.750 227.250 L 375.250 227.250 L 375.500 227.000 L 376.000 227.000 L 376.250 226.750 L 376.750 226.750 L 377.000 226.500 L 377.500 226.500 L 377.750 226.250 L 378.500 226.250 L 378.750 226.000 L 379.250 226.000 L 379.500 225.750 L 379.500 213.250 L 379.250 213.000 L 379.250 212.000 L 379.000 211.750 L 379.000 210.750 L 378.750 210.500 L 378.750 209.500 L 378.500 209.250 L 378.500 208.250 L 378.250 208.000 L 378.250 207.250 L 378.000 207.000 L 378.000 206.000 L 377.750 205.750 L 377.750 204.750 L 377.500 204.500 L 377.500 203.500 L 377.250 203.250 L 377.250 202.250 L 377.000 202.000 L 377.000 201.000 L 376.750 200.750 L 376.750 200.250 L 376.500 200.000 L 364.500 200.000 L 364.000 200.500 L 363.750 200.500 L 362.750 201.500 L 362.500 201.500 L 361.500 202.500 L 361.250 202.500 L 360.250 203.500 L 360.000 203.500 L 359.250 204.250 L 359.000 204.250 L 359.000 194.000 L 358.750 193.750 L 203.750 193.750 L 203.500 194.000 L 203.500 206.500 L 203.750 206.750 L 203.750 207.750 L 204.000 208.000 L 204.000 209.000 L 204.250 209.250 L 204.250 210.250 L 204.500 210.500 L 204.500 211.500 L 204.750 211.750 L 204.750 212.750 L 205.000 213.000 L 205.000 214.000 L 205.250 214.250 L 205.250 215.500 L 205.500 215.750 L 205.500 216.750 L 205.750 217.000 L 205.750 218.000 L 206.000 218.250 L 206.000 219.250 L 206.250 219.500 L 206.250 220.500 L 206.500 220.750 L 206.500 221.750 L 206.750 222.000 L 206.750 223.000 L 207.000 223.250 L 207.000 224.250 L 207.250 224.500 L 207.250 225.500 L 207.500 225.750 L 207.500 226.750 L 207.750 227.000 L 207.750 228.000 L 208.000 228.250 L 208.000 229.250 L 208.250 229.500 L 208.250 230.500 L 208.500 230.750 L 208.500 231.750 L 208.750 232.000 L 208.750 233.250 L 209.000 233.500 L 209.000 234.500 L 209.250 234.750 L 209.250 235.750 L 209.500 236.000 L 209.500 237.000 L 209.750 237.250 L 209.750 238.250 L 210.000 238.500 L 210.000 239.500 L 210.250 239.750 L 210.250 240.750 L 210.500 241.000 L 210.500 242.000 L 210.750 242.250 L 210.750 243.250 L 211.000 243.500 L 211.000 244.500 L 211.250 244.750 L 211.250 245.750 L 211.500 246.000 L 211.500 247.000 L 211.750 247.250 L 211.750 248.250 L 212.000 248.500 L 212.000 249.500 L 212.250 249.750 L 212.250 250.750 L 212.500 251.000 L 212.500 252.250 L 212.750 252.500 L 212.750 253.500 L 213.000 253.750 L 213.000 254.750 L 213.250 255.000 L 213.250 256.000 L 213.500 256.250 L 213.500 257.250 L 213.750 257.500 L 213.750 258.500 L 214.000 258.750 L 214.000 259.750 L 214.250 260.000 L 214.250 261.000 L 214.500 261.250 L 214.500 262.250 L 214.750 262.500 L 214.750 263.500 L 215.000 263.750 L 215.000 264.750 L 215.250 265.000 L 215.250 266.000 L 215.500 266.250 L 215.500 267.250 L 215.750 267.500 L 215.750 268.500 L 216.000 268.750 L 216.000 270.000 L 216.250 270.250 L 216.250 271.250 L 216.500 271.500 L 216.500 272.500 L 216.750 272.750 L 216.750 273.750 L 217.000 274.000 L 217.000 275.000 L 217.250 275.250 L 217.250 276.250 L 217.500 276.500 L 217.500 277.500 L 217.750 277.750 L 217.750 278.250 L 218.000 278.500 L 222.500 278.500 L 222.750 278.750 L 224.250 278.750 L 224.500 279.000 L 226.000 279.000 L 226.250 279.250 L 227.000 279.250 L 227.250 279.500 L 228.000 279.500 L 228.250 279.750 L 228.750 279.750 L 229.000 280.000 L 229.750 280.000 L 230.000 280.250 L 230.500 280.250 L 230.750 280.500 L 231.500 280.500 L 231.750 280.750 L 232.250 280.750 L 232.500 281.000 L 232.750 281.000 L 233.000 281.250 L 233.250 281.250 L 233.500 281.500 L 234.000 281.500 L 234.250 281.750 L 234.500 281.750 L 235.000 282.250 L 235.750 282.250 L 236.000 282.500 L 236.250 282.500 L 236.750 283.000 L 237.000 283.000 L 236.750 283.000 L 236.500 282.750 L 235.750 282.750 L 235.500 282.500 L 234.750 282.500 L 234.500 282.250 L 233.500 282.250 L 233.250 282.000 L 216.000 282.000 L 215.750 282.250 L 214.750 282.250 L 214.500 282.500 L 212.750 282.500 L 212.500 282.750 L 210.750 282.750 L 210.500 283.000 L 210.000 283.000 L 209.750 283.250 L 209.500 283.250 L 209.250 283.500 L 208.750 283.500 L 208.500 283.750 L 208.250 283.750 L 208.000 284.000 L 207.500 284.000 L 207.250 284.250 L 207.000 284.250 L 206.750 284.500 L 206.500 284.500 L 206.000 285.000 L 205.750 285.000 L 205.500 285.250 L 205.250 285.250 L 204.750 285.750 L 204.500 285.750 L 204.000 286.250 L 203.750 286.250 L 202.750 287.250 L 202.500 287.250 L 201.250 288.500 L 201.000 288.500 L 200.000 289.500 L 200.000 289.750 L 199.250 290.500 L 199.250 290.750 L 198.500 291.500 L 198.500 291.750 L 197.500 292.750 L 197.500 293.000 L 197.250 293.250 L 197.250 293.500 L 197.000 293.750 L 197.000 294.000 L 196.500 294.500 L 196.500 294.750 L 196.250 295.000 L 196.250 295.250 L 196.000 295.500 L 196.000 295.750 L 195.750 296.000 L 195.750 296.250 L 195.500 296.500 L 195.500 297.000 L 195.250 297.250 L 195.250 297.500 L 195.000 297.750 L 195.000 298.250 L 194.750 298.500 L 194.750 299.250 L 194.500 299.500 L 194.500 300.250 L 194.250 300.500 L 194.250 301.250 L 194.000 301.500 L 194.000 302.750 L 193.750 303.000 L 193.750 304.750 L 193.500 305.000 L 193.500 318.750 L 193.750 319.000 L 193.750 320.750 L 194.000 321.000 L 194.000 322.250 L 194.250 322.500 L 194.250 323.250 L 194.500 323.500 L 194.500 324.250 L 194.750 324.500 L 194.750 325.250 L 195.000 325.500 L 195.000 326.000 L 195.250 326.250 L 195.250 326.500 L 195.500 326.750 L 195.500 327.250 L 195.750 327.500 L 195.750 327.750 L 196.000 328.000 L 196.000 328.250 L 196.250 328.500 L 196.250 328.750 L 196.500 329.000 L 196.500 329.250 L 197.000 329.750 L 197.000 330.000 L 197.250 330.250 L 197.250 330.500 L 197.500 330.750 L 197.500 331.000 L 198.500 332.000 L 198.500 332.250 L 199.250 333.000 L 199.250 333.250 L 200.000 334.000 L 200.000 334.250 L 201.000 335.250 L 201.250 335.250 L 202.500 336.500 L 202.750 336.500 L 203.750 337.500 L 204.000 337.500 L 204.500 338.000 L 204.750 338.000 L 205.250 338.500 L 205.500 338.500 L 205.750 338.750 L 206.000 338.750 L 206.500 339.250 L 206.750 339.250 L 207.000 339.500 L 207.250 339.500 L 207.500 339.750 L 208.000 339.750 L 208.250 340.000 L 208.500 340.000 L 208.750 340.250 L 209.250 340.250 L 209.500 340.500 L 209.750 340.500 L 210.000 340.750 L 210.500 340.750 L 210.750 341.000 L 212.500 341.000 L 212.750 341.250 L 214.500 341.250 L 214.750 341.500 L 215.250 341.500 L 215.500 341.750 L 233.000 341.750 L 233.250 341.500 L 234.250 341.500 L 234.500 341.250 L 235.500 341.250 L 235.750 341.000 L 236.750 341.000 L 236.500 341.000 L 236.250 341.250 L 236.000 341.250 L 235.750 341.500 L 235.500 341.500 L 235.250 341.750 L 234.750 341.750 L 234.500 342.000 L 234.250 342.000 L 234.000 342.250 L 233.750 342.250 L 233.500 342.500 L 233.250 342.500 L 233.000 342.750 L 232.750 342.750 L 232.500 343.000 L 231.750 343.000 L 231.500 343.250 L 231.000 343.250 L 230.750 343.500 L 230.000 343.500 L 229.750 343.750 L 229.250 343.750 L 229.000 344.000 L 228.250 344.000 L 228.000 344.250 L 227.500 344.250 L 227.250 344.500 L 226.500 344.500 L 226.250 344.750 L 225.750 344.750 L 225.500 345.000 L 224.000 345.000 L 223.750 345.250 L 222.500 345.250 L 222.250 345.000 L 221.000 345.000 L 220.750 344.750 L 220.000 344.750 L 219.750 344.500 L 219.250 344.500 L 219.000 344.250 L 217.500 344.250 L 217.250 344.000 L 215.500 344.000 L 215.250 343.750 L 213.750 343.750 L 213.500 343.500 L 212.000 343.500 L 211.750 343.250 L 210.250 343.250 L 210.000 343.000 L 208.250 343.000 L 208.000 342.750 L 194.500 342.750 L 194.250 343.000 L 194.250 343.250 L 194.000 343.500 L 194.000 343.750 L 193.750 344.000 L 193.750 344.250 L 193.500 344.500 L 193.500 344.750 L 193.250 345.000 L 193.250 345.250 L 193.000 345.500 L 193.000 345.750 L 192.750 346.000 L 192.750 346.250 L 192.500 346.500 L 192.500 346.750 L 192.250 347.000 L 192.250 347.250 L 192.000 347.500 L 192.000 347.750 L 191.750 348.000 L 191.750 348.250 L 191.500 348.500 L 191.500 348.750 L 191.250 349.000 L 191.250 349.250 L 191.000 349.500 L 191.000 349.750 L 190.750 350.000 L 190.750 350.250 L 190.500 350.500 L 190.500 350.750 L 190.500 340.250 L 190.250 340.000 L 188.750 340.000 L 188.500 339.750 L 187.000 339.750 L 186.750 339.500 L 185.500 339.500 L 185.250 339.250 L 183.750 339.250 L 183.500 339.000 L 182.000 339.000 L 181.750 338.750 L 180.250 338.750 L 180.000 338.500 L 178.500 338.500 L 178.250 338.250 L 177.000 338.250 L 176.750 338.000 L 175.250 338.000 L 175.000 337.750 L 173.500 337.750 L 173.250 337.500 L 161.250 337.500 L 161.000 337.750 L 161.000 338.000 L 160.750 338.250 L 160.750 338.500 L 160.500 338.750 L 160.500 339.000 L 160.250 339.250 L 160.250 339.500 L 159.750 340.000 L 159.750 340.250 L 159.500 340.500 L 159.500 340.750 L 159.000 341.250 L 159.000 341.500 L 158.500 342.000 L 158.500 342.250 L 157.750 343.000 L 157.750 343.250 L 156.750 344.250 L 156.750 344.500 L 156.000 345.250 L 156.000 335.250 L 155.750 335.000 L 154.250 335.000 L 154.000 334.750 L 152.500 334.750 L 152.250 334.500 L 150.500 334.500 L 150.250 334.250 L 148.750 334.250 L 148.500 334.000 L 147.000 334.000 L 146.750 333.750 L 145.250 333.750 L 145.000 333.500 L 143.250 333.500 L 143.000 333.250 L 141.500 333.250 L 141.250 333.000 L 139.750 333.000 L 139.500 332.750 L 138.000 332.750 L 137.750 332.500 L 136.250 332.500 L 136.000 332.250 L 134.250 332.250 L 134.000 332.000 L 132.500 332.000 L 132.250 331.750 L 130.750 331.750 L 130.500 331.500 L 129.000 331.500 L 128.750 331.250 L 127.250 331.250 L 127.000 331.000 L 125.250 331.000 L 125.000 330.750 L 123.500 330.750 L 123.250 330.500 L 121.750 330.500 L 121.500 330.250 L 120.000 330.250 L 119.750 330.000 L 118.000 330.000 L 117.750 329.750 L 116.250 329.750 L 116.000 329.500 L 114.500 329.500 L 114.250 329.250 L 113.250 329.250 L 113.000 329.000 L 112.250 329.000 L 112.000 328.750 L 111.250 328.750 L 111.000 328.500 L 110.250 328.500 L 110.000 328.250 L 109.750 328.250 L 109.500 328.000 L 109.000 328.000 L 108.750 327.750 L 108.500 327.750 L 108.250 327.500 L 108.000 327.500 L 107.750 327.250 L 107.500 327.250 L 107.250 327.000 L 107.000 327.000 L 106.750 326.750 L 106.500 326.750 L 106.250 326.500 L 106.000 326.500 L 105.500 326.000 L 105.250 326.000 L 105.000 325.750 L 106.000 325.750 L 106.250 326.000 L 119.500 326.000 L 119.750 325.750 L 120.250 325.750 L 120.500 325.500 L 121.000 325.500 L 121.250 325.250 L 121.500 325.250 L 121.750 325.000 L 122.000 325.000 L 122.250 324.750 L 122.500 324.750 L 123.250 324.000 L 123.500 324.000 L 123.750 323.750 L 123.750 323.500 L 124.750 322.500 L 124.750 322.250 L 125.000 322.000 L 125.000 321.750 L 125.250 321.500 L 125.250 321.250 L 125.500 321.000 L 125.500 320.500 L 125.750 320.250 L 125.750 319.750 L 126.000 319.500 L 126.000 318.250 L 126.250 318.000 L 126.250 306.000 L 126.000 305.750 L 126.000 304.250 L 125.750 304.000 L 125.750 303.500 L 125.500 303.250 L 125.500 302.750 L 125.250 302.500 L 125.250 302.250 L 125.000 302.000 L 125.000 301.750 L 124.750 301.500 L 124.750 301.250 L 123.750 300.250 L 123.750 300.000 L 123.500 299.750 L 123.250 299.750 L 122.500 299.000 L 122.250 299.000 L 122.000 298.750 L 121.750 298.750 L 121.500 298.500 L 121.250 298.500 L 121.000 298.250 L 120.500 298.250 L 120.250 298.000 L 119.750 298.000 L 119.500 297.750 L 106.250 297.750 L 106.000 298.000 L 105.000 298.000 L 105.250 297.750 L 105.500 297.750 L 106.000 297.250 L 106.250 297.250 L 106.500 297.000 L 106.750 297.000 L 107.000 296.750 L 107.250 296.750 L 107.500 296.500 L 107.750 296.500 L 108.000 296.250 L 108.250 296.250 L 108.500 296.000 L 108.750 296.000 L 109.000 295.750 L 109.500 295.750 L 109.750 295.500 L 110.000 295.500 L 110.250 295.250 L 111.000 295.250 L 111.250 295.000 L 112.000 295.000 L 112.250 294.750 L 113.000 294.750 L 113.250 294.500 L 114.250 294.500 L 114.500 294.250 L 116.000 294.250 L 116.250 294.000 L 117.750 294.000 L 118.000 293.750 L 119.500 293.750 L 119.750 293.500 L 121.250 293.500 L 121.500 293.250 L 123.000 293.250 L 123.250 293.000 L 124.750 293.000 L 125.000 292.750 L 126.500 292.750 L 127.000 292.250 L 127.000 292.000 L 127.750 291.250 L 127.750 291.000 L 128.500 290.250 L 128.500 290.000 L 129.250 289.250 L 129.250 289.000 L 130.000 288.250 L 130.000 288.000 L 130.750 287.250 L 130.750 287.000 L 131.500 286.250 L 131.500 286.000 L 132.250 285.250 L 132.250 285.000 L 133.000 284.250 L 133.000 284.000 L 133.500 283.500 L 133.500 283.250 L 134.250 282.500 L 134.250 282.250 L 135.000 281.500 L 135.000 281.250 L 135.750 280.500 L 135.750 280.250 L 136.500 279.500 L 136.500 279.250 L 136.500 289.500 L 136.750 289.750 L 148.750 289.750 L 149.000 289.500 L 150.500 289.500 L 150.750 289.250 L 152.250 289.250 L 152.500 289.000 L 154.000 289.000 L 154.250 288.750 L 155.750 288.750 L 156.000 288.500 L 157.500 288.500 L 157.750 288.250 L 159.000 288.250 L 159.250 288.000 L 160.750 288.000 L 161.000 287.750 L 162.500 287.750 L 162.750 287.500 L 164.250 287.500 L 164.500 287.250 L 166.000 287.250 L 166.250 287.000 L 167.750 287.000 L 168.000 286.750 L 169.500 286.750 L 169.750 286.500 L 171.250 286.500 L 171.500 286.250 L 173.000 286.250 L 173.250 286.000 L 174.750 286.000 L 175.000 285.750 L 176.500 285.750 L 176.750 285.500 L 178.250 285.500 L 178.500 285.250 L 179.750 285.250 L 180.000 285.000 L 181.500 285.000 L 181.750 284.750 L 183.250 284.750 L 183.500 284.500 L 185.000 284.500 L 185.250 284.250 L 186.750 284.250 L 187.000 284.000 L 188.500 284.000 L 188.750 283.750 L 190.250 283.750 L 190.500 283.500 L 190.500 273.000 L 190.750 273.250 L 190.750 273.500 L 191.000 273.750 L 191.000 274.000 L 191.250 274.250 L 191.250 274.500 L 191.500 274.750 L 191.500 275.000 L 191.750 275.250 L 191.750 275.500 L 192.000 275.750 L 192.000 276.000 L 192.250 276.250 L 192.250 276.500 L 192.500 276.750 L 192.500 277.000 L 192.750 277.250 L 192.750 277.500 L 193.000 277.750 L 193.000 278.000 L 193.250 278.250 L 193.250 278.750 L 193.500 279.000 L 193.500 279.250 L 193.750 279.500 L 193.750 280.000 L 194.000 280.250 L 194.000 280.500 L 194.250 280.750 L 194.250 281.000 L 194.500 281.250 L 206.500 281.250 L 206.750 281.000 L 208.500 281.000 L 208.750 280.750 L 210.250 280.750 L 210.500 280.500 L 212.250 280.500 L 212.500 280.250 L 214.250 280.250 L 214.500 280.000 L 214.500 267.500 L 214.250 267.250 L 214.250 266.250 L 214.000 266.000 L 214.000 265.000 L 213.750 264.750 L 213.750 263.750 L 213.500 263.500 L 213.500 262.500 L 213.250 262.250 L 213.250 261.250 L 213.000 261.000 L 213.000 260.250 L 212.750 260.000 L 212.750 259.000 L 212.500 258.750 L 212.500 257.750 L 212.250 257.500 L 212.250 256.500 L 212.000 256.250 L 212.000 255.250 L 211.750 255.000 L 211.750 254.000 L 211.500 253.750 L 211.500 252.750 L 211.250 252.500 L 211.250 251.500 L 211.000 251.250 L 211.000 250.250 L 210.750 250.000 L 210.750 249.000 L 210.500 248.750 L 210.500 247.750 L 210.250 247.500 L 210.250 246.500 L 210.000 246.250 L 210.000 245.250 L 209.750 245.000 L 209.750 244.250 L 209.500 244.000 L 209.500 243.000 L 209.250 242.750 L 209.250 241.750 L 209.000 241.500 L 209.000 240.500 L 208.750 240.250 L 208.750 239.250 L 208.500 239.000 L 208.500 238.000 L 208.250 237.750 L 208.250 236.750 L 208.000 236.500 L 208.000 235.500 L 207.750 235.250 L 207.750 234.250 L 207.500 234.000 L 207.500 233.000 L 207.250 232.750 L 207.250 231.750 L 207.000 231.500 L 207.000 230.500 L 206.750 230.250 L 206.750 229.250 L 206.500 229.000 L 206.500 228.250 L 206.250 228.000 L 206.250 227.000 L 206.000 226.750 L 206.000 225.750 L 205.750 225.500 L 205.750 224.500 L 205.500 224.250 L 205.500 223.250 L 205.250 223.000 L 205.250 222.000 L 205.000 221.750 L 205.000 220.750 L 204.750 220.500 L 204.750 219.500 L 204.500 219.250 L 204.500 218.250 L 204.250 218.000 L 204.250 217.000 L 204.000 216.750 L 204.000 215.750 L 203.750 215.500 L 203.750 214.500 L 203.500 214.250 L 203.500 213.250 L 203.250 213.000 L 203.250 212.250 L 203.000 212.000 L 203.000 211.000 L 202.750 210.750 L 202.750 209.750 L 202.500 209.500 L 202.500 208.500 L 202.250 208.250 L 202.250 207.250 L 202.000 207.000 L 202.000 206.000 L 201.750 205.750 L 201.750 205.250 L 201.500 205.000 L 190.750 205.000 L 190.750 204.750 L 191.500 204.000 L 191.500 203.750 L 192.250 203.000 L 192.250 202.750 L 192.750 202.250 L 192.750 202.000 L 193.500 201.250 L 193.500 201.000 L 194.250 200.250 L 194.250 200.000 L 194.750 199.500 L 194.750 199.250 L 195.500 198.500 L 195.500 198.250 L 196.250 197.500 L 196.250 197.250 L 197.000 196.500 L 197.000 196.250 L 197.250 196.000 L 197.250 183.500 L 197.000 183.250 L 197.000 182.250 L 196.750 182.000 L 196.750 181.000 L 196.500 180.750 L 196.500 179.750 L 196.250 179.500 L 196.250 178.500 L 196.000 178.250 L 196.000 177.250 L 195.750 177.000 L 195.750 176.000 L 195.500 175.750 L 195.500 174.500 L 195.250 174.250 L 195.250 173.250 L 195.000 173.000 L 195.000 172.000 L 194.750 171.750 L 194.750 170.750 L 194.500 170.500 L 194.500 169.500 L 194.250 169.250 L 194.250 168.250 L 194.000 168.000 L 194.000 167.000 L 193.750 166.750 L 193.750 165.750 L 193.500 165.500 L 193.500 164.500 L 193.250 164.250 L 193.250 163.250 L 193.000 163.000 L 193.000 162.000 L 192.750 161.750 L 192.750 160.750 L 192.500 160.500 L 192.500 159.500 L 192.250 159.250 L 192.250 158.250 L 192.000 158.000 L 192.000 157.000 L 191.750 156.750 L 191.750 155.500 L 191.500 155.250 L 191.500 154.250 L 191.250 154.000 L 191.250 153.000 L 191.000 152.750 L 191.000 151.750 L 190.750 151.500 L 190.750 150.500 L 190.500 150.250 L 190.500 149.250 L 190.250 149.000 L 190.250 148.000 L 190.000 147.750 L 190.000 146.750 L 189.750 146.500 L 189.750 146.250 L 189.500 146.000 L 182.000 146.000 L 181.750 145.750 L 179.250 145.750 L 179.000 145.500 L 178.250 145.500 L 178.000 145.250 L 177.000 145.250 L 176.750 145.000 L 175.750 145.000 L 175.500 144.750 L 174.500 144.750 L 174.250 144.500 L 174.000 144.500 L 173.750 144.250 L 173.250 144.250 L 173.000 144.000 L 172.750 144.000 L 172.500 143.750 L 172.000 143.750 L 171.750 143.500 L 171.500 143.500 L 171.250 143.250 L 171.000 143.250 L 170.750 143.000 L 170.500 143.000 L 170.250 142.750 L 170.000 142.750 L 169.500 142.250 L 169.250 142.250 Z M 442.500 160.500 L 442.750 160.750 L 442.750 161.000 L 443.250 161.500 L 443.250 161.750 L 443.500 162.000 L 443.500 162.250 L 443.750 162.500 L 443.750 162.750 L 444.000 163.000 L 444.000 163.250 L 444.250 163.500 L 444.250 163.750 L 444.500 164.000 L 444.500 164.250 L 444.750 164.500 L 444.750 164.750 L 445.000 165.000 L 445.000 165.500 L 445.250 165.750 L 445.250 166.000 L 445.500 166.250 L 445.500 166.750 L 445.750 167.000 L 445.750 168.750 L 445.500 169.000 L 445.500 169.500 L 445.250 169.750 L 445.250 170.000 L 445.000 170.250 L 445.000 170.750 L 444.750 171.000 L 444.750 171.250 L 444.500 171.500 L 444.500 172.000 L 444.250 172.250 L 444.250 172.500 L 444.000 172.750 L 444.000 173.000 L 443.750 173.250 L 443.750 173.500 L 443.500 173.750 L 443.500 174.000 L 443.000 174.500 L 443.000 174.750 L 442.500 175.250 L 442.750 175.000 L 442.750 160.750 Z M 435.500 181.750 L 436.000 181.750 L 435.500 182.250 L 435.250 182.250 L 434.750 182.750 L 434.500 182.750 L 434.250 183.000 L 433.750 183.000 L 433.500 183.250 L 433.250 183.250 L 433.000 183.500 L 432.750 183.500 L 432.500 183.750 L 432.000 183.750 L 431.750 184.000 L 431.500 184.000 L 431.250 184.250 L 430.750 184.250 L 430.500 184.500 L 430.250 184.500 L 430.000 184.750 L 429.000 184.750 L 428.750 185.000 L 428.000 185.000 L 427.750 185.250 L 426.750 185.250 L 426.500 185.500 L 425.500 185.500 L 425.250 185.750 L 423.000 185.750 L 422.750 186.000 L 418.750 186.000 L 418.750 182.000 L 435.250 182.000 Z M 108.250 222.250 L 113.750 222.250 L 114.000 222.500 L 115.500 222.500 L 115.750 222.750 L 117.000 222.750 L 117.250 223.000 L 118.750 223.000 L 119.000 223.250 L 120.500 223.250 L 120.750 223.500 L 122.250 223.500 L 122.500 223.750 L 123.750 223.750 L 124.000 224.000 L 125.500 224.000 L 125.750 224.250 L 127.250 224.250 L 127.500 224.500 L 128.000 224.500 L 128.250 224.750 L 128.750 224.750 L 129.000 225.000 L 129.500 225.000 L 129.750 225.250 L 130.500 225.250 L 130.750 225.500 L 131.250 225.500 L 131.500 225.750 L 132.000 225.750 L 132.250 226.000 L 132.750 226.000 L 133.000 226.250 L 133.500 226.250 L 133.750 226.500 L 134.250 226.500 L 134.500 226.750 L 135.250 226.750 L 135.500 227.000 L 136.000 227.000 L 136.250 227.250 L 136.750 227.250 L 137.000 227.500 L 137.500 227.500 L 137.750 227.750 L 138.250 227.750 L 138.500 228.000 L 139.000 228.000 L 139.250 228.250 L 140.000 228.250 L 140.250 228.500 L 140.750 228.500 L 141.000 228.750 L 141.500 228.750 L 141.750 229.000 L 142.250 229.000 L 142.500 229.250 L 142.750 229.250 L 143.000 229.500 L 143.250 229.500 L 143.500 229.750 L 143.750 229.750 L 144.000 230.000 L 144.250 230.000 L 144.500 230.250 L 144.750 230.250 L 145.000 230.500 L 145.250 230.500 L 145.500 230.750 L 145.750 230.750 L 146.000 231.000 L 146.250 231.000 L 146.500 231.250 L 146.750 231.250 L 146.500 231.250 L 146.250 231.000 L 145.750 231.000 L 145.500 230.750 L 145.000 230.750 L 144.750 230.500 L 144.250 230.500 L 144.000 230.250 L 143.500 230.250 L 143.250 230.000 L 143.000 230.000 L 142.750 229.750 L 142.250 229.750 L 142.000 229.500 L 141.500 229.500 L 141.250 229.250 L 140.750 229.250 L 140.500 229.000 L 139.750 229.000 L 139.500 228.750 L 138.750 228.750 L 138.500 228.500 L 137.500 228.500 L 137.250 228.250 L 136.500 228.250 L 136.250 228.000 L 135.500 228.000 L 135.250 227.750 L 134.500 227.750 L 134.250 227.500 L 133.250 227.500 L 133.000 227.250 L 132.250 227.250 L 132.000 227.000 L 131.250 227.000 L 131.000 226.750 L 128.750 226.750 L 128.500 226.500 L 126.250 226.500 L 126.000 226.250 L 124.000 226.250 L 123.750 226.000 L 121.500 226.000 L 121.250 225.750 L 109.250 225.750 L 109.000 226.000 L 99.500 226.000 L 99.250 226.250 L 97.500 226.250 L 97.250 226.500 L 95.500 226.500 L 95.250 226.750 L 93.750 226.750 L 93.500 227.000 L 91.750 227.000 L 91.500 227.250 L 89.750 227.250 L 89.500 227.500 L 88.750 227.500 L 88.500 227.750 L 87.750 227.750 L 87.500 228.000 L 87.000 228.000 L 86.750 228.250 L 86.000 228.250 L 85.750 228.500 L 85.000 228.500 L 84.750 228.750 L 84.000 228.750 L 83.750 229.000 L 83.000 229.000 L 82.750 229.250 L 82.250 229.250 L 82.000 229.500 L 81.250 229.500 L 81.000 229.750 L 80.250 229.750 L 80.000 230.000 L 79.750 230.000 L 79.500 230.250 L 79.000 230.250 L 78.750 230.500 L 78.500 230.500 L 78.250 230.750 L 77.750 230.750 L 77.500 231.000 L 77.250 231.000 L 77.000 231.250 L 76.750 231.250 L 76.500 231.500 L 76.000 231.500 L 75.750 231.750 L 76.000 231.500 L 76.250 231.500 L 76.500 231.250 L 76.750 231.250 L 77.000 231.000 L 77.250 231.000 L 77.750 230.500 L 78.000 230.500 L 78.250 230.250 L 78.750 230.250 L 79.000 230.000 L 79.500 230.000 L 79.750 229.750 L 80.000 229.750 L 80.250 229.500 L 80.750 229.500 L 81.000 229.250 L 81.500 229.250 L 81.750 229.000 L 82.250 229.000 L 82.500 228.750 L 83.000 228.750 L 83.250 228.500 L 83.500 228.500 L 83.750 228.250 L 84.250 228.250 L 84.500 228.000 L 85.000 228.000 L 85.250 227.750 L 85.750 227.750 L 86.000 227.500 L 86.500 227.500 L 86.750 227.250 L 87.250 227.250 L 87.500 227.000 L 87.750 227.000 L 88.000 226.750 L 88.500 226.750 L 88.750 226.500 L 89.250 226.500 L 89.500 226.250 L 90.000 226.250 L 90.250 226.000 L 90.750 226.000 L 91.000 225.750 L 91.250 225.750 L 91.500 225.500 L 92.000 225.500 L 92.250 225.250 L 92.750 225.250 L 93.000 225.000 L 94.250 225.000 L 94.500 224.750 L 95.500 224.750 L 95.750 224.500 L 97.000 224.500 L 97.250 224.250 L 98.250 224.250 L 98.500 224.000 L 99.750 224.000 L 100.000 223.750 L 101.000 223.750 L 101.250 223.500 L 102.500 223.500 L 102.750 223.250 L 103.750 223.250 L 104.000 223.000 L 105.250 223.000 L 105.500 222.750 L 106.500 222.750 L 106.750 222.500 L 108.000 222.500 Z M 168.750 235.000 L 168.750 245.500 L 169.500 246.250 L 159.500 246.250 L 159.000 246.750 L 159.000 247.000 L 158.750 247.250 L 158.750 237.000 L 158.500 236.750 L 158.250 236.750 L 158.000 236.500 L 157.750 236.500 L 157.500 236.250 L 157.250 236.250 L 157.000 236.000 L 156.750 236.000 L 168.000 236.000 L 168.250 235.750 L 168.250 235.500 L 168.500 235.250 Z M 110.250 254.500 L 114.750 254.500 L 115.000 254.750 L 116.000 254.750 L 116.250 255.000 L 117.250 255.000 L 117.500 255.250 L 118.500 255.250 L 118.750 255.500 L 119.750 255.500 L 120.000 255.750 L 121.000 255.750 L 121.250 256.000 L 122.250 256.000 L 122.500 256.250 L 123.000 256.250 L 123.250 256.500 L 123.750 256.500 L 124.000 256.750 L 124.500 256.750 L 124.750 257.000 L 125.250 257.000 L 125.500 257.250 L 126.000 257.250 L 126.250 257.500 L 126.750 257.500 L 127.000 257.750 L 127.500 257.750 L 127.750 258.000 L 128.250 258.000 L 128.500 258.250 L 129.000 258.250 L 129.250 258.500 L 129.750 258.500 L 130.000 258.750 L 130.250 258.750 L 130.500 259.000 L 130.750 259.000 L 131.000 259.250 L 131.250 259.250 L 131.500 259.500 L 131.750 259.500 L 132.000 259.750 L 132.250 259.750 L 132.500 260.000 L 132.750 260.000 L 133.000 260.250 L 133.250 260.250 L 133.500 260.500 L 133.750 260.500 L 133.500 260.500 L 133.250 260.250 L 132.750 260.250 L 132.500 260.000 L 132.000 260.000 L 131.750 259.750 L 131.250 259.750 L 131.000 259.500 L 130.750 259.500 L 130.500 259.250 L 130.000 259.250 L 129.750 259.000 L 128.500 259.000 L 128.250 258.750 L 127.750 258.750 L 127.500 258.500 L 126.250 258.500 L 126.000 258.250 L 124.750 258.250 L 124.500 258.000 L 122.500 258.000 L 122.250 257.750 L 106.000 257.750 L 105.750 258.000 L 99.500 258.000 L 99.250 258.250 L 98.250 258.250 L 98.000 258.500 L 97.000 258.500 L 96.750 258.750 L 95.500 258.750 L 95.250 259.000 L 94.250 259.000 L 94.000 259.250 L 93.000 259.250 L 92.750 259.500 L 92.250 259.500 L 92.000 259.750 L 91.750 259.750 L 91.500 260.000 L 91.000 260.000 L 90.750 260.250 L 90.500 260.250 L 90.750 260.250 L 91.000 260.000 L 91.500 260.000 L 91.750 259.750 L 92.000 259.750 L 92.250 259.500 L 92.500 259.500 L 92.750 259.250 L 93.000 259.250 L 93.250 259.000 L 93.500 259.000 L 93.750 258.750 L 94.000 258.750 L 94.250 258.500 L 94.750 258.500 L 95.000 258.250 L 95.250 258.250 L 95.500 258.000 L 95.750 258.000 L 96.000 257.750 L 96.250 257.750 L 96.500 257.500 L 97.250 257.500 L 97.500 257.250 L 98.000 257.250 L 98.250 257.000 L 99.000 257.000 L 99.250 256.750 L 100.000 256.750 L 100.250 256.500 L 101.000 256.500 L 101.250 256.250 L 101.750 256.250 L 102.000 256.000 L 102.750 256.000 L 103.000 255.750 L 103.750 255.750 L 104.000 255.500 L 105.250 255.500 L 105.500 255.250 L 106.750 255.250 L 107.000 255.000 L 108.500 255.000 L 108.750 254.750 L 110.000 254.750 Z M 138.250 262.250 L 147.750 262.250 L 147.250 262.750 L 147.250 263.000 L 146.500 263.750 L 146.500 264.000 L 145.750 264.750 L 145.750 265.000 L 145.000 265.750 L 145.000 266.000 L 144.500 266.500 L 144.500 266.750 L 143.750 267.500 L 143.750 267.750 L 143.000 268.500 L 143.000 268.750 L 142.250 269.500 L 142.250 269.750 L 141.750 270.250 L 141.750 270.500 L 141.000 271.250 L 141.000 271.500 L 140.250 272.250 L 140.250 272.500 L 139.750 273.000 L 139.750 263.000 L 139.500 262.750 L 139.000 262.750 L 138.750 262.500 L 138.500 262.500 Z M 31.250 277.000 L 31.250 277.250 L 31.000 277.500 L 31.000 277.750 L 30.750 278.000 L 30.750 278.500 L 30.500 278.750 L 30.500 279.250 L 30.250 279.500 L 30.250 280.000 L 30.000 280.250 L 30.000 280.750 L 29.750 281.000 L 29.750 281.500 L 29.500 281.750 L 29.500 282.250 L 29.250 282.500 L 29.250 282.750 L 29.000 283.000 L 29.000 283.500 L 28.750 283.750 L 28.750 284.250 L 28.500 284.500 L 28.500 285.250 L 28.250 285.500 L 28.250 286.500 L 28.000 286.750 L 28.000 287.750 L 27.750 288.000 L 27.750 289.000 L 27.500 289.250 L 27.500 290.000 L 27.250 290.250 L 27.250 291.250 L 27.000 291.500 L 27.000 292.500 L 26.750 292.750 L 26.750 293.750 L 26.500 294.000 L 26.500 296.000 L 26.250 296.250 L 26.250 299.250 L 26.000 299.500 L 26.000 302.500 L 25.750 302.750 L 25.750 321.000 L 26.000 321.250 L 26.000 326.500 L 26.250 326.750 L 26.250 328.000 L 26.500 328.250 L 26.500 329.250 L 26.750 329.500 L 26.750 330.500 L 27.000 330.750 L 27.000 332.000 L 27.250 332.250 L 27.250 333.250 L 27.500 333.500 L 27.500 334.750 L 27.750 335.000 L 27.750 335.750 L 28.000 336.000 L 28.000 336.750 L 28.250 337.000 L 28.250 337.500 L 28.500 337.750 L 28.500 338.500 L 28.750 338.750 L 28.750 339.250 L 29.000 339.500 L 29.000 340.000 L 29.250 340.250 L 29.250 341.000 L 29.500 341.250 L 29.500 341.750 L 29.750 342.000 L 29.750 342.750 L 30.000 343.000 L 30.000 343.500 L 30.250 343.750 L 30.250 344.500 L 30.500 344.750 L 30.500 345.250 L 30.750 345.500 L 30.750 345.750 L 31.000 346.000 L 31.000 346.250 L 31.250 346.500 L 31.250 347.000 L 31.500 347.250 L 31.500 347.500 L 31.750 347.750 L 31.750 348.250 L 32.000 348.500 L 32.000 348.750 L 32.250 349.000 L 32.250 349.250 L 32.500 349.500 L 32.500 350.000 L 32.750 350.250 L 32.750 350.500 L 33.000 350.750 L 32.750 350.500 L 32.750 350.250 L 32.500 350.000 L 32.500 349.750 L 32.250 349.500 L 32.250 349.250 L 32.000 349.000 L 32.000 348.500 L 31.750 348.250 L 31.750 348.000 L 31.500 347.750 L 31.500 347.500 L 31.250 347.250 L 31.250 346.750 L 31.000 346.500 L 31.000 346.250 L 30.750 346.000 L 30.750 345.500 L 30.500 345.250 L 30.500 345.000 L 30.250 344.750 L 30.250 344.500 L 30.000 344.250 L 30.000 343.750 L 29.750 343.500 L 29.750 343.250 L 29.500 343.000 L 29.500 342.500 L 29.250 342.250 L 29.250 342.000 L 29.000 341.750 L 29.000 341.250 L 28.750 341.000 L 28.750 340.750 L 28.500 340.500 L 28.500 340.250 L 28.250 340.000 L 28.250 339.500 L 28.000 339.250 L 28.000 339.000 L 27.750 338.750 L 27.750 338.250 L 27.500 338.000 L 27.500 337.750 L 27.250 337.500 L 27.250 337.250 L 27.000 337.000 L 27.000 336.500 L 26.750 336.250 L 26.750 336.000 L 26.500 335.750 L 26.500 335.000 L 26.250 334.750 L 26.250 334.000 L 26.000 333.750 L 26.000 333.000 L 25.750 332.750 L 25.750 331.750 L 25.500 331.500 L 25.500 330.750 L 25.250 330.500 L 25.250 329.750 L 25.000 329.500 L 25.000 328.750 L 24.750 328.500 L 24.750 327.500 L 24.500 327.250 L 24.500 326.500 L 24.250 326.250 L 24.250 325.500 L 24.000 325.250 L 24.000 324.250 L 23.750 324.000 L 23.750 323.250 L 23.500 323.000 L 23.500 322.250 L 23.250 322.000 L 23.250 321.250 L 23.000 321.000 L 23.000 319.000 L 22.750 318.750 L 22.750 316.000 L 22.500 315.750 L 22.500 312.750 L 22.250 312.500 L 22.250 310.500 L 22.500 310.250 L 22.500 307.750 L 22.750 307.500 L 22.750 305.250 L 23.000 305.000 L 23.000 302.750 L 23.250 302.500 L 23.250 301.000 L 23.500 300.750 L 23.500 300.000 L 23.750 299.750 L 23.750 299.000 L 24.000 298.750 L 24.000 298.000 L 24.250 297.750 L 24.250 297.250 L 24.500 297.000 L 24.500 296.250 L 24.750 296.000 L 24.750 295.250 L 25.000 295.000 L 25.000 294.250 L 25.250 294.000 L 25.250 293.500 L 25.500 293.250 L 25.500 292.500 L 25.750 292.250 L 25.750 291.500 L 26.000 291.250 L 26.000 290.500 L 26.250 290.250 L 26.250 289.750 L 26.500 289.500 L 26.500 288.750 L 26.750 288.500 L 26.750 287.750 L 27.000 287.500 L 27.000 286.750 L 27.250 286.500 L 27.250 286.000 L 27.500 285.750 L 27.500 285.500 L 27.750 285.250 L 27.750 285.000 L 28.000 284.750 L 28.000 284.500 L 28.250 284.250 L 28.250 283.750 L 28.500 283.500 L 28.500 283.250 L 28.750 283.000 L 28.750 282.750 L 29.000 282.500 L 29.000 282.000 L 29.250 281.750 L 29.250 281.500 L 29.500 281.250 L 29.500 281.000 L 29.750 280.750 L 29.750 280.500 L 30.000 280.250 L 30.000 279.750 L 30.250 279.500 L 30.250 279.250 L 30.500 279.000 L 30.500 278.750 L 30.750 278.500 L 30.750 278.000 L 31.000 277.750 L 31.000 277.500 L 31.250 277.250 Z M 481.000 278.000 L 481.000 278.250 L 481.250 278.500 L 481.250 278.750 L 481.500 279.000 L 481.500 279.250 L 481.750 279.500 L 481.750 279.750 L 482.000 280.000 L 482.000 280.250 L 482.250 280.500 L 482.250 280.750 L 482.500 281.000 L 482.500 281.250 L 482.750 281.500 L 482.750 281.750 L 483.000 282.000 L 483.000 282.500 L 483.250 282.750 L 483.250 283.250 L 483.500 283.500 L 483.500 284.000 L 483.750 284.250 L 483.750 285.000 L 484.000 285.250 L 484.000 285.750 L 484.250 286.000 L 484.250 286.500 L 484.500 286.750 L 484.500 287.250 L 484.750 287.500 L 484.750 288.000 L 485.000 288.250 L 485.000 289.000 L 485.250 289.250 L 485.250 289.750 L 485.500 290.000 L 485.500 290.500 L 485.750 290.750 L 485.750 291.250 L 486.000 291.500 L 486.000 292.000 L 486.250 292.250 L 486.250 292.750 L 486.500 293.000 L 486.500 293.750 L 486.750 294.000 L 486.750 294.500 L 487.000 294.750 L 487.000 295.250 L 487.250 295.500 L 487.250 296.500 L 487.500 296.750 L 487.500 298.000 L 487.750 298.250 L 487.750 299.500 L 488.000 299.750 L 488.000 301.000 L 488.250 301.250 L 488.250 302.750 L 488.500 303.000 L 488.500 304.250 L 488.750 304.500 L 488.750 305.750 L 489.000 306.000 L 489.000 307.250 L 489.250 307.500 L 489.250 308.750 L 489.500 309.000 L 489.500 314.500 L 489.250 314.750 L 489.250 316.250 L 489.000 316.500 L 489.000 318.000 L 488.750 318.250 L 488.750 320.000 L 488.500 320.250 L 488.500 321.750 L 488.250 322.000 L 488.250 323.500 L 488.000 323.750 L 488.000 325.250 L 487.750 325.500 L 487.750 326.500 L 487.500 326.750 L 487.500 327.500 L 487.250 327.750 L 487.250 328.250 L 487.000 328.500 L 487.000 329.000 L 486.750 329.250 L 486.750 330.000 L 486.500 330.250 L 486.500 330.750 L 486.250 331.000 L 486.250 331.500 L 486.000 331.750 L 486.000 332.500 L 485.750 332.750 L 485.750 333.250 L 485.500 333.500 L 485.500 334.250 L 485.250 334.500 L 485.250 335.000 L 485.000 335.250 L 485.000 335.750 L 484.750 336.000 L 484.750 336.750 L 484.500 337.000 L 484.500 337.500 L 484.250 337.750 L 484.250 338.250 L 484.000 338.500 L 484.000 339.250 L 483.750 339.500 L 483.750 340.000 L 483.500 340.250 L 483.500 340.500 L 483.250 340.750 L 483.250 341.000 L 483.000 341.250 L 483.000 341.500 L 482.750 341.750 L 482.750 342.000 L 482.500 342.250 L 482.500 342.500 L 482.250 342.750 L 482.250 343.250 L 482.000 343.500 L 482.000 343.750 L 481.750 344.000 L 481.750 344.250 L 481.500 344.500 L 481.500 344.750 L 481.250 345.000 L 481.250 345.250 L 481.000 345.500 L 481.000 345.750 L 481.000 345.500 L 481.250 345.250 L 481.250 345.000 L 481.500 344.750 L 481.500 344.250 L 481.750 344.000 L 481.750 343.500 L 482.000 343.250 L 482.000 343.000 L 482.250 342.750 L 482.250 342.250 L 482.500 342.000 L 482.500 341.250 L 482.750 341.000 L 482.750 340.500 L 483.000 340.250 L 483.000 339.500 L 483.250 339.250 L 483.250 338.500 L 483.500 338.250 L 483.500 337.750 L 483.750 337.500 L 483.750 336.750 L 484.000 336.500 L 484.000 336.000 L 484.250 335.750 L 484.250 335.000 L 484.500 334.750 L 484.500 333.750 L 484.750 333.500 L 484.750 332.250 L 485.000 332.000 L 485.000 330.500 L 485.250 330.250 L 485.250 328.750 L 485.500 328.500 L 485.500 327.250 L 485.750 327.000 L 485.750 324.250 L 486.000 324.000 L 486.000 320.250 L 486.250 320.000 L 486.250 304.000 L 486.000 303.750 L 486.000 299.750 L 485.750 299.500 L 485.750 296.750 L 485.500 296.500 L 485.500 295.250 L 485.250 295.000 L 485.250 293.500 L 485.000 293.250 L 485.000 291.750 L 484.750 291.500 L 484.750 290.250 L 484.500 290.000 L 484.500 289.000 L 484.250 288.750 L 484.250 288.000 L 484.000 287.750 L 484.000 287.250 L 483.750 287.000 L 483.750 286.250 L 483.500 286.000 L 483.500 285.500 L 483.250 285.250 L 483.250 284.500 L 483.000 284.250 L 483.000 283.500 L 482.750 283.250 L 482.750 282.750 L 482.500 282.500 L 482.500 281.750 L 482.250 281.500 L 482.250 281.000 L 482.000 280.750 L 482.000 280.500 L 481.750 280.250 L 481.750 279.750 L 481.500 279.500 L 481.500 279.000 L 481.250 278.750 L 481.250 278.500 L 481.000 278.250 Z M 317.500 281.000 L 317.500 281.500 L 317.250 281.750 L 317.250 282.250 L 317.000 282.500 L 317.000 294.750 L 317.250 295.000 L 317.500 295.000 L 317.750 295.250 L 318.000 295.250 L 318.500 295.750 L 318.750 295.750 L 320.500 297.500 L 320.500 297.750 L 320.750 298.000 L 320.750 298.500 L 321.000 298.750 L 321.000 299.000 L 321.250 299.250 L 321.250 299.750 L 321.500 300.000 L 321.500 301.500 L 321.750 301.750 L 321.750 322.000 L 321.500 322.250 L 321.500 323.750 L 321.250 324.000 L 321.250 324.500 L 321.000 324.750 L 321.000 325.000 L 320.750 325.250 L 320.750 325.750 L 320.500 326.000 L 320.500 326.250 L 318.750 328.000 L 318.500 328.000 L 318.000 328.500 L 317.750 328.500 L 317.500 328.750 L 317.250 328.750 L 317.000 329.000 L 317.000 341.250 L 317.250 341.500 L 317.250 342.000 L 317.500 342.250 L 317.500 343.000 L 317.750 343.250 L 317.750 343.750 L 318.000 344.000 L 318.000 344.500 L 318.250 344.750 L 318.250 345.000 L 318.500 345.250 L 318.500 345.500 L 318.500 345.250 L 318.250 345.000 L 318.250 344.750 L 318.000 344.500 L 318.000 344.250 L 317.750 344.000 L 317.750 343.750 L 317.500 343.500 L 317.500 343.250 L 317.250 343.000 L 317.250 342.500 L 317.000 342.250 L 317.000 341.750 L 316.750 341.500 L 316.750 341.000 L 316.500 340.750 L 316.500 340.250 L 316.250 340.000 L 316.250 339.500 L 316.000 339.250 L 316.000 338.750 L 315.750 338.500 L 315.750 338.000 L 315.500 337.750 L 315.500 337.250 L 315.250 337.000 L 315.250 336.500 L 315.000 336.250 L 315.000 335.750 L 314.750 335.500 L 314.750 335.000 L 314.500 334.750 L 314.500 334.250 L 314.250 334.000 L 314.250 333.500 L 314.000 333.250 L 314.000 332.750 L 313.750 332.500 L 313.750 332.000 L 313.500 331.750 L 313.500 331.250 L 313.250 331.000 L 313.250 330.500 L 312.750 330.000 L 286.000 330.000 L 285.750 329.750 L 284.250 329.750 L 284.000 329.500 L 283.500 329.500 L 283.250 329.250 L 282.500 329.250 L 282.000 328.750 L 281.750 328.750 L 281.000 328.000 L 280.750 328.000 L 279.750 327.000 L 279.750 326.750 L 279.000 326.000 L 279.000 325.750 L 278.500 325.250 L 278.500 324.500 L 278.250 324.250 L 278.250 323.750 L 278.000 323.500 L 278.000 314.250 L 277.750 314.000 L 257.250 314.000 L 257.000 314.250 L 257.000 314.750 L 256.750 315.000 L 256.750 316.000 L 256.500 316.250 L 256.500 317.000 L 256.250 317.250 L 256.250 317.750 L 256.000 318.000 L 256.000 318.500 L 255.750 318.750 L 255.750 319.250 L 255.500 319.500 L 255.500 319.750 L 255.250 320.000 L 255.250 320.250 L 255.000 320.500 L 255.000 321.000 L 254.750 321.250 L 254.750 321.500 L 254.500 321.750 L 254.500 322.000 L 254.250 322.250 L 254.250 322.500 L 254.000 322.750 L 254.000 323.000 L 253.750 323.250 L 253.750 323.500 L 253.500 323.750 L 253.500 324.250 L 253.250 324.500 L 253.250 324.750 L 253.000 325.000 L 253.000 325.250 L 252.750 325.500 L 252.750 325.750 L 252.750 314.000 L 252.500 313.750 L 222.250 313.750 L 222.250 310.250 L 252.500 310.250 L 252.750 310.000 L 252.750 297.500 L 252.500 297.250 L 252.500 296.750 L 252.250 296.500 L 252.250 296.250 L 252.000 296.000 L 252.000 295.750 L 251.750 295.500 L 251.750 295.250 L 251.250 294.750 L 251.250 294.500 L 251.000 294.250 L 251.000 294.000 L 250.750 293.750 L 250.750 293.500 L 250.500 293.250 L 250.500 293.000 L 249.500 292.000 L 249.500 291.750 L 249.250 291.500 L 249.250 291.250 L 248.000 290.000 L 248.000 289.750 L 246.000 287.750 L 245.750 287.750 L 245.500 287.500 L 245.250 287.500 L 253.500 287.500 L 253.250 287.750 L 253.250 299.750 L 253.500 300.000 L 253.500 300.250 L 253.750 300.500 L 253.750 300.750 L 254.000 301.000 L 254.000 301.250 L 254.250 301.500 L 254.250 301.750 L 254.500 302.000 L 254.500 302.500 L 254.750 302.750 L 254.750 303.000 L 255.000 303.250 L 255.000 303.750 L 255.250 304.000 L 255.250 304.500 L 255.500 304.750 L 255.500 305.000 L 255.750 305.250 L 255.750 305.750 L 256.000 306.000 L 256.000 306.750 L 256.250 307.000 L 256.250 307.500 L 256.500 307.750 L 256.500 308.500 L 256.750 308.750 L 256.750 310.000 L 257.000 310.250 L 278.000 310.250 L 278.250 310.000 L 278.250 300.000 L 278.500 299.750 L 278.500 299.250 L 278.750 299.000 L 278.750 298.500 L 279.000 298.250 L 279.000 298.000 L 279.750 297.250 L 279.750 297.000 L 281.000 295.750 L 281.250 295.750 L 282.000 295.000 L 282.250 295.000 L 282.500 294.750 L 283.000 294.750 L 283.250 294.500 L 283.750 294.500 L 284.000 294.250 L 313.000 294.250 L 313.250 294.000 L 313.250 293.500 L 313.500 293.250 L 313.500 292.500 L 313.750 292.250 L 313.750 291.500 L 314.000 291.250 L 314.000 290.500 L 314.250 290.250 L 314.250 289.750 L 314.500 289.500 L 314.500 288.750 L 314.750 288.500 L 314.750 288.000 L 315.000 287.750 L 315.000 287.250 L 315.250 287.000 L 315.250 286.750 L 315.500 286.500 L 315.500 286.000 L 315.750 285.750 L 315.750 285.500 L 316.000 285.250 L 316.000 285.000 L 316.250 284.750 L 316.250 284.250 L 316.500 284.000 L 316.500 283.750 L 316.750 283.500 L 316.750 283.000 L 317.000 282.750 L 317.000 282.250 L 317.250 282.000 L 317.250 281.750 L 317.500 281.500 L 317.500 281.250 Z M 60.500 290.000 L 60.500 290.250 L 60.250 290.500 L 60.250 291.000 L 60.000 291.250 L 60.000 291.750 L 59.750 292.000 L 59.750 292.500 L 59.500 292.750 L 59.500 293.250 L 59.250 293.500 L 59.250 294.000 L 59.000 294.250 L 59.000 294.750 L 58.750 295.000 L 58.750 296.000 L 58.500 296.250 L 58.500 297.500 L 58.250 297.750 L 58.250 299.250 L 58.000 299.500 L 58.000 300.750 L 57.750 301.000 L 57.750 321.250 L 58.000 321.500 L 58.000 323.250 L 58.250 323.500 L 58.250 325.500 L 58.500 325.750 L 58.500 327.250 L 58.750 327.500 L 58.750 328.250 L 59.000 328.500 L 59.000 329.250 L 59.250 329.500 L 59.250 330.250 L 59.500 330.500 L 59.500 331.250 L 59.750 331.500 L 59.750 332.000 L 59.750 331.750 L 59.500 331.500 L 59.500 331.250 L 59.250 331.000 L 59.250 330.750 L 59.000 330.500 L 59.000 330.000 L 58.750 329.750 L 58.750 329.500 L 58.500 329.250 L 58.500 329.000 L 58.250 328.750 L 58.250 328.500 L 58.000 328.250 L 58.000 327.750 L 57.750 327.500 L 57.750 327.000 L 57.500 326.750 L 57.500 326.000 L 57.250 325.750 L 57.250 325.250 L 57.000 325.000 L 57.000 324.500 L 56.750 324.250 L 56.750 323.750 L 56.500 323.500 L 56.500 323.000 L 56.250 322.750 L 56.250 322.000 L 56.000 321.750 L 56.000 321.250 L 55.750 321.000 L 55.750 320.000 L 55.500 319.750 L 55.500 318.500 L 55.250 318.250 L 55.250 317.000 L 55.000 316.750 L 55.000 315.500 L 54.750 315.250 L 54.750 314.000 L 54.500 313.750 L 54.500 311.500 L 54.750 311.250 L 54.750 309.000 L 55.000 308.750 L 55.000 307.750 L 55.250 307.500 L 55.250 306.500 L 55.500 306.250 L 55.500 305.000 L 55.750 304.750 L 55.750 303.750 L 56.000 303.500 L 56.000 302.500 L 56.250 302.250 L 56.250 301.500 L 56.500 301.250 L 56.500 300.750 L 56.750 300.500 L 56.750 299.750 L 57.000 299.500 L 57.000 299.000 L 57.250 298.750 L 57.250 298.250 L 57.500 298.000 L 57.500 297.500 L 57.750 297.250 L 57.750 296.750 L 58.000 296.500 L 58.000 295.750 L 58.250 295.500 L 58.250 295.000 L 58.500 294.750 L 58.500 294.250 L 58.750 294.000 L 58.750 293.750 L 59.000 293.500 L 59.000 293.250 L 59.250 293.000 L 59.250 292.750 L 59.500 292.500 L 59.500 292.000 L 59.750 291.750 L 59.750 291.500 L 60.000 291.250 L 60.000 291.000 L 60.250 290.750 L 60.250 290.500 L 60.500 290.250 Z M 348.500 290.250 L 348.500 290.500 L 348.250 290.750 L 348.250 291.250 L 348.000 291.500 L 348.000 292.000 L 347.750 292.250 L 347.750 292.750 L 347.500 293.000 L 347.500 293.500 L 347.250 293.750 L 347.250 294.250 L 347.000 294.500 L 347.000 295.000 L 346.750 295.250 L 346.750 296.500 L 346.500 296.750 L 346.500 298.750 L 346.250 299.000 L 346.250 301.250 L 346.000 301.500 L 346.000 303.500 L 345.750 303.750 L 345.750 319.000 L 346.000 319.250 L 346.000 323.750 L 346.250 324.000 L 346.250 326.500 L 346.500 326.750 L 346.500 327.500 L 346.750 327.750 L 346.750 328.250 L 347.000 328.500 L 347.000 329.000 L 347.250 329.250 L 347.250 330.000 L 347.500 330.250 L 347.500 330.750 L 347.750 331.000 L 347.750 331.250 L 347.750 331.000 L 347.500 330.750 L 347.500 330.500 L 347.250 330.250 L 347.250 329.750 L 347.000 329.500 L 347.000 329.250 L 346.750 329.000 L 346.750 328.750 L 346.500 328.500 L 346.500 328.250 L 346.250 328.000 L 346.250 327.750 L 346.000 327.500 L 346.000 327.000 L 345.750 326.750 L 345.750 326.000 L 345.500 325.750 L 345.500 325.000 L 345.250 324.750 L 345.250 324.000 L 345.000 323.750 L 345.000 323.250 L 344.750 323.000 L 344.750 322.250 L 344.500 322.000 L 344.500 321.250 L 344.250 321.000 L 344.250 320.250 L 344.000 320.000 L 344.000 319.250 L 343.750 319.000 L 343.750 318.500 L 343.500 318.250 L 343.500 317.500 L 343.250 317.250 L 343.250 316.500 L 343.000 316.250 L 343.000 315.500 L 342.750 315.250 L 342.750 310.500 L 343.000 310.250 L 343.000 309.000 L 343.250 308.750 L 343.250 307.250 L 343.500 307.000 L 343.500 305.750 L 343.750 305.500 L 343.750 304.250 L 344.000 304.000 L 344.000 302.750 L 344.250 302.500 L 344.250 301.500 L 344.500 301.250 L 344.500 300.750 L 344.750 300.500 L 344.750 300.250 L 345.000 300.000 L 345.000 299.500 L 345.250 299.250 L 345.250 298.750 L 345.500 298.500 L 345.500 298.250 L 345.750 298.000 L 345.750 297.500 L 346.000 297.250 L 346.000 296.750 L 346.250 296.500 L 346.250 296.250 L 346.500 296.000 L 346.500 295.500 L 346.750 295.250 L 346.750 294.750 L 347.000 294.500 L 347.000 294.250 L 347.250 294.000 L 347.250 293.500 L 347.500 293.250 L 347.500 292.750 L 347.750 292.500 L 347.750 292.250 L 348.000 292.000 L 348.000 291.500 L 348.250 291.250 L 348.250 290.750 L 348.500 290.500 Z M 452.000 292.250 L 452.000 292.500 L 452.250 292.750 L 452.250 293.000 L 452.500 293.250 L 452.500 293.500 L 452.750 293.750 L 452.750 294.000 L 453.000 294.250 L 453.000 294.500 L 453.250 294.750 L 453.250 295.500 L 453.500 295.750 L 453.500 296.250 L 453.750 296.500 L 453.750 297.000 L 454.000 297.250 L 454.000 298.000 L 454.250 298.250 L 454.250 298.750 L 454.500 299.000 L 454.500 299.750 L 454.750 300.000 L 454.750 300.500 L 455.000 300.750 L 455.000 301.500 L 455.250 301.750 L 455.250 302.250 L 455.500 302.500 L 455.500 303.000 L 455.750 303.250 L 455.750 304.000 L 456.000 304.250 L 456.000 304.750 L 456.250 305.000 L 456.250 305.750 L 456.500 306.000 L 456.500 307.750 L 456.750 308.000 L 456.750 311.000 L 457.000 311.250 L 457.000 313.250 L 456.750 313.500 L 456.750 315.750 L 456.500 316.000 L 456.500 318.250 L 456.250 318.500 L 456.250 319.750 L 456.000 320.000 L 456.000 320.500 L 455.750 320.750 L 455.750 321.250 L 455.500 321.500 L 455.500 322.000 L 455.250 322.250 L 455.250 322.750 L 455.000 323.000 L 455.000 323.500 L 454.750 323.750 L 454.750 324.250 L 454.500 324.500 L 454.500 325.000 L 454.250 325.250 L 454.250 326.000 L 454.000 326.250 L 454.000 326.750 L 453.750 327.000 L 453.750 327.500 L 453.500 327.750 L 453.500 328.250 L 453.250 328.500 L 453.250 329.000 L 453.000 329.250 L 453.000 329.750 L 452.750 330.000 L 452.750 330.500 L 452.500 330.750 L 452.500 331.250 L 452.250 331.500 L 452.250 331.750 L 452.000 332.000 L 452.000 332.250 L 451.750 332.500 L 451.750 332.750 L 451.750 332.250 L 452.000 332.000 L 452.000 331.500 L 452.250 331.250 L 452.250 330.750 L 452.500 330.500 L 452.500 330.000 L 452.750 329.750 L 452.750 329.000 L 453.000 328.750 L 453.000 328.250 L 453.250 328.000 L 453.250 326.750 L 453.500 326.500 L 453.500 324.250 L 453.750 324.000 L 453.750 322.000 L 454.000 321.750 L 454.000 319.500 L 454.250 319.250 L 454.250 305.250 L 454.000 305.000 L 454.000 302.750 L 453.750 302.500 L 453.750 300.500 L 453.500 300.250 L 453.500 298.000 L 453.250 297.750 L 453.250 296.500 L 453.000 296.250 L 453.000 295.500 L 452.750 295.250 L 452.750 294.750 L 452.500 294.500 L 452.500 293.750 L 452.250 293.500 L 452.250 292.750 L 452.000 292.500 Z M 97.750 305.250 L 97.750 305.500 L 97.500 305.750 L 97.500 318.000 L 97.750 318.250 L 97.750 318.500 L 97.750 318.250 L 97.250 317.750 L 97.250 317.500 L 97.000 317.250 L 97.000 317.000 L 96.500 316.500 L 96.500 316.250 L 96.250 316.000 L 96.250 315.750 L 96.000 315.500 L 96.000 315.250 L 95.750 315.000 L 95.750 314.500 L 95.500 314.250 L 95.500 313.750 L 95.250 313.500 L 95.250 313.000 L 95.000 312.750 L 95.000 312.250 L 94.750 312.000 L 94.750 311.750 L 95.000 311.500 L 95.000 311.000 L 95.250 310.750 L 95.250 310.250 L 95.500 310.000 L 95.500 309.500 L 95.750 309.250 L 95.750 308.750 L 96.000 308.500 L 96.000 308.250 L 96.250 308.000 L 96.250 307.750 L 96.500 307.500 L 96.500 307.250 L 97.000 306.750 L 97.000 306.500 L 97.250 306.250 L 97.250 306.000 L 97.750 305.500 Z M 89.250 363.000 L 89.500 363.000 L 89.750 363.250 L 90.000 363.250 L 89.750 363.250 L 89.500 363.000 Z M 378.250 363.250 L 378.500 363.250 L 378.750 363.500 L 379.500 363.500 L 379.750 363.750 L 380.250 363.750 L 380.500 364.000 L 381.000 364.000 L 381.250 364.250 L 381.750 364.250 L 382.000 364.500 L 382.750 364.500 L 383.000 364.750 L 383.500 364.750 L 383.750 365.000 L 385.500 365.000 L 385.750 365.250 L 387.250 365.250 L 387.500 365.500 L 389.250 365.500 L 389.500 365.750 L 391.000 365.750 L 391.250 366.000 L 393.000 366.000 L 393.250 366.250 L 405.250 366.250 L 405.500 366.000 L 408.500 366.000 L 408.750 365.750 L 411.500 365.750 L 411.750 365.500 L 414.750 365.500 L 415.000 365.250 L 415.500 365.250 L 415.750 365.000 L 416.500 365.000 L 416.750 364.750 L 417.250 364.750 L 417.500 364.500 L 418.000 364.500 L 418.250 364.250 L 418.750 364.250 L 419.000 364.000 L 419.750 364.000 L 420.000 363.750 L 420.250 363.750 L 420.000 363.750 L 419.750 364.000 L 419.500 364.000 L 419.250 364.250 L 419.000 364.250 L 418.750 364.500 L 418.500 364.500 L 418.250 364.750 L 418.000 364.750 L 417.750 365.000 L 417.500 365.000 L 417.250 365.250 L 417.000 365.250 L 416.750 365.500 L 416.500 365.500 L 416.250 365.750 L 415.500 365.750 L 415.250 366.000 L 414.500 366.000 L 414.250 366.250 L 413.750 366.250 L 413.500 366.500 L 412.750 366.500 L 412.500 366.750 L 411.750 366.750 L 411.500 367.000 L 410.750 367.000 L 410.500 367.250 L 410.000 367.250 L 409.750 367.500 L 409.000 367.500 L 408.750 367.750 L 408.000 367.750 L 407.750 368.000 L 407.000 368.000 L 406.750 368.250 L 406.250 368.250 L 406.000 368.500 L 405.250 368.500 L 405.000 368.750 L 404.250 368.750 L 404.000 369.000 L 398.500 369.000 L 398.250 368.750 L 396.500 368.750 L 396.250 368.500 L 394.750 368.500 L 394.500 368.250 L 393.000 368.250 L 392.750 368.000 L 391.250 368.000 L 391.000 367.750 L 390.500 367.750 L 390.250 367.500 L 389.750 367.500 L 389.500 367.250 L 389.250 367.250 L 389.000 367.000 L 388.500 367.000 L 388.250 366.750 L 387.750 366.750 L 387.500 366.500 L 387.000 366.500 L 386.750 366.250 L 386.250 366.250 L 386.000 366.000 L 385.500 366.000 L 385.250 365.750 L 385.000 365.750 L 384.750 365.500 L 384.250 365.500 L 384.000 365.250 L 383.500 365.250 L 383.250 365.000 L 382.750 365.000 L 382.500 364.750 L 382.000 364.750 L 381.750 364.500 L 381.250 364.500 L 381.000 364.250 L 380.750 364.250 L 380.500 364.000 L 380.000 364.000 L 379.750 363.750 L 379.250 363.750 L 379.000 363.500 L 378.750 363.500 L 378.500 363.250 Z M 90.500 363.500 L 90.750 363.500 L 91.000 363.750 L 91.250 363.750 L 91.500 364.000 L 92.250 364.000 L 92.500 364.250 L 93.250 364.250 L 93.500 364.500 L 94.500 364.500 L 94.750 364.750 L 95.500 364.750 L 95.750 365.000 L 96.500 365.000 L 96.750 365.250 L 97.500 365.250 L 97.750 365.500 L 100.750 365.500 L 101.000 365.750 L 104.000 365.750 L 104.250 366.000 L 122.500 366.000 L 122.750 365.750 L 123.750 365.750 L 124.000 365.500 L 125.000 365.500 L 125.250 365.250 L 126.500 365.250 L 126.750 365.000 L 127.750 365.000 L 128.000 364.750 L 129.000 364.750 L 129.250 364.500 L 130.000 364.500 L 130.250 364.250 L 130.750 364.250 L 131.000 364.000 L 131.750 364.000 L 132.000 363.750 L 132.500 363.750 L 132.750 363.500 L 133.250 363.500 L 133.000 363.500 L 132.750 363.750 L 132.500 363.750 L 132.250 364.000 L 132.000 364.000 L 131.750 364.250 L 131.500 364.250 L 131.250 364.500 L 131.000 364.500 L 130.750 364.750 L 130.250 364.750 L 130.000 365.000 L 129.750 365.000 L 129.500 365.250 L 129.000 365.250 L 128.750 365.500 L 128.500 365.500 L 128.250 365.750 L 127.750 365.750 L 127.500 366.000 L 127.000 366.000 L 126.750 366.250 L 126.500 366.250 L 126.250 366.500 L 125.750 366.500 L 125.500 366.750 L 124.750 366.750 L 124.500 367.000 L 123.500 367.000 L 123.250 367.250 L 122.750 367.250 L 122.500 367.500 L 122.000 367.500 L 121.750 367.750 L 121.250 367.750 L 121.000 368.000 L 120.250 368.000 L 120.000 368.250 L 119.250 368.250 L 119.000 368.500 L 118.250 368.500 L 118.000 368.750 L 117.000 368.750 L 116.750 369.000 L 114.750 369.000 L 114.500 369.250 L 112.500 369.250 L 112.250 369.500 L 110.250 369.500 L 110.000 369.250 L 109.000 369.250 L 108.750 369.000 L 107.750 369.000 L 107.500 368.750 L 106.500 368.750 L 106.250 368.500 L 105.250 368.500 L 105.000 368.250 L 104.000 368.250 L 103.750 368.000 L 102.750 368.000 L 102.500 367.750 L 102.000 367.750 L 101.750 367.500 L 101.000 367.500 L 100.750 367.250 L 100.250 367.250 L 100.000 367.000 L 99.500 367.000 L 99.250 366.750 L 98.500 366.750 L 98.250 366.500 L 97.750 366.500 L 97.500 366.250 L 97.000 366.250 L 96.750 366.000 L 96.000 366.000 L 95.750 365.750 L 95.250 365.750 L 95.000 365.500 L 94.750 365.500 L 94.500 365.250 L 94.250 365.250 L 94.000 365.000 L 93.750 365.000 L 93.500 364.750 L 93.000 364.750 L 92.750 364.500 L 92.500 364.500 L 92.250 364.250 L 92.000 364.250 L 91.750 364.000 L 91.500 364.000 L 91.250 363.750 L 91.000 363.750 L 90.750 363.500 Z M 75.750 392.000 L 76.000 392.000 L 76.250 392.250 L 76.500 392.250 L 76.750 392.500 L 77.000 392.500 L 77.250 392.750 L 77.750 392.750 L 78.000 393.000 L 78.500 393.000 L 78.750 393.250 L 79.250 393.250 L 79.500 393.500 L 80.000 393.500 L 80.250 393.750 L 80.750 393.750 L 81.000 394.000 L 81.750 394.000 L 82.000 394.250 L 82.500 394.250 L 82.750 394.500 L 83.250 394.500 L 83.500 394.750 L 84.000 394.750 L 84.250 395.000 L 84.750 395.000 L 85.000 395.250 L 85.500 395.250 L 85.750 395.500 L 86.250 395.500 L 86.500 395.750 L 87.500 395.750 L 87.750 396.000 L 89.000 396.000 L 89.250 396.250 L 90.250 396.250 L 90.500 396.500 L 91.750 396.500 L 92.000 396.750 L 93.000 396.750 L 93.250 397.000 L 94.500 397.000 L 94.750 397.250 L 95.750 397.250 L 96.000 397.500 L 99.000 397.500 L 99.250 397.750 L 102.500 397.750 L 102.750 398.000 L 105.500 398.000 L 105.750 398.250 L 118.000 398.250 L 118.250 398.000 L 124.000 398.000 L 124.250 397.750 L 126.750 397.750 L 127.000 397.500 L 128.250 397.500 L 128.500 397.250 L 129.750 397.250 L 130.000 397.000 L 131.250 397.000 L 131.500 396.750 L 132.750 396.750 L 133.000 396.500 L 133.750 396.500 L 134.000 396.250 L 134.750 396.250 L 135.000 396.000 L 135.750 396.000 L 136.000 395.750 L 137.250 395.750 L 137.500 395.500 L 138.750 395.500 L 139.000 395.250 L 139.500 395.250 L 139.750 395.000 L 140.000 395.000 L 140.250 394.750 L 140.750 394.750 L 141.000 394.500 L 141.500 394.500 L 141.750 394.250 L 142.250 394.250 L 142.500 394.000 L 143.000 394.000 L 143.250 393.750 L 143.750 393.750 L 144.000 393.500 L 144.500 393.500 L 144.750 393.250 L 145.000 393.250 L 144.750 393.250 L 144.500 393.500 L 144.250 393.500 L 144.000 393.750 L 143.500 393.750 L 143.250 394.000 L 143.000 394.000 L 142.750 394.250 L 142.500 394.250 L 142.250 394.500 L 142.000 394.500 L 141.750 394.750 L 141.500 394.750 L 141.250 395.000 L 141.000 395.000 L 140.750 395.250 L 140.500 395.250 L 140.250 395.500 L 139.750 395.500 L 139.500 395.750 L 138.750 395.750 L 138.500 396.000 L 138.000 396.000 L 137.750 396.250 L 137.250 396.250 L 137.000 396.500 L 136.250 396.500 L 136.000 396.750 L 135.500 396.750 L 135.250 397.000 L 134.750 397.000 L 134.500 397.250 L 133.750 397.250 L 133.500 397.500 L 133.000 397.500 L 132.750 397.750 L 132.250 397.750 L 132.000 398.000 L 131.250 398.000 L 131.000 398.250 L 130.500 398.250 L 130.250 398.500 L 129.750 398.500 L 129.500 398.750 L 128.750 398.750 L 128.500 399.000 L 128.000 399.000 L 127.750 399.250 L 127.250 399.250 L 127.000 399.500 L 126.250 399.500 L 126.000 399.750 L 125.500 399.750 L 125.250 400.000 L 123.250 400.000 L 123.000 400.250 L 121.250 400.250 L 121.000 400.500 L 119.000 400.500 L 118.750 400.750 L 116.750 400.750 L 116.500 401.000 L 114.500 401.000 L 114.250 401.250 L 106.250 401.250 L 106.000 401.000 L 105.000 401.000 L 104.750 400.750 L 104.000 400.750 L 103.750 400.500 L 102.750 400.500 L 102.500 400.250 L 101.500 400.250 L 101.250 400.000 L 100.500 400.000 L 100.250 399.750 L 99.250 399.750 L 99.000 399.500 L 98.000 399.500 L 97.750 399.250 L 96.750 399.250 L 96.500 399.000 L 95.750 399.000 L 95.500 398.750 L 94.500 398.750 L 94.250 398.500 L 93.250 398.500 L 93.000 398.250 L 92.250 398.250 L 92.000 398.000 L 91.000 398.000 L 90.750 397.750 L 90.250 397.750 L 90.000 397.500 L 89.750 397.500 L 89.500 397.250 L 89.000 397.250 L 88.750 397.000 L 88.250 397.000 L 88.000 396.750 L 87.750 396.750 L 87.500 396.500 L 87.000 396.500 L 86.750 396.250 L 86.500 396.250 L 86.250 396.000 L 85.750 396.000 L 85.500 395.750 L 85.000 395.750 L 84.750 395.500 L 84.500 395.500 L 84.250 395.250 L 83.750 395.250 L 83.500 395.000 L 83.000 395.000 L 82.750 394.750 L 82.500 394.750 L 82.250 394.500 L 81.750 394.500 L 81.500 394.250 L 81.000 394.250 L 80.750 394.000 L 80.500 394.000 L 80.250 393.750 L 79.750 393.750 L 79.500 393.500 L 79.250 393.500 L 79.000 393.250 L 78.500 393.250 L 78.250 393.000 L 77.750 393.000 L 77.500 392.750 L 77.250 392.750 L 77.000 392.500 L 76.500 392.500 L 76.250 392.250 L 76.000 392.250 Z M 364.500 392.250 L 364.750 392.500 L 365.000 392.500 L 365.250 392.750 L 365.750 392.750 L 366.000 393.000 L 366.250 393.000 L 366.500 393.250 L 367.000 393.250 L 367.250 393.500 L 367.750 393.500 L 368.000 393.750 L 368.750 393.750 L 369.000 394.000 L 369.500 394.000 L 369.750 394.250 L 370.250 394.250 L 370.500 394.500 L 371.000 394.500 L 371.250 394.750 L 372.000 394.750 L 372.250 395.000 L 372.750 395.000 L 373.000 395.250 L 373.500 395.250 L 373.750 395.500 L 374.500 395.500 L 374.750 395.750 L 375.750 395.750 L 376.000 396.000 L 376.750 396.000 L 377.000 396.250 L 377.750 396.250 L 378.000 396.500 L 379.000 396.500 L 379.250 396.750 L 380.000 396.750 L 380.250 397.000 L 381.750 397.000 L 382.000 397.250 L 383.500 397.250 L 383.750 397.500 L 386.750 397.500 L 387.000 397.750 L 390.250 397.750 L 390.500 398.000 L 393.750 398.000 L 394.000 398.250 L 406.000 398.250 L 406.250 398.000 L 410.000 398.000 L 410.250 397.750 L 414.250 397.750 L 414.500 397.500 L 416.000 397.500 L 416.250 397.250 L 417.500 397.250 L 417.750 397.000 L 419.250 397.000 L 419.500 396.750 L 420.750 396.750 L 421.000 396.500 L 422.500 396.500 L 422.750 396.250 L 423.500 396.250 L 423.750 396.000 L 424.250 396.000 L 424.500 395.750 L 425.250 395.750 L 425.500 395.500 L 426.000 395.500 L 426.250 395.250 L 427.000 395.250 L 427.250 395.000 L 427.750 395.000 L 428.000 394.750 L 428.750 394.750 L 429.000 394.500 L 429.500 394.500 L 429.750 394.250 L 430.500 394.250 L 430.750 394.000 L 431.250 394.000 L 431.500 393.750 L 431.750 393.750 L 432.000 393.500 L 432.500 393.500 L 432.750 393.250 L 433.250 393.250 L 433.500 393.000 L 433.750 393.000 L 434.000 392.750 L 434.500 392.750 L 434.750 392.500 L 435.000 392.500 L 434.750 392.500 L 434.500 392.750 L 434.000 392.750 L 433.750 393.000 L 433.500 393.000 L 433.250 393.250 L 432.750 393.250 L 432.500 393.500 L 432.250 393.500 L 432.000 393.750 L 431.500 393.750 L 431.250 394.000 L 431.000 394.000 L 430.750 394.250 L 430.250 394.250 L 430.000 394.500 L 429.750 394.500 L 429.500 394.750 L 429.000 394.750 L 428.750 395.000 L 428.500 395.000 L 428.250 395.250 L 427.750 395.250 L 427.500 395.500 L 427.250 395.500 L 427.000 395.750 L 426.500 395.750 L 426.250 396.000 L 426.000 396.000 L 425.750 396.250 L 425.250 396.250 L 425.000 396.500 L 424.750 396.500 L 424.500 396.750 L 424.000 396.750 L 423.750 397.000 L 423.000 397.000 L 422.750 397.250 L 422.000 397.250 L 421.750 397.500 L 421.000 397.500 L 420.750 397.750 L 420.000 397.750 L 419.750 398.000 L 419.000 398.000 L 418.750 398.250 L 418.000 398.250 L 417.750 398.500 L 417.000 398.500 L 416.750 398.750 L 416.250 398.750 L 416.000 399.000 L 415.250 399.000 L 415.000 399.250 L 414.250 399.250 L 414.000 399.500 L 413.250 399.500 L 413.000 399.750 L 412.250 399.750 L 412.000 400.000 L 411.250 400.000 L 411.000 400.250 L 410.250 400.250 L 410.000 400.500 L 407.500 400.500 L 407.250 400.750 L 404.500 400.750 L 404.250 401.000 L 401.750 401.000 L 401.500 401.250 L 398.250 401.250 L 398.000 401.000 L 393.500 401.000 L 393.250 400.750 L 392.250 400.750 L 392.000 400.500 L 391.000 400.500 L 390.750 400.250 L 389.750 400.250 L 389.500 400.000 L 388.500 400.000 L 388.250 399.750 L 387.250 399.750 L 387.000 399.500 L 385.750 399.500 L 385.500 399.250 L 384.500 399.250 L 384.250 399.000 L 383.250 399.000 L 383.000 398.750 L 382.000 398.750 L 381.750 398.500 L 380.750 398.500 L 380.500 398.250 L 379.500 398.250 L 379.250 398.000 L 378.750 398.000 L 378.500 397.750 L 378.250 397.750 L 378.000 397.500 L 377.500 397.500 L 377.250 397.250 L 376.750 397.250 L 376.500 397.000 L 376.250 397.000 L 376.000 396.750 L 375.500 396.750 L 375.250 396.500 L 374.750 396.500 L 374.500 396.250 L 374.250 396.250 L 374.000 396.000 L 373.500 396.000 L 373.250 395.750 L 373.000 395.750 L 372.750 395.500 L 372.250 395.500 L 372.000 395.250 L 371.500 395.250 L 371.250 395.000 L 371.000 395.000 L 370.750 394.750 L 370.250 394.750 L 370.000 394.500 L 369.500 394.500 L 369.250 394.250 L 369.000 394.250 L 368.750 394.000 L 368.250 394.000 L 368.000 393.750 L 367.500 393.750 L 367.250 393.500 L 367.000 393.500 L 366.750 393.250 L 366.250 393.250 L 366.000 393.000 L 365.750 393.000 L 365.500 392.750 L 365.250 392.750 L 365.000 392.500 L 364.750 392.500 Z M 435.500 392.250 L 435.750 392.250 L 436.000 392.000 L 436.250 392.000 L 436.000 392.000 L 435.750 392.250 Z" fill="#000000" fill-rule="evenodd"/>
  </g>
</svg>
