<svg id="Layer_1" enable-background="new 0 0 70 70" height="512" viewBox="0 0 70 70" width="512" xmlns="http://www.w3.org/2000/svg"><g id="_x33_5"><g><path d="m6.1091084 36.3260536c.2780557 5.7047768.1382585 5.4825211.340271 5.8241577.1281857 1.7766571 2.0832915.9900627 3.0967402 1.3255615.5844727.1934204 1.017334.6831055 1.3815918 1.1793823 1.3481989 1.8371162 1.0986843 1.9435844 1.541687 2.1734009.2081709.2566681.4480753.3468666.8500366.1967773.1861057-.0694847-.145793.078537 2.4922485-1.2305908 1.4705029-.729969 1.3221817-.7540627 2.1448975-.62677.7512054.116127 1.0709438-.1917801 4.8990479.9190674 9.7775269 2.8370972 19.2580566 6.5892334 28.6941528 10.4199219 3.0130997 1.560894 2.6481209 1.4213753 2.9382324 1.4057617.3539963.1955681.5263023.0654411 1.0740356-.0911255 3.6797638-1.0516853 8.664299-9.9649658 10.5001831-13.2543945.7360535-1.3187256 1.3753204-2.5253296 1.2149658-3.9627075.4127655-1.6301613-.0488205-3.3924179-.4766235-5.0396729-.7377319-2.8364029-.3803101-2.1365242-.581604-2.5536499.0224075-.8850746-.593956-1.5639954-1.7944336-1.348938-.6983604-.1670761-1.5554619.0447578-1.9712524-.5274048-.2483978-.3420315-.2048264-.6539154-.3823853-3.6747437-.0363159-.6171875-.0718384-1.2442017.0655518-1.8469849.1627197-.713562.508728-1.5369263.3400879-2.2921143.0927124-.4418945.0359497-.90271-.1691284-1.2522583-.5264626-.9923115-1.7173958-1.0045147-3.8500977-2.4912109-8.8138199-6.3227491-6.6957436-10.002058-15.3188477-5.7802725-1.1069336.5429688-2.152832 1.0556641-3.2807617 1.3925781-10.2101994 3.017415-20.3178139 5.0653296-30.9296875 5.3847647-1.2356629-.0626774-2.3942361-.3195362-3.1007686.3673706-.119751.0403442-.2337036.1000977-.3235474.2019653-2.4218752 2.7333984-4.0776367 7.2792969-1.9907229 10.7978516.8667607 1.4611818 1.730042 2.9228517 2.5961308 4.3842775zm37.5464473-7.8460693c7.7929306-3.7759304 12.5454979-2.1709061 16.5159302-3.2545166-.1220436 1.7761307-.2837524 3.6145363.0206909 5.2768555-5.4766235 1.2716179-9.8538094 2.2231827-16.6000366 3.789978.1835937-1.8063965.2029419-3.7250977.0634155-5.8123169zm22.1987305 11.6541748c-.1005859.4912109-.3745117.9863281-.6391602 1.4648438-2.9653931 5.2415237-5.1552086 10.020256-8.8164063 13.4273071.1338501-2.041687.1074829-4.2468872.0728149-6.5528564.0969849-.0788574.1793213-.1740723.227478-.2924194 1.9170609-4.7138672 5.6981926-8.2399864 8.4971313-12.8516846.3948671 1.5672912.9513018 3.3767661.6581423 4.8048095zm-41.6264038.9852295.0140991 3.2798462c-1.5985107-.4145508-3.2020264-.7976074-4.810791-1.1491699 1.5826416-.789856 3.1821899-1.5030518 4.7966919-2.1306763zm10.9335327 6.6247558.0263062-5.4020996c3.9425049-.0065308 7.7680054 1.0158691 11.1079712 2.9854736 2.7427444 1.6211967 5.2723351 3.8172035 8.6807251 3.5192261.0397949 2.7131348.055481 5.2758789-.2076416 7.53125-.0308228.022583-.0593262.046814-.090332.0692749-6.3430177-3.4458618-12.8682252-6.3427734-19.5170289-8.703125zm17.5181885-8.2794189c.2341919.1699829.4586792.3442993.6697998.5327148.199707.1777344.3852539.6787109.3427734.921875-.0366211.2070313-.262207.4355469-.5766602.5839844-.4036255.1902466-.8894653.2420654-1.3642578.1663208.3091431-.7354126.6117554-1.4707641.9283448-2.204895zm-.6428833-2.2688599c-.9426498-.6660957-1.4536629-1.1910667-.3674927-1.585144.3607178-.1326294.7518921-.1730957 1.1322632-.1276245-.2557373.5707397-.5128174 1.1394043-.7647705 1.7127685zm1.6390381-3.6707153c-.0870972.1901855-.1699829.3842773-.2567139.5749512-2.2939911-.5391998-3.9292145.7726936-3.8587036 2.1395264.0571365 1.1049767 1.0016212 1.7553139 1.8584595 2.3537598-.3535156.8173218-.6893311 1.6366577-1.0337524 2.4557495-.3500595-.2796707-.8277664-.7700386-.8100586-1.2157593.0161133-.4140625-.3061523-.7626953-.7202148-.7783203-1.053791-.0874939-1.2774925 1.9283066.9364014 3.4050293-.151123.3654785-.3122559.7307739-.4613037 1.0959473-.1567383.3828125.0273438.8212891.4106445.9775391.3803978.1553459.820488-.0247383.9780273-.4111328.1411133-.3456421.2937622-.6914673.4367676-1.0374146 1.959507.4992638 3.7723198-.5306587 4.0144043-1.9069214.1328125-.7597656-.2280273-1.7695313-.8217773-2.2998047-.3389282-.3026123-.6968994-.5635376-1.0559082-.814209.2846069-.6495361.5765381-1.2929688.8660278-1.93927.456543.4316406.7572632 1.036499.7919312 1.6743774.0224609.4130859.3769531.7285156.7895508.7080078.4135742-.0224609.730957-.3759766.7084961-.7900391-.0649414-1.1900635-.6970215-2.3318481-1.6531372-3.0184937.1317749-.2895508.2573853-.5846558.3899536-.8731079.0981445-.2139893.0776978-.4449463-.0188599-.640686 1.1832886-.2681274 2.3659058-.5385742 3.5480957-.8101807.0724487.0838013.1588745.1565552.2676392.2028198 1.9983902.8491249 3.7093658.8984985 5.7177734.5566406-.3986588 1.2692032-3.5107803 5.3533401-4.2299805 6.2949219-1.8339233 2.4004517-3.7244873 4.8787842-4.9769897 7.7592773-.0828247.026001-.1557617.0652466-.2233887.116394-2.9532394.5472908-5.7371063-1.8021584-8.2107544-3.2692261-3.2720337-1.9291992-6.9768066-3.001709-10.8121338-3.1742554 3.1796722-4.119278 2.9663124-3.7985916 3.0285034-4.0045776 4.5365218-1.0959891 9.4170722-2.205448 14.4010009-3.3315428zm-19.986023 8.4420166-.0258179 5.2598877c-2.640625-.9019775-5.2987061-1.7211304-7.9746094-2.4483032.1004086-.2622414.0322247-.0817909.0361938-4.2180176 3.1223106-1.1099701 5.9687653-1.8324432 11.2926636-3.1506348-3.5160903 4.5487366-3.3264693 4.2238999-3.3284301 4.5570679zm-1.0215454-4.9960327c-1.2212524.3183594-2.4451904.6314087-3.6581421.9657593-5.2756863 1.4497795-10.4590855 3.7413292-15.4904175 6.8988037l.0646362-6.6185303c.0892458-.3425102-.0946026-.5300179.1000977-.9980469.0300903-.0723267.0368652-.1469727.043457-.2211304 1.4727278-.1309166 3.9200497-1.7525558 10.7871094-3.5933228 2.5643215-.6852913 5.4881973-.8988075 8.1965332-1.4995728.0507317 2.3514177-.0734405 4.6965066-.0432739 5.0660402zm-24.8578486 4.1591186-.0863647-2.0769653c.4525752.7647095.9064937 1.5292358 1.358398 2.2939453-.4108888-.0727539-.8289796-.1449585-1.2720333-.21698zm32.4746089-24.5019531c2.1368828-.6398945 3.8424072-1.7582359 5.8178711-2.5390615 4.2021942-1.6588268 3.550457.2186899 8.7158203 4.5517569 2.6276016 2.222805 3.8046455 2.8946457 5.65625 3.7900391.3159218.1534653.6408615.3017445.5322266.6259766-.3947601 1.1847935-5.4972992 1.1564751-6.6713867 1.2050781-.887207.0351563-1.6860352.1025391-2.4428711.2060547v.0009764c-2.8603172.3945274-5.4410591 1.0527096-8.5161743 2.4935913-2.5183716-3.4689941-4.899231-6.5689087-6.9749146-9.234314 1.2278442-.3326415 2.5083618-.6940917 3.8831787-1.1000976zm-5.4586182 1.5175171c2.1387939 2.7410278 4.6381836 5.9834595 7.2808838 9.6201782.3793716 4.4190598-.0438385 6.2136955-.0350342 6.8803711-2.6370239.6192017-5.2762451 1.2578125-7.9090576 1.9301758.0625114-2.3376274.121788-4.4809647-.0456543-6.8320313-.0102539-.1425781-.0610352-.2792969-.1469727-.3945313-2.7446289-3.6808472-4.7755127-6.361145-7.1673584-9.3610229 2.8777848-.5684204 5.0821667-1.082405 8.0231934-1.8431396zm-25.8631592 3.928772c5.2078857-.1565552 10.6307373-.7536621 16.1733398-1.7686157 2.5617065 3.1943359 4.6454468 5.9376831 7.4995117 9.7637329.0065308.0997314.0076294.196228.0133667.2954712-2.9768639.6955948-5.7242069.8429661-8.522644 1.590271-10.6988096 2.8684731-10.1908293 4.7466621-11.9282227 2.7050781-2.3437204-2.7584572-3.2340231-5.2098904-4.1113281-7.5546875-1.44873-3.875-1.3818355-4.8671875-1.2617183-5.0751953.2971531-.1406174 1.5205913.0374679 2.1376949.0439453zm-3.4966426 1.6606445c.3570685 1.7533913 1.2496872 3.9449768 1.4478149 4.5317383.9360352 2.7314453 2.3676753 5.2773438 4.1416011 7.3652344.3312988.3895264.7255249.8048706 1.223999 1.0769653-.301651.7819061-.1434956.789402-.2462769 6.6782837-1.7621326-2.9728737-1.4481039-2.46241-7.2306514-12.2113037-1.3038331-2.197815-.718933-5.1226197.6635133-7.440918z"/><path d="m48.8850479 30.93787c1.4975586-.6171875 3.0673828-1.0791016 4.6660156-1.3740234.4077148-.0751953.6767578-.4658203.6020508-.8730469-.0756836-.4082031-.46875-.6787109-.8735352-.6015625-1.7011719.3134766-3.3720703.8046875-4.9658203 1.4619141-.3833008.1582031-.5654297.5957031-.4077148.9794922.1609955.3906097.6082153.5625305.9790039.4072265z"/><path d="m35.8650284 27.7074013c.1455078.2119141.3798828.3251953.6186523.3251953.5949593 0 .9622002-.6723709.6176758-1.1748047l-2.8344727-4.1240234c-.2338867-.3417969-.7006836-.4257813-1.0429688-.1933594-.3413086.234375-.4277344.7011719-.1933594 1.0429688z"/><path d="m15.5329971 27.9085732c.7883186.5812664 1.7501755.3391685 2.6730957.0823975.3314819.6438599.6730957 1.2772827 1.0098267 1.916626-.0883179.0153809-.1680908.0477295-.2595825.0556641-.3852539.0332031-.6826172-.0263672-.8408203-.1660156-.3110352-.2763672-.784668-.2470703-1.059082.0625-.7153034.8055115.6205673 2.0803146 2.8881226 1.4307251.1553345.2902222.3052979.5871582.4614868.8759155.1944771.3595734.644104.5019493 1.0166016.3037109.3642578-.1972656.5-.6523438.3027344-1.0166016-.1474609-.2727051-.2890015-.5529785-.4356689-.8269653 1.4531307-1.1119652 1.7390518-2.9467163.9136963-3.9083862-.4633789-.5390625-1.3925781-.8730469-2.1191406-.7607422-.3803711.0595093-.7432861.1512451-1.0999756.250061-.2584839-.508606-.5094604-1.0186157-.763855-1.5284424.4987183-.0348511 1.015625.1050415 1.4248657.4053345.3339844.2431641.8027344.1708984 1.0483398-.1621094.2446289-.3339844.1723633-.8037109-.1616211-1.0488281-.855896-.6254883-1.987915-.8305054-3.0061035-.5841675-.116394-.2373047-.2398682-.4735107-.3552246-.7107544-.1811523-.3720703-.6293945-.5244141-1.0024414-.3466797-.3725586.1816406-.5273438.6298828-.3461914 1.0029297.1176147.2418213.2434082.482666.3620605.7244873-1.6775981 1.3349876-1.6494838 3.212738-.6511232 3.9493408zm4.7817383-.46875c.2104492-.03125.6269531.1123047.7509766.2568359.1030273.1191406.1264648.3798828.0581055.6503906-.0846558.3372192-.2816772.659668-.5495605.9213867-.2975464-.5646973-.5985718-1.125-.8920288-1.6932373.2113646-.0527954.4215697-.1027832.6325072-.1353759zm-2.798706-.8153687c-.8772392.2360821-1.3927574.2840576-1.0982666-.5606079.0958862-.272522.2583008-.5161133.4550171-.7265625.2141723.4293823.4260864.8585815.6432495 1.2871704z"/></g><path d="m46.5163956 49.1449013c-1.0102539-.6103516-2.112793-1.0175781-3.2768555-1.2119141-.4052734-.0654297-.7949219.2080078-.862793.6171875-.0678711.4082031.2080078.7949219.6166992.8632813 2.0516281.3414192 2.6079445 1.1230469 3.1347656 1.1230469.75383-.0000001 1.0385476-.9992333.3881837-1.3916016z"/></g></svg>