<?xml version="1.0" encoding="UTF-8"?>
<svg xmlns="http://www.w3.org/2000/svg" viewBox="0 0 512 512" width="512" height="512"><g id="Out_line" data-name="Out line"><circle cx="280" cy="184" r="8"/><circle cx="200" cy="184" r="8"/><path d="M240,220a4,4,0,0,0,0-8h-4a8,8,0,0,1,0-16h4a4,4,0,0,0,0-8h-4a16,16,0,0,0,0,32Z"/><path d="M156,400v96h-8V400a4,4,0,0,1,8,0Z"/><path d="M262.54541,68.27344a4.00039,4.00039,0,0,0,2.90918,7.45312c20.42529-7.97461,32.28906,3.90821,32.76807,4.40039a3.9996,3.9996,0,1,0,5.80468-5.5039C303.39014,73.95117,288.1333,58.28711,262.54541,68.27344Z"/><path d="M303.0708,46.46289c-8.1665-3.86523-18.85254-4.67383-31.76416-2.40234a4,4,0,1,0,1.38672,7.8789c13.53467-2.38183,21.78418-.51757,26.31982,1.46485,4.71729,2.0625,6.38916,4.58886,6.41748,4.62988a4.00017,4.00017,0,0,0,6.88868-4.06836C312.05713,53.52246,309.57031,49.54,303.0708,46.46289Z"/><path d="M344,92c11.79932,0,11.99951,19.80664,12,20a4,4,0,0,0,8,0c0-9.68457-4.18018-28-20-28a4,4,0,0,0,0,8Z"/><path d="M281.78906,220.42188a4.00182,4.00182,0,0,0-5.3667,1.78906C269.52783,236,255.84424,236,240,236a4,4,0,0,0,0,8c16.1582,0,34.47217,0,43.57764-18.21094A4.00093,4.00093,0,0,0,281.78906,220.42188Z"/><path d="M376,324c-10.04932,0-28,9.35645-28,28a4,4,0,0,0,8,0c0-13.85059,14.4917-20,20-20a4,4,0,0,0,0-8Z"/><path d="M342.21094,308.42188C339.16992,309.94238,324,318.0332,324,328a4,4,0,0,0,8,0c0-3.58984,8.00977-9.52148,13.78906-12.42188a4.00046,4.00046,0,0,0-3.57812-7.15624Z"/><path d="M225.58325,313.08545A17.44947,17.44947,0,0,0,228,304c0-15.7666-11.55469-24.501-23.7876-33.748C189.11328,258.83789,172,245.90137,172,216V160c0-16.91968,3.88184-38.554,12.4967-50.70557Q202.5738,115.97705,232,116c33.46729,0,58.15381-4.415,72.97021-8.11914A168.51211,168.51211,0,0,0,324,102.02148V176a15.43916,15.43916,0,0,0,5.09277,11.98926A16.34028,16.34028,0,0,0,340,192c7.50146,0,15.09033-4.89258,15.92432-14.26758l1.93359-1.93359A12.97064,12.97064,0,0,1,380,184.9707q0,2.59717-.09888,5.07959a12.89429,12.89429,0,0,1-8.05493,10.50342l-26.55322,10.624a3.99978,3.99978,0,0,0-2.3418,2.55274c-7.55127,24.89258-22.21777,38.62207-35.15771,50.73633C295.02637,276.419,284,286.74121,284,304a16.92372,16.92372,0,0,0,2.44019,9.07129L256,331.335ZM330.103,92.59766a3.99851,3.99851,0,0,0-3.89209-.17578C325.89941,92.57812,294.33447,108,232,108c-27.27,0-46.61621-4.415-57.50146-13.12305C167.43408,89.22461,164,81.74219,164,72c0-15.21875,15.88428-44,76-44,57.42871,0,92.0791,12.88574,100.20508,37.26465a3.999,3.999,0,0,0,2.30957,2.44922c34.72754,13.89111,37.2821,35.2688,37.47,100.79907a20.91605,20.91605,0,0,0-27.78394,1.62964l-3.02929,3.0293A4,4,0,0,0,348,176c0,5.90527-4.30957,8-8,8s-8-2.09473-8-8V96A3.99869,3.99869,0,0,0,330.103,92.59766ZM164.54785,148.21875a72.76039,72.76039,0,0,1-7.18506-24.36523c-1.43786-12.2063.17224-23.14649,4.43335-31.05079a39.97534,39.97534,0,0,0,15.2649,13.21875C169.62622,117.35327,165.85571,133.76465,164.54785,148.21875ZM309.78564,273.57812c15.82694-14.53389,31.90235-29.88281,40.24219-55.67871l24.79-9.918a21.23475,21.23475,0,0,0,3.22156-1.62989c-7.56885,38.25537-35.646,51.61182-58.86218,62.65332C315.9834,270.52344,312.82837,272.03027,309.78564,273.57812Zm-77.27587,81.27442L205.041,327.38428c6.01464-2.48,11.19409-5.09815,15.102-8.23389l33.79882,20.2793A4.00122,4.00122,0,0,0,255.99658,340a3.99034,3.99034,0,0,0-2.21533.67188ZM261.52783,364H250.47217l-4.31519-8.63037,9.843-6.562,9.843,6.562Zm17.9624-9.14746-21.27148-14.18066A3.99034,3.99034,0,0,0,256.00342,340a4.00122,4.00122,0,0,0,2.05469-.57031l33.82995-20.29785a39.76,39.76,0,0,0,4.71643,3.2666,30.20193,30.20193,0,0,0-3.16211,8.64355,31.93121,31.93121,0,0,0-.327,10.18653ZM307.94812,397.002c3.359,8.5752,7.29871,17.43946,10.82214,24.99951-5.52942-1.90234-9.66821-4.74121-11.19262-7.79052C303.86865,406.793,303.86621,401.70312,307.94812,397.002Zm32.65979,26.877a47.743,47.743,0,0,1-11.985.25293C318.48242,402.90381,308,377.57715,308,368c0-8.78516,0-17.87012,4.12646-20.84473,3.31788-2.38867,9.77588-.97168,14.6084.63965,7.19483,2.39844,9.8501,5.41992,9.93848,7.2793a3.15359,3.15359,0,0,1-2.05762,2.7793,3.2429,3.2429,0,0,1-3.78711-.68164,3.9997,3.9997,0,0,0-5.65722,0l-8,8A4,4,0,0,0,316,368c0,4.82324,3.1958,12,12,12a17.33215,17.33215,0,0,0,10.19873-3.11816,9.8829,9.8829,0,0,1,11.60254,0A17.33215,17.33215,0,0,0,360,380h5.52783l6.29334,12.58643C367.318,416.35742,350.40613,422.40527,340.60791,423.87891Zm38.92651-73.354C382.43652,348.86572,386.4436,348,392,348a4,4,0,0,0,0-8c-25.7113,0-27.8114,16.82959-27.98315,32H360a9.5644,9.5644,0,0,1-5.99023-1.92188,17.8145,17.8145,0,0,0-20.01954,0A9.5644,9.5644,0,0,1,328,372c-2.37891,0-3.40039-1.2002-3.79053-2.55273l4.28223-4.28223a11.22024,11.22024,0,0,0,9.35937.00488,10.98921,10.98921,0,0,0,6.813-10.47461c-.168-3.55078-2.39209-10.15429-15.39892-14.49023-9.74463-3.24707-16.88037-3.09863-21.81641.46094a14.76018,14.76018,0,0,0-4.81934,6.10205,26.596,26.596,0,0,1-1.3413-14.16162c1.32129-6.626,5.67187-12.43946,12.93066-17.27833C337.21094,300,344.35254,300,360,300c7.75342,0,13.35181,4.57568,16.72437,8.4917-6.37842,1.86865-12.59058,4.96875-18.51343,7.93018a4.00046,4.00046,0,0,0,3.57812,7.15624c15.78614-7.89453,29.42041-14.71093,43.38233-.75,22.09839,22.09913,26.23474,58.042,24.5863,89.37891C419.10425,386.11621,402.42822,365.6709,379.53442,350.5249ZM440.24,430.50977c4.3-36.88965,3.04-86.54-26.58008-116.15967-7.88989-7.8999-16.5-11.74024-26.16992-11.64014C382.96,296.77,373.90991,288,360,288c-17.04,0-26.42993,0-52.42993,17.33984a50.99808,50.99808,0,0,0-6.90015,5.4502C296.61,307.93994,296,305.71,296,304c0-10.25,10.5-15.68018,28.34009-24.16992,14.54992-6.91016,31.02991-14.75,44.34985-28.89014,14.57007-15.46,22.15015-35.08984,23.19006-60v-.06006c.08-1.92993.12-3.91992.12-5.90991,0-78.56006,0-108.86011-41.75-127.03C338.52,30.49,300.5,16,240,16c-69.61,0-88,36.62988-88,56a45.76183,45.76183,0,0,0,1.4,11.48c-4.4801,6.59009-7.2301,14.80005-8.19006,24.46-1.95,19.81006,4.21,42.47,14.79,55.14014V216c0,35.87988,21.37,52.02979,36.97,63.83008C208.77,288.74023,216,294.66992,216,304c0,7.06006-13.66992,11.8999-31.04,18.0498-23.66992,8.38038-53.12988,18.81006-77.72,44.06006C78.14,396,64,438.49023,64,496H76c0-122.66016,68-146.73,113-162.6499,2.7-.96,5.34009-1.89014,7.88-2.82031l32.28992,32.30029a3.99836,3.99836,0,0,0,5.05.5l5.23-3.49024,4.4,8.81006L228.05005,471.39014a3.82614,3.82614,0,0,0,.15991,1.86963L235.79,496H244.22l-8.12-24.3501L251.42993,372h9.14014L275.9,471.6499,267.78,496H276.21L283.79,473.25977a3.82614,3.82614,0,0,0,.15991-1.86963L268.15,368.6499l4.4-8.81006,5.23,3.49024a4.0102,4.0102,0,0,0,5.05-.5L295.39,350.27a51.848,51.848,0,0,0,4.74,9.35986C300,362.37012,300,365.2002,300,368c0,4.98,1.98,12.46973,4.9,20.7998-8.95007,7.76026-10.4,16.98-4.57995,28.76026L331.68994,496h8.62012L313.24,428.33984a54.72759,54.72759,0,0,0,28.56006,3.4502c17.04993-2.56006,29.5-12.77,35.35-28.54l19.2699,38.54a4.00265,4.00265,0,0,0,7.16016-3.58008L372,375.06006c.02-7.72022.28-13.93994,2.22-18.46a121.29756,121.29756,0,0,1,41.76,44.96972C429.26,426.1499,436,457.91992,436,496h12C448,471.62988,445.39,449.6001,440.24,430.50977Z"/><path d="M215.03955,159.68018,196.668,153.563a7.99946,7.99946,0,0,0-8.18872,1.93774l-5.66406,5.6731A4,4,0,0,0,185.646,168h28.04492a4.26919,4.26919,0,0,0,1.34863-8.31982Z"/><path d="M266.30908,168H294.354a4,4,0,0,0,2.83081-6.82617l-5.66406-5.6731A7.99946,7.99946,0,0,0,283.332,153.563l-18.37158,6.11719A4.26919,4.26919,0,0,0,266.30908,168Z"/></g></svg>
