<?xml version="1.0"?>
<svg xmlns="http://www.w3.org/2000/svg" viewBox="0 0 512 512" width="512" height="512"><g id="Out_line" data-name="Out line"><path d="M240,408.959a24.959,24.959,0,0,0,17.65723-42.61621l-30.4021-30.4021a36.27612,36.27612,0,0,0-51.1958-51.1958l-30.4021-30.4021a24.97109,24.97109,0,1,0-35.31446,35.31446l2.1875,2.1875.13868.832a80.11147,80.11147,0,0,1-16.96,63.71777l-2.05175-2.05176a8.003,8.003,0,0,0-11.31446,0l-48,48a8.00122,8.00122,0,0,0,0,11.31446L36.68555,416l-15.0293,15.0293a24.02784,24.02784,0,0,0,0,33.9414l25.37305,25.373a24.029,24.029,0,0,0,33.9414,0L96,475.31445l2.34277,2.34278a8.00181,8.00181,0,0,0,11.31446,0l2.60229-2.6023A89.2555,89.2555,0,0,0,169.94141,496H184a8.00022,8.00022,0,0,0,7.15527-4.42188l16-32A7.99951,7.99951,0,0,0,200,448H174.627a46.2723,46.2723,0,0,1-26.82226-8.49023l9.85254-9.85254a8.00122,8.00122,0,0,0,0-11.31446l-2.052-2.052a80.12955,80.12955,0,0,1,63.71705-16.96069l.832.13867,2.18847,2.18848A24.89705,24.89705,0,0,0,240,408.959ZM214.34277,297.65723a20.30455,20.30455,0,0,1,1.55371,26.9248L187.418,296.10352A20.30239,20.30239,0,0,1,214.34277,297.65723Zm-92.68554-32a8.96842,8.96842,0,0,1,12.68554,0l112,112a8.97,8.97,0,1,1-12.68554,12.68554l-112-112a8.96842,8.96842,0,0,1,0-12.68554ZM69.65625,479.0293a8.00566,8.00566,0,0,1-10.25244.88134l10.25342-10.25341L58.34277,458.34277,48,468.68555,43.31445,464l10.34278-10.34277L42.34277,442.34277,32.08936,452.59619a8.00566,8.00566,0,0,1,.88134-10.25244L48,427.31445,84.68555,464ZM51.31348,408,88,371.31348,140.68652,424,104,460.68652ZM174.627,464h12.42871l-8,16h-9.11425a73.37184,73.37184,0,0,1-46.31714-16.30981l12.74463-12.74463A62.14265,62.14265,0,0,0,174.627,464Zm-30.384-59.07153-37.17139-37.17139a96.21855,96.21855,0,0,0,22.61377-58.75732l73.31543,73.31543A96.22376,96.22376,0,0,0,144.24292,404.92847Z"/><path d="M492.4375,129.34375A223.75809,223.75809,0,0,0,416,96.84229V56a40,40,0,0,0-80,0V93.95068a223.5603,223.5603,0,0,0-92.4375,35.39307A7.99943,7.99943,0,0,0,240,136V328h16V140.333a207.52424,207.52424,0,0,1,80-30.20459V120a39.748,39.748,0,0,0,3.77563,16.9397,32.05177,32.05177,0,1,0,12.58179-12.84033A24.03814,24.03814,0,0,1,352,120V108.2832q7.95813-.6079,16-.61621a207.62538,207.62538,0,0,1,112,32.666V480H256V424H240v64a8.00039,8.00039,0,0,0,8,8H488a8.00039,8.00039,0,0,0,8-8V136A7.99943,7.99943,0,0,0,492.4375,129.34375ZM368,168a16.01833,16.01833,0,0,1-16-16l.001-.02124a39.63755,39.63755,0,0,0,30.11792,7.53174A16.00993,16.00993,0,0,1,368,168Zm13.44775-24.63672a23.85762,23.85762,0,0,1-21.24707-5.32031,15.94459,15.94459,0,0,1,21.24707,5.32031ZM352,92.23706V56a24,24,0,0,1,48,0V93.95068A225.413,225.413,0,0,0,368,91.667Q359.965,91.667,352,92.23706Z"/><path d="M328,232a32,32,0,1,0,32,32A32.03667,32.03667,0,0,0,328,232Zm0,48a16,16,0,1,1,16-16A16.01833,16.01833,0,0,1,328,280Z"/><path d="M376,328a32,32,0,1,0,32-32A32.03667,32.03667,0,0,0,376,328Zm32-16a16,16,0,1,1-16,16A16.01833,16.01833,0,0,1,408,312Z"/><rect x="288.80404" y="287.99947" width="158.39192" height="16.00105" transform="translate(-101.5189 346.91169) rotate(-45)"/></g></svg>
