<svg id="Layer_1" enable-background="new 0 0 68 68" height="512" viewBox="0 0 68 68" width="512" xmlns="http://www.w3.org/2000/svg"><g id="_x37_2"><path d="m60.0312386 12.2570801c-.1005859-.3085938-.3886719-.5175781-.7128906-.5175781-.0019531 0-.0029297 0-.0048828 0l-11.465271.0734863-.2017212-4.7023926c-.0166016-.4023438-.3486328-.7177734-.7480469-.7177734-.0107422 0-.0205078 0-.0302734.0009766-8.4428177.3320866-16.920929-.043674-25.4140644.2919922-.3798828.0146484-.6884766.3105469-.71875.6894531-.1090698 1.3814087-.1895142 3.0060425-.265564 4.6156616l-12.2891226.0737915c-.3251958.0019531-.6113286.2128906-.7099614.5234375-1.4710546 4.6345348-3.597019 9.0708065-3.6337891 12.9384766-.0096109.9851151 1.0311632 3.3649387 2.9735718 4.3816528.1063604 9.0757294.3670301 20.7703743.3447876 28.2853394-.0020332.4147491.3360491.7519531.75.7519531h.0029297l.8284917-.0031128c-.0063477.0141602.0056152-.0145264 0 0 5.2437925 4.1194305 27.2141953.4630814 52.5335693 2.6647339-.5377808-.8884277-.9401245-1.8568115-1.2016602-2.8617554.4412308-.0158081.7536736-.3866272.7224121-.8008423-.538208-7.1932373-.5800781-18.4090576-.5489502-27.5639648 2.2082367-.4892521 3.8418465-2.7063637 3.9161339-4.9008789.1462641-4.6066113-2.9725599-9.6774989-4.1269483-13.2226563zm-37.8496113-4.0976563c7.8833236-.2768101 16.0359516.0342942 23.9980488-.2392578l.3945313 9.1992188-24.8710957-.0146484c.1896228-2.7798234.2907505-6.2464076.4785156-8.9453126zm-16.5538326 18.1226197 6.3726201-.0084229c-1.0671033 3.5413837-5.3302207 3.4658756-6.3726201.0084229zm15.8925167 31.1124267-7.3442984.0274658c-.1796265-5.819519-.2507324-11.7227783-.2102051-17.5662231 2.611949.0993347 5.2065363-.1153679 7.7587881-.015625-.2694092 6.255188-.4702759 12.2872925-.2042846 17.5543823zm1.5017089-.0056763c-.2788086-5.4263306-.0513916-11.7151489.2328491-18.2254639.0175781-.4072266-.2919922-.7539063-.6992188-.78125-3.1035748-.2069054-6.2516022.1369286-9.2841787-.0644531-.4201126-.0355034-.7956963.3077431-.7998047.7412109-.0529785 6.1051636.0171509 12.2821045.2035522 18.3687134l-4.0189818.0150758c.0059299-7.398365-.2273359-17.8213272-.3395996-27.0581665 1.9358597.2287731 3.6717663-.9066658 4.6140137-2.5053101 2.8049583 4.3835831 8.3997736 4.1596222 11.0019522-.1865234 2.6529179 4.4077568 8.2971058 4.407795 10.9726582.0742188 2.5329781 4.1295795 7.8732529 4.1537361 10.4111328-.0302734 2.4411278 3.9339676 7.5302048 3.9483967 10.0019531.0517578.7189941 1.3717651 1.9997559 2.3987427 3.4235229 2.6395264-.0299072 8.8397217.0091553 19.5855103.4963989 26.8253174zm-9.2399892-31.1175537 9.192687-.012207c-1.9269085 4.4449921-7.3055573 4.3519917-9.192687.012207zm11.1054678-.0147705 9.1091328-.012085c-1.8444711 4.2823106-7.1822453 4.4492436-9.1091328.012085zm10.9335956-.0145263 8.5684814-.0113525c-1.7115936 4.1390666-6.8186759 4.229185-8.5684814.0113525zm10.4152832-.013794 8.2086792-.0109253c-1.7420463 4.0589066-6.5657959 3.8306256-8.2086792.0109253zm10.0805054-.0134277 6.1762695-.0081787c-.7997589 3.4881439-5.2342987 3.8517131-6.1762695.0081787zm-50.9428725-1.432251c.2760272-3.2568512 2.0208411-7.1404419 3.3583989-11.2207031l11.666625-.0703735c-.0712891 1.510437-.1484375 3.0197754-.2506104 4.303772-.0348244.4383755.3134823.8095703.7480469.8095703l26.439455.0146484c.6588745 0 .875103-.6838646.7470703-1.3320313l-.1704712-3.9746704 10.8716431-.0692749c1.2032928 3.3525085 3.6779785 7.6372929 3.8671875 11.4628906z"/><path d="m15.9326048 47.7736816c-.4140625 0-.75.3359375-.75.75v.1630859c0 .4140625.3359375.75.75.75.4140615 0 .749999-.3359375.749999-.75v-.1630859c0-.4140625-.3359375-.75-.749999-.75z"/><path d="m50.2626839 34.5666504h-17.8251953c-.4140625 0-.7500019.3359375-.7500019.75v13.5332031c0 .4140625.3359394.75.7500019.75h17.8291016c.4146805 0 .75-.3368797.75-.75l-.0039063-13.5332031c0-.4140625-.3359375-.75-.75-.75zm-17.0751953 13.5332031v-12.0332031h16.3251953l.0039063 12.0332031z"/></g></svg>