<svg height="512" viewBox="0 0 512 512" width="512" xmlns="http://www.w3.org/2000/svg"><g id="Out_line" data-name="Out line"><path d="m408 288h-304a7.99977 7.99977 0 0 0 -8 8v16h-6.05908a31.78981 31.78981 0 0 0 -22.627 9.37256l-30.6274 30.62744h-20.68652v16h24a7.99877 7.99877 0 0 0 5.65674-2.34326l32.9707-32.9707a15.89507 15.89507 0 0 1 11.31348-4.68604h36.688a24.04118 24.04118 0 0 1 -22.62892 16 7.99977 7.99977 0 0 0 -8 8v8a32.036 32.036 0 0 1 -32 32v16a47.8016 47.8016 0 0 0 32-12.26147v52.26147h-28.68652l-21.65674-21.65674a7.99877 7.99877 0 0 0 -5.65674-2.34326h-24v16h20.68652l21.65674 21.65674a7.99877 7.99877 0 0 0 5.65674 2.34326h32v24a7.99977 7.99977 0 0 0 8 8h304a7.99977 7.99977 0 0 0 8-8v-192a7.99977 7.99977 0 0 0 -8-8zm-8 192h-288v-120.80371a40.07061 40.07061 0 0 0 32-39.19629 7.99977 7.99977 0 0 0 -8-8h-24v-8h288z"/><path d="m176 336h64v16h-64z"/><path d="m256 336h88v16h-88z"/><path d="m360 336h24v16h-24z"/><path d="m128 368h64v16h-64z"/><path d="m208 368h64v16h-64z"/><path d="m288 368h96v16h-96z"/><path d="m128 432h48v16h-48z"/><path d="m192 432h32v16h-32z"/><path d="m240 432h16v16h-16z"/><path d="m272 432h56v16h-56z"/><path d="m128 400h32v16h-32z"/><path d="m176 400h64v16h-64z"/><path d="m256 400h128v16h-128z"/><path d="m488 16h-352a7.99778 7.99778 0 0 0 -8 8v248h16v-240h72v56a7.99782 7.99782 0 0 0 8 8h64a7.99786 7.99786 0 0 0 8-8v-56h88v240h16v-240h80v272h-48v16h56a7.9979 7.9979 0 0 0 8-8v-288a7.99782 7.99782 0 0 0 -8-8zm-208 64h-48v-48h48z"/><path d="m344 272a7.99977 7.99977 0 0 0 8-8v-64a7.99977 7.99977 0 0 0 -8-8h-96a7.99977 7.99977 0 0 0 -8 8v64a7.99977 7.99977 0 0 0 8 8zm-88-64h80v48h-80z"/></g></svg>