<svg id="Layer_1" enable-background="new 0 0 68 68" height="512" viewBox="0 0 68 68" width="512" xmlns="http://www.w3.org/2000/svg"><g id="_x32_0"><path d="m57.1651154 34.0930367c-4.3276253-.3297691-8.3051758.0385704-12.4221191.2745361 1.4272461-3.0140381 2.1799316-6.3103638 2.1799316-9.6124268 0-.3895206-.309021-.7333508-.6877441-.7393188-.315918-.2151489-.6505127-.4108887-1.3012695-.7159424l-19.1892071.2311401c1.4462891-5.8220825 4.2263184-13.0539551 6.5551739-18.8413086.1604042-.4030633-.0506592-.8530653-.4540997-.9902346-8.805315-3.0109699-18.4619408-.0252588-24.2294922 6.1796875-1.7334595 1.8649902-3.0469971 3.9678345-3.9548948 6.2038574-2.3179321 4.9766846-2.6436768 10.9464722-1.0430908 16.1882935 1.4555051 4.7666626 4.6072388 8.9779663 8.7103882 11.7977905-6.0555038 6.1663742-6.0805669 5.8294563-6.0805669 6.3911133v8.772583c-1.1756592.5192261-1.9321897 1.8791504-1.6660154 3.1561279.2666016 1.2822266 1.5097654 2.2353554 2.800781 2.2353554 1.697207 0 2.994719-1.6839943 2.7255864-3.2773476-.1980591-1.171875-1.212769-2.0870361-2.360352-2.2868652v-8.2893064l5.8755498-5.8755493c5.3139 3.1246719 12.4430389 4.2635727 18.5494995 2.1773071-.1572266 5.3125-.222168 10.6056519-.1169434 16.024231.0107422.5460205.3186035 1.0170937.7644043 1.2808876.1820393.311676.466383.4107895.7165508.3745728 13.3583603-1.4510078 22.790287.7304688 23.8466797.7304688.4047203 0 .7326393-.3190155.7490234-.7177734.1650391-3.8554726.1328125-7.8037148.1015625-11.6210976-.0498047-6.0117188-.1005859-12.2285156.6181641-18.2128906.0493581-.4277574-.2646411-.8053628-.6875002-.8378907zm-49.5351549 27.5039062c.1103516.6533203-.4003906 1.3867188-1.0507813 1.5087891-.6503906.125-1.3935547-.3730469-1.5283203-1.0224609-.125689-.6039391.2801456-1.3986053 1.0927124-1.5645142.6635743-.104126 1.3761597.4264526 1.4863892 1.078186zm35.3901353-27.1434326c-9.4479866.4020424-10.1939011-1.3460464-10.6003418-.0044556-.9551277 1.4721375-.7911377-.5013542-1.168211 10.1344604-3.5262928 1.1532135-6.8718777 1.1558876-10.5671387.4625854 1.1113281-6.5858154 2.6843262-13.1547241 4.6850586-19.527832 4.9744873.0982056 11.6362286.0720825 20.039793-.0062866-.1151122 3.0946046-.9385986 6.1608887-2.3891601 8.9415284zm-15.5766582-21.3118286-5.1132813.288208c-.3748779-1.4852905-.7548828-2.9807739-1.1467285-4.4904175 2.6115723-.2033081 5.2480469-.2271118 7.8571777-.0709839-.5402832 1.4017944-1.0756835 2.8307495-1.5971679 4.2731934zm-.5500489 1.5338134c-.8914795 2.5424805-1.6998291 5.0636597-2.3278809 7.4088135-.6430664-2.4052124-1.2631836-4.8106079-1.8585205-7.1727905zm3.7141114-9.7982783c-.3269043.8171387-.661499 1.6620483-.9985352 2.522644-1.0896626-.0329475-3.97826-.337626-8.8204346.0634766-.2584229-.9777832-.513916-1.9556885-.7835693-2.9298096 3.6601677-.8106198 7.2461453-.6611783 10.6025391.343689zm-21.8925781 6.023437c2.6213989-2.8206177 6.0828857-4.8912959 9.8375854-5.9913325 1.8643837 6.7307525 3.3773327 13.4004822 5.2190552 20.0128174.0270996.097168.0759277.180481.1342773.2553711-1.9968262 6.3786011-3.5695801 12.9486694-4.6862793 19.5383301-1.6797485-.4227905-3.2513428-.9915771-4.680542-1.7359619l3.1876221-3.1876221c.2929688-.2929688.2929688-.7675781 0-1.0605469s-.7675781-.2929688-1.0605469 0l-3.4664917 3.4664917c-5.5050054-3.4602051-8.8186646-9.5020752-9.4192505-17.6432495-.3652346-4.9892583 1.3876949-9.8378911 4.9345704-13.6542974zm47.0195293 42.2548829c.0283203 3.5224609.0585938 7.1552734-.0673828 10.7070313-7.2277412-1.0855675-14.9888191-1.4159508-22.4375-.6894531.1220703-4.5341797.2148438-9.1552734.3076172-13.7773438.0307617-1.526062.0629883-3.0480347.0947266-4.5709839.0004883-.0123901.0010986-.0239868.0008545-.036438.0648193-3.1009521.1326904-6.1929932.2149658-9.2421875 4.5908203.7304688 8.8730469.4589844 13.0234375.1953125 3.0263672-.1933594 6.1503906-.3945313 9.4013672-.2041016-.6347657 5.8330078-.5859376 11.8203125-.538086 17.6181641z"/><path d="m35.605545 42.8029976c.3066406.1728516.6474609.2617188.9824219.2617188.1699219 0 .3378906-.0224609.5-.0693359.5009766-.1435547.9287109-.5097656 1.1728516-1.0039063.2412109-.4882813.2734375-1.0410156.0869141-1.5175781-.2658882-.6808395-.9412727-1.1194878-1.6494141-1.1650391-.772419-.6642799-2.4627266.7493019-2.0410156 2.3027344.133789.493164.4794921.9267578.9482421 1.1914062zm.5175782-1.8603516c.3170815-.0311432.3277359-.2050858.5957031-.1132813.2452126.0846291.3094978.2715645.1982422.4960938-.1200562.2421837-.3358841.30616-.5751953.1708984-.2163811-.1223792-.3018151-.3145751-.21875-.5537109z"/><path d="m37.199295 46.1584663c-.1650391-.0556641-.3330078-.0888672-.5-.0996094-.1943359-.1699219-.4716797-.2333984-.734375-.1416016-.9775391.3369141-1.5761719 1.4560547-1.3076172 2.4443359.2260017.8314133 1.0384521 1.4521484 1.9306641 1.4521484.7420387 0 1.3608398-.4422722 1.6738281-1.0732422.2402344-.4873047.2724609-1.0400391.0859375-1.5166016-.1933593-.495117-.6123046-.8837888-1.1484375-1.0654295zm-.2822265 1.9160157c-.0566406.1142578-.1494141.2011719-.2431641.2285156s-.2197266.0048828-.3320313-.0576172c-.1201172-.0673828-.2080078-.1708984-.2373047-.2763672-.0234375-.0859375-.0136719-.1835938.0185547-.2763672.109375-.0107422.21875-.0449219.3183594-.1054688.0664063-.0400391.171875-.0429688.2773438-.0078125.1103516.0380859.2011719.1123047.2324219.1904297.0322265.0830079.0195312.1972657-.0341797.3046876z"/><path d="m36.699295 53.7727242c-.7714767-.6745605-2.4628906.7538185-2.0419922 2.3027344.2285004.8422813 1.0488701 1.453125 1.9306641 1.453125 1.3415184 0 2.211689-1.4361763 1.7597656-2.5908203-.2640647-.6761704-.9362754-1.1192284-1.6484375-1.1650391zm-.0253906 2.2451171c-.2443657.0712738-.6998215-.1822701-.5507813-.6113281.3203239-.0314598.3260727-.2056541.5957031-.1132813.1103516.0380859.2011719.1123047.2324219.1904297.070984.1828309-.0814018.4770318-.2773437.5341797z"/><path d="m51.2520294 40.5881538-10.8496094-.1357421c-.0039063 0-.0068359 0-.0097656 0-.4101563 0-.7451172.3300781-.75.7402344-.0048828.4150391.3261719.7548828.7402344.7597656 2.0931473.0261726 10.9604416.1357422 10.859375.1357422.4101563 0 .7451172-.3300781.75-.7402344.0048828-.4150391-.3261719-.7548828-.7402344-.7597657z"/><path d="m49.8848419 48.911396c.4140625-.0058594.7451172-.3466797.7392578-.7607422-.0058594-.4150391-.3828125-.75-.7607422-.7392578l-8.9990234.1308594c-.4140625.0058594-.7451172.3466797-.7392578.7607422.0058594.4111328.3408203.7392578.75.7392578.1045418 0 9.1122627-.1173134 9.0097656-.1308594z"/><path d="m50.2500763 55.433857c-3.3613281-.7207031-6.9238281-.7626953-10.3037109-.125-.4072266.0771484-.6748047.4697266-.5976563.8769531s.4755859.6728516.8769531.5976563c5.4793282-1.0380821 9.4857101.1337891 9.8681641.1337891.8907928-.0000001 1.0344429-1.2950631.15625-1.4833985z"/><path d="m66.3389435 18.1037788c-.2601318-1.537981-1.9700012-2.766818-3.6540527-2.1853638l-4.9035645-4.9035034c-.3930054-.3930073-.2156448-.1413889-7.9104004-.2197266-1.728344-3.0658364-4.0223198-5.5914025-6.8425293-7.5927734-.2118874-.1515322-.504261-.1970994-.791748-.0393677-.5806885.0556641-1.1503906.2642822-1.8892822.7191772-3.7280274 5.0526124-7.0491944 10.2260743-9.9664288 15.8519899l-.7402344 1.043396c-.3683014.516468.035677 1.2366657.6796875 1.1806641 22.6693745-2.1604233 21.7807751-1.7874775 22.1582012-2.2578125.1279297-.1582031.1855469-.3613281.1601563-.5634766-.2961426-2.381897-.9628906-4.6740112-1.9851074-6.8417969h6.2868652l4.5002441 4.5002441c-1.8073959 2.2083702.2871971 4.9811401 2.6452637 4.541748 1.4453125-.2724609 2.4980469-1.783203 2.2529297-3.2333984zm-15.2978516.4511719-19.2343731 1.7607422 10.9589825-15.4462886c2.151123 1.6374512 3.951416 3.6298823 5.3666992 5.9257808h-1.5512695c-.4140625 0-.75.3359375-.75.75s.3359375.75.75.75h2.3828125c1.0168457 1.9822998 1.7236328 4.0749512 2.0771484 6.2597656zm12.7675781 1.3076172c-.6416016.1240234-1.3935547-.3740234-1.5283203-1.0214844-.1010742-.4862061.1455078-1.0305786.5472412-1.3347168.0006104-.0002441.0010986-.0009155.0018311-.0011597.7730103-.583643 1.8868027-.0038815 2.0310059.8485718.1103515.6533204-.4013672 1.3867188-1.0517579 1.5087891z"/></g></svg>