<svg id="outline" height="512" viewBox="0 0 512 512" width="512" xmlns="http://www.w3.org/2000/svg"><path d="m56 256h16v24h-16z"/><path d="m56 304h16v24h-16z"/><path d="m56 352h16v24h-16z"/><path d="m440 352h16v24h-16z"/><path d="m128 256h16v24h-16z"/><path d="m128 304h16v24h-16z"/><path d="m160 256h16v24h-16z"/><path d="m160 304h16v24h-16z"/><path d="m128 352h16v24h-16z"/><path d="m160 352h16v24h-16z"/><path d="m336 352h16v24h-16z"/><path d="m368 352h16v24h-16z"/><path d="m56 400h16v24h-16z"/><path d="m440 400h16v24h-16z"/><path d="m128 400h16v24h-16z"/><path d="m160 400h16v24h-16z"/><path d="m336 400h16v24h-16z"/><path d="m368 400h16v24h-16z"/><path d="m336 256h16v24h-16z"/><path d="m336 304h16v24h-16z"/><path d="m368 256h16v24h-16z"/><path d="m368 304h16v24h-16z"/><path d="m488 192h-8v-8a8.00039 8.00039 0 0 0 -8-8h-48a8.00039 8.00039 0 0 0 -8 8v8h-72v-8a8.00039 8.00039 0 0 0 -8-8h-8v-16a8.00039 8.00039 0 0 0 -8-8h-56v-96a8.00066 8.00066 0 0 0 -13.65723-5.65723l-48 48a8.00066 8.00066 0 0 0 5.65723 13.65723h40v40h-56a8.00039 8.00039 0 0 0 -8 8v16h-8a8.00039 8.00039 0 0 0 -8 8v8h-72v-8a8.00039 8.00039 0 0 0 -8-8h-48a8.00039 8.00039 0 0 0 -8 8v8h-8a8.00039 8.00039 0 0 0 -8 8v256a8.00039 8.00039 0 0 0 8 8h464a8.00039 8.00039 0 0 0 8-8v-256a8.00039 8.00039 0 0 0 -8-8zm-260.68652-96 20.68652-20.68652v20.68652zm196.68652 112a8.00039 8.00039 0 0 0 8-8v-8h32v8a8.00039 8.00039 0 0 0 8 8h8v16h-64v-16zm-232 240h-80v-208h80zm16-208h16v120h-16zm32 0h32v120h-32zm48 0h16v120h-16zm32 128v-128h80v208h-80zm80-160v16h-56v-16zm-216-16h8a8.00039 8.00039 0 0 0 8-8v-16h112v16a8.00039 8.00039 0 0 0 8 8h8v32h-144zm-16 32h-56v-16h56zm-128-16a8.00039 8.00039 0 0 0 8-8v-8h32v8a8.00039 8.00039 0 0 0 8 8h8v16h-64v-16zm56 240h-64v-208h64zm152 0v-40h16v40zm32 0v-48a8.00039 8.00039 0 0 0 -8-8h-32a8.00039 8.00039 0 0 0 -8 8v48h-24v-72h96v72zm200 0h-64v-208h64z"/><path d="m440 256h16v24h-16z"/><path d="m440 304h16v24h-16z"/><path d="m248 256h16v16h-16z"/><path d="m248 288h16v16h-16z"/><path d="m248 320h16v16h-16z"/></svg>