<svg id="Layer_1" enable-background="new 0 0 68 68" height="512" viewBox="0 0 68 68" width="512" xmlns="http://www.w3.org/2000/svg"><g id="_x33_5"><path d="m8.1876535 61.2871819c0 .6660156.5439453 1.2158203 1.2138672 1.2255859 7.3297815.1008568 13.0798197.2861633 20.0618896.4129028 3.2639503.8395805 14.0892448 3.4689369 15.0001221 3.4689369.1293335 0 .2561035-.0220337.3769531-.0619507.4485474.0210571.8984985.0144653 1.3431396-.048584.3731689-.0529785.6733398-.3251343.7966309-.6812744.3079224-.8897095.6318359-1.8243446.9419556-2.7201576 4.7086296-.1371117 4.4717331-.1195374 4.8530273-.3759766.3255005-.1380005.5135498-.2851563.8987427-.519043.6411133-.3892212 1.0583496-1.0620117 1.0969238-1.8110352.4937134-9.5822144.7037964-19.0489502.7227783-28.5769634 1.4299316-5.3851929 2.8291626-10.8330688 4.2633057-16.1877441.2340965-.8739204-.2508049-1.4475241-.387085-1.8396606-.0177002-.4839478-.3052368-.9260864-.7633057-1.0936279-1.1634521-.4550171-2.2617188-.8690796-3.3388062-1.267395-.0101318-.4421387-.0170898-.8803101-.027771-1.3232422-.0204163-.841939-.5834961-1.2275667-1.4539795-2.2424922-.1777954-.362915-.5122681-.6408691-.9343262-.6942139-.0004883 0-.0009766 0-.0014648 0-5.1415413-.6369638-10.1876228-1.04535-15.1801155-1.2582407-.0046997-.0011597-.0084839-.0043335-.0132446-.0054321-7.0043945-1.8203125-13.9580078-3.1523438-21.2548828-4.0722656-.6401358-.0791016-1.2207022.3232422-1.3500967.9189454l-.9483643 3.7461548c-1.6116943.1523438-3.2228394.3201904-4.8343506.5184937-.6166992.0751953-1.081543.5996094-1.081543 1.2207026v21.5592651l-6.242188 24.5891705c-.1677763.6690598.2566636 1.3197746.8789063 1.4755859 1.8327637.4971313 3.6166382.9834595 5.3632817 1.4627686zm27.8219595 1.7175293c2.3298759.0143471 4.7551689.0314064 8.8942871-.0474854-.2053833.633728-.4102783 1.2699623-.6171265 1.894413-2.7020263-.5587158-5.4190063-1.165287-8.2771606-1.8469276zm21.8098755-49.2233878c-1.0324287 3.4001474-1.5977631 6.0806742-2.3526001 9.5490732-.0322876-3.4836426-.0903931-6.9874878-.1653442-10.510438.8139648.3041383 1.6486206.6226808 2.5179443.9613648zm-41.3725586-10.648437c4.7550659.6060791 9.359436 1.4078369 13.9327393 2.3892212-4.9293823-.0056152-9.8171387.2068481-14.6947622.6221924zm-6.7592764 5.1259761c14.0117178-1.7070308 27.9941406-1.6572261 42.7290039.1503906-.3709984 7.9208822 1.2764091 26.9274178-.5678711 52.8339844-14.8820496.642643-27.0159187-.0134468-42.1611328-.2265625v-52.7578125zm-6.2187504 46.0058584 4.7187505-18.588562v19.8744507c-1.539063-.4212647-3.1037603-.8479614-4.7187505-1.2858887z"/><path d="m16.0914612 27.2920666c20.4196701.1820335 18.1699181.0455856 21.4526367.2324219 6.8835258.3949566 9.0376892.028738 8.9648438-6.7880859l-.0039063-5.0185556c0-1.8105469-1.2661133-3.2841797-2.8222656-3.2841797h-27.574707c-1.5561514 0-2.8222647 1.4736328-2.8222647 3.2841797v8.2890635c0 1.8007811 1.2583008 3.2744139 2.8056631 3.2851561zm-1.3056631-11.5742197c0-.9667969.6054688-1.7841797 1.3222647-1.7841797h27.574707c.7167969 0 1.3222656.8173828 1.3222656 1.7841797l.0039063 5.0341806c.056324 5.3752098-.7104187 5.6564465-7.3789063 5.2753906-3.3243904-.1910152-1.2012138-.0536194-21.5283203-.2353516-.713378-.0048828-1.315917-.8222656-1.315917-1.7851563z"/><path d="m13.0690012 34.2451897h20.8051748c.4140625 0 .75-.3359375.75-.75s-.3359375-.75-.75-.75h-20.8051748c-.4140625 0-.75.3359375-.75.75s.3359375.75.75.75z"/><path d="m12.8053293 42.9434319h27.4755859c.4140625 0 .75-.3359375.75-.75s-.3359375-.75-.75-.75h-27.4755859c-.4140625 0-.75.3359375-.75.75s.3359375.75.75.75z"/><path d="m30.9073792 50.2774162c0-.4140625-.3359375-.75-.75-.75h-17.7910147c-.4140625 0-.75.3359375-.75.75s.3359375.75.75.75h17.7910156c.4140616 0 .7499991-.3359375.7499991-.75z"/><path d="m37.7521057 50.1421623v5.1329346c0 .3096924.2507324.5531006.5531006.5531006h8.6138306c.3023682 0 .5531006-.2434082.5531006-.5531006v-5.0886841c0-.3318481-.3023682-.5825806-.6194458-.5531006l-8.5401001-.0442505c-.3236542-.0147285-.5604859.2527466-.5604859.5531006z"/><path d="m58.5465393 9.9043703c.7913589 0 .7028961-.7571115 2.3349609-3.7255855.199707-.3632813.0673828-.8193359-.2958984-1.0185547-.3618164-.2011719-.8183594-.0673828-1.0185547.2958984-1.072197 1.9485946-.9908295 2.036622-1.6835938 3.3486323-.2660331.5051261.1085587 1.0996095.663086 1.0996095z"/><path d="m60.3736877 11.4649172c.1445313.2158203.3823242.3330078.6240234.3330078.1435547 0 .2880859-.0410156.4160156-.1259766 1.6248703-1.0863686 2.1056709-1.5708551 3.4799805-2.5810547.3339844-.2451172.4057617-.7148438.1606445-1.0488281-.2456055-.3339839-.7148438-.405273-1.0483398-.1601558-1.3821907 1.0142312-1.8442764 1.4863896-3.425293 2.5419917-.3447265.2304688-.4370116.6962891-.2070312 1.0410157z"/><path d="m65.3424377 15.1338625c.375 0 .6987305-.2802734.7436523-.6621094.0488281-.4111328-.2451172-.7841797-.65625-.8330078-1.2697601-.1493835-2.3846664-.0771618-3.5644531-.2177734-.4174805-.0429688-.784668.2451172-.8330078.6572266-.0488281.4111328.2451172.7841797.65625.8330078 1.2697639.1493845 2.3846664.0771627 3.5644531.2177734.0302735.0029297.0600587.0048828.0893555.0048828z"/></g></svg>