<svg id="Layer_1" enable-background="new 0 0 454.511 454.511" height="512" viewBox="0 0 454.511 454.511" width="512" xmlns="http://www.w3.org/2000/svg"><g data-startx-scale="0.9025" transform="translate(227.2555 227.2555) scale(0.9025) translate(-227.2555 -227.2555)"><path fill="#000" fill-rule="evenodd" stroke="#000" stroke-width="42" stroke-linejoin="round" stroke-linecap="round" d="m187.529 143.796c2.299-6.474 2.826-13.816 1.495-20.77-10.9 2.782-22.121.313-31.655-6.983-12.365-9.461-19.747-25.74-19.747-43.543 0-28.469 19.11-51.63 42.601-51.63 16.172 0 31.163 11.336 38.261 28.907l20.602 3.565c-7.82-31.446-33.865-53.342-63.584-53.342-36.343 0-65.909 32.523-65.909 72.5 0 44.285 36.625 79.702 77.936 71.296z"/><path fill="#fff" d="m187.529 143.796c2.299-6.474 2.826-13.816 1.495-20.77-10.9 2.782-22.121.313-31.655-6.983-12.365-9.461-19.747-25.74-19.747-43.543 0-28.469 19.11-51.63 42.601-51.63 16.172 0 31.163 11.336 38.261 28.907l20.602 3.565c-7.82-31.446-33.865-53.342-63.584-53.342-36.343 0-65.909 32.523-65.909 72.5 0 44.285 36.625 79.702 77.936 71.296z"/><path fill="#000" fill-rule="evenodd" stroke="#000" stroke-width="42" stroke-linejoin="round" stroke-linecap="round" d="m370.279 229.796-223.188-44.833c-.654-.132-1.219-.51-1.589-1.066-1.237-1.857.416-4.279 2.575-3.835l222.17 44.629-.653-108.624-73.754-14.064c.957 4.905 2.548 9.551 4.735 13.831 7.372-4.846 16.196-5.899 24.297-2.88 22.259 8.295 29.211 41.743 13.563 62.03-5.968 7.737-14.095 11.998-22.883 11.998-1.379 0-2.5-1.122-2.5-2.5s1.121-2.5 2.5-2.5c8.536 0 16.757-5.414 21.658-14.195-42.201 6.227-78.516-28.885-80.37-73.218l-90.537-17.256c-.656-.125-1.225-.498-1.6-1.05-1.244-1.828.345-4.276 2.535-3.862l89.543 17.067c.164-9.372 1.845-18.491 4.998-27.122l-108.498-18.779-3.176 1.077c-9.308 15.407-9.971 36.484-1.689 52.699 4.563-3 9.73-4.583 14.978-4.583 17.292 0 31.36 16.988 31.36 37.87 0 20.876-14.068 37.86-31.36 37.86-1.379 0-2.5-1.122-2.5-2.5s1.121-2.5 2.5-2.5c8.537 0 16.758-5.414 21.659-14.195-47.266 6.959-87.296-38.027-79.488-89.55l-8.762 2.968c1.246 10.8 6.653 62.364 3.773 120.402-2.861 57.677-14.441 135.408-56.646 174.887l270.443 92.108c4.794-5.179 26.572-30.352 41.43-74.902.435-1.307 1.853-2.015 3.163-1.581 1.307.436 2.019 1.849 1.581 3.163-9.989 29.952-22.783 51.077-31.901 63.667l41.935 14.054c0-196.15.107-159.497-.302-224.715z"/><path fill="#fff" d="m370.279 229.796-223.188-44.833c-.654-.132-1.219-.51-1.589-1.066-1.237-1.857.416-4.279 2.575-3.835l222.17 44.629-.653-108.624-73.754-14.064c.957 4.905 2.548 9.551 4.735 13.831 7.372-4.846 16.196-5.899 24.297-2.88 22.259 8.295 29.211 41.743 13.563 62.03-5.968 7.737-14.095 11.998-22.883 11.998-1.379 0-2.5-1.122-2.5-2.5s1.121-2.5 2.5-2.5c8.536 0 16.757-5.414 21.658-14.195-42.201 6.227-78.516-28.885-80.37-73.218l-90.537-17.256c-.656-.125-1.225-.498-1.6-1.05-1.244-1.828.345-4.276 2.535-3.862l89.543 17.067c.164-9.372 1.845-18.491 4.998-27.122l-108.498-18.779-3.176 1.077c-9.308 15.407-9.971 36.484-1.689 52.699 4.563-3 9.73-4.583 14.978-4.583 17.292 0 31.36 16.988 31.36 37.87 0 20.876-14.068 37.86-31.36 37.86-1.379 0-2.5-1.122-2.5-2.5s1.121-2.5 2.5-2.5c8.537 0 16.758-5.414 21.659-14.195-47.266 6.959-87.296-38.027-79.488-89.55l-8.762 2.968c1.246 10.8 6.653 62.364 3.773 120.402-2.861 57.677-14.441 135.408-56.646 174.887l270.443 92.108c4.794-5.179 26.572-30.352 41.43-74.902.435-1.307 1.853-2.015 3.163-1.581 1.307.436 2.019 1.849 1.581 3.163-9.989 29.952-22.783 51.077-31.901 63.667l41.935 14.054c0-196.15.107-159.497-.302-224.715z"/><path fill="#000" fill-rule="evenodd" stroke="#000" stroke-width="42" stroke-linejoin="round" stroke-linecap="round" d="m410.581 198.438v-110.338l-111.261-19.258c-3.748 8.567-5.214 18.206-4.247 27.924l76.451 14.578 19.647-13.418c.552-.377 1.214-.516 1.873-.393 2.181.411 2.778 3.27.947 4.521l-19.403 13.25.648 107.679z"/><path fill="#fff" d="m410.581 198.438v-110.338l-111.261-19.258c-3.748 8.567-5.214 18.206-4.247 27.924l76.451 14.578 19.647-13.418c.552-.377 1.214-.516 1.873-.393 2.181.411 2.778 3.27.947 4.521l-19.403 13.25.648 107.679z"/><path fill="#000" fill-rule="evenodd" stroke="#000" stroke-width="42" stroke-linejoin="round" stroke-linecap="round" d="m150.933 101.684c8.796 13.535 23.152 19.958 36.83 16.484-5.677-17.315-22.548-26.111-36.83-16.484z"/><path fill="#fff" d="m150.933 101.684c8.796 13.535 23.152 19.958 36.83 16.484-5.677-17.315-22.548-26.111-36.83-16.484z"/><path fill="#000" fill-rule="evenodd" stroke="#000" stroke-width="42" stroke-linejoin="round" stroke-linecap="round" d="m375.581 452.996 35-26.25v-222.221l-35.307 24.521c.368 60.961.318 17.366.307 223.95z"/><path fill="#fff" d="m375.581 452.996 35-26.25v-222.221l-35.307 24.521c.368 60.961.318 17.366.307 223.95z"/><path fill="#000" fill-rule="evenodd" stroke="#000" stroke-width="42" stroke-linejoin="round" stroke-linecap="round" d="m339.688 162.286c2.304-6.498 2.83-13.84 1.494-20.769-10.893 2.785-22.038.371-31.443-6.826-12.497-9.561-19.957-25.897-19.957-43.701 0-28.469 19.11-51.63 42.601-51.63 18.892 0 35.676 15.285 40.915 37.212l19.508 3.377c-4.912-35.655-32.211-61.459-65.144-61.459-36.343 0-65.91 32.523-65.91 72.5 0 44.209 36.551 79.716 77.936 71.296z"/><path fill="#fff" d="m339.688 162.286c2.304-6.498 2.83-13.84 1.494-20.769-10.893 2.785-22.038.371-31.443-6.826-12.497-9.561-19.957-25.897-19.957-43.701 0-28.469 19.11-51.63 42.601-51.63 18.892 0 35.676 15.285 40.915 37.212l19.508 3.377c-4.912-35.655-32.211-61.459-65.144-61.459-36.343 0-65.91 32.523-65.91 72.5 0 44.209 36.551 79.716 77.936 71.296z"/><path fill="#000" fill-rule="evenodd" stroke="#000" stroke-width="42" stroke-linejoin="round" stroke-linecap="round" d="m339.922 136.659c-5.664-17.281-22.517-26.134-36.829-16.485 8.795 13.534 23.152 19.958 36.829 16.485z"/><path fill="#fff" d="m339.922 136.659c-5.664-17.281-22.517-26.134-36.829-16.485 8.795 13.534 23.152 19.958 36.829 16.485z"/></g></svg>