<svg xmlns="http://www.w3.org/2000/svg" version="1.1" xmlns:xlink="http://www.w3.org/1999/xlink" width="512" height="512" x="0" y="0" viewBox="0 0 512 512" style="enable-background:new 0 0 512 512" xml:space="preserve" class=""><g><path fill="#f4f4f4" d="M488.184 478.914H23.816C10.664 478.914 0 468.254 0 455.098V29.23C0 13.086 13.086 0 29.23 0h456.106C500.063 0 512 11.938 512 26.664v428.434c0 13.156-10.664 23.816-23.816 23.816zm0 0" opacity="1" data-original="#f4f4f4" class=""></path><path fill="#e8e8e8" d="M485.336 0h-10.387c.305 1.613.469 3.27.469 4.969v468.976c0 1.7-.164 3.36-.469 4.97h13.235c13.152 0 23.816-10.661 23.816-23.817V26.668C512 11.941 500.062 0 485.336 0zm0 0" opacity="1" data-original="#e8e8e8"></path><path fill="#4d4b4e" d="M0 92.164h512V24.535C512 10.985 501.016 0 487.465 0H24.535C10.985 0 0 10.984 0 24.535zm0 0" opacity="1" data-original="#5994ce" class=""></path><path fill="#a1a1a1" d="M487.465 0h-12.512c.3 1.613.469 3.27.469 4.969v87.195H512V24.535C512 10.985 501.016 0 487.465 0zm0 0" opacity="1" data-original="#4c7eb0" class=""></path><path fill="#a1a1a1" d="M79.64 46.082c0 10.047-8.14 18.188-18.187 18.188-10.043 0-18.183-8.141-18.183-18.188 0-10.043 8.14-18.187 18.183-18.187 10.047 0 18.188 8.144 18.188 18.187zm0 0" opacity="1" data-original="#fa5d72" class=""></path><path fill="#a1a1a1" d="M141.207 46.082c0 10.047-8.144 18.188-18.187 18.188-10.047 0-18.188-8.141-18.188-18.188 0-10.043 8.14-18.187 18.188-18.187 10.043 0 18.187 8.144 18.187 18.187zm0 0" opacity="1" data-original="#f6d867" class=""></path><path fill="#a1a1a1" d="M202.77 46.082c0 10.047-8.145 18.188-18.188 18.188s-18.187-8.141-18.187-18.188c0-10.043 8.144-18.187 18.187-18.187s18.188 8.144 18.188 18.187zm0 0" opacity="1" data-original="#279463" class=""></path><path fill="#4d4b4e" d="M281.914 375.586 245.32 412.18c-31.496 31.496-82.746 31.496-114.242 0-31.496-31.496-31.496-82.743 0-114.239l36.594-36.597c31.496-31.496 82.746-31.496 114.242 0 4.926 4.926 4.926 12.914 0 17.84-4.926 4.925-12.91 4.925-17.84 0-21.66-21.66-56.902-21.66-78.562 0l-36.598 36.593c-21.656 21.66-21.656 56.907 0 78.567 21.66 21.66 56.906 21.66 78.566 0l36.594-36.598c4.93-4.926 12.914-4.926 17.84 0 4.926 4.93 4.926 12.914 0 17.84zm0 0" opacity="1" data-original="#5994ce" class=""></path><path fill="#a1a1a1" d="M276.367 354.52a12.523 12.523 0 0 1-3.383 6.171l-36.593 36.598c-31.496 31.496-82.746 31.496-114.243 0a81.966 81.966 0 0 1-7.324-8.437 80.368 80.368 0 0 0 16.254 23.328c31.496 31.496 82.742 31.496 114.238 0l36.598-36.594c4.926-4.926 4.926-12.91 0-17.84a12.577 12.577 0 0 0-5.547-3.226zm0 0" opacity="1" data-original="#4c7eb0" class=""></path><path fill="#4d4b4e" d="m380.922 275.387-36.594 36.597c-31.496 31.496-82.746 31.496-114.242 0-4.926-4.925-4.926-12.914 0-17.84 4.926-4.925 12.91-4.925 17.84 0 21.66 21.66 56.902 21.66 78.562 0l36.598-36.593c21.656-21.66 21.656-56.906 0-78.567-21.66-21.66-56.906-21.66-78.566 0l-36.594 36.594c-4.93 4.93-12.914 4.93-17.84 0-4.926-4.926-4.926-12.91 0-17.836l36.594-36.594c31.496-31.496 82.746-31.496 114.242 0 31.496 31.497 31.496 82.743 0 114.239zm0 0" opacity="1" data-original="#5994ce" class=""></path><path fill="#a1a1a1" d="M380.922 161.148c-16.754-16.753-39.098-24.593-61.082-23.523a80.266 80.266 0 0 1 33.61 20.14c11.116 11.114 18.288 24.692 21.558 38.993 7.46 17.816 5.238 38.758-6.672 54.71a80.294 80.294 0 0 1-14.887 20.536l-36.594 36.598c-14.742 14.742-33.812 22.582-53.16 23.523 27.614 8.352 58.844 1.645 80.63-20.14l36.597-36.594c31.496-31.5 31.496-82.746 0-114.243zm0 0" opacity="1" data-original="#4c7eb0" class=""></path><path fill="#cab9da" d="M270.078 53.809h188.18a7.724 7.724 0 0 0 7.726-7.727 7.729 7.729 0 0 0-7.726-7.727h-188.18a7.726 7.726 0 1 0 0 15.453zm0 0" opacity="1" data-original="#495663" class=""></path></g></svg>
