<svg id="Layer_1" enable-background="new 0 0 461.306 461.306" height="512" viewBox="0 0 461.306 461.306" width="512" xmlns="http://www.w3.org/2000/svg"><g data-startx-scale="0.9025" transform="translate(230.653 230.653) scale(0.9025) translate(-230.653 -230.653)"><path fill="#000" fill-rule="evenodd" stroke="#000" stroke-width="42" stroke-linejoin="round" stroke-linecap="round" d="m269.042 24.586c-3.06-14.568-16.503-24.204-31.273-22.436-.1.013 6.026-.368-208.401 12.86-29.025 7.034-31.436 28.904-28.34 46.03l23.14 128.05c2.775 15.366 17.546 25.675 32.927 22.985 229.777-40.213 213.811-37.348 216.95-38.097-4.547-29.242 2.011-57.895 17.792-78.922-23.892-73.823-22.759-70.303-22.795-70.47zm-201.963 13.264 90.998-7.236c1.104-.072 2.065.734 2.152 1.836.087 1.101-.734 2.064-1.835 2.152-93.844 7.463-91.023 7.242-91.158 7.242-1.033 0-1.909-.794-1.992-1.842-.087-1.1.734-2.064 1.835-2.152zm2.73 25.236 42.992-6.091c6.264-.89 12.227 3.052 13.867 9.164l6.068 22.618c1.961 7.309-2.955 14.663-10.432 15.673l-44.66 6.025c-6.553.883-12.707-3.498-13.981-10.023l-4.4-22.554c-1.382-7.08 3.459-13.807 10.546-14.812zm182.228 101.225-178.312 31.205c-17.489 3.067-34.377-8.645-37.551-26.21l-18.713-103.547c-.196-1.087.525-2.127 1.613-2.323 1.086-.204 2.127.525 2.324 1.612l18.713 103.547c2.776 15.362 17.542 25.667 32.925 22.981l178.312-31.205c1.083-.196 2.125.536 2.315 1.625.19 1.088-.538 2.124-1.626 2.315zm-176.388.595 110.297-20.759c1.081-.202 2.131.511 2.335 1.596.205 1.086-.51 2.131-1.595 2.336-115.463 21.731-110.373 20.793-110.67 20.793-.943 0-1.782-.67-1.963-1.63-.203-1.086.511-2.131 1.596-2.336zm195.544-56.431c-203.83 32.871-194.914 31.449-195.176 31.449-.964 0-1.813-.699-1.972-1.682-.176-1.091.566-2.117 1.656-2.293l194.855-31.424c1.091-.179 2.117.565 2.293 1.656.176 1.092-.565 2.118-1.656 2.294z"/><path fill="#fff" d="m269.042 24.586c-3.06-14.568-16.503-24.204-31.273-22.436-.1.013 6.026-.368-208.401 12.86-29.025 7.034-31.436 28.904-28.34 46.03l23.14 128.05c2.775 15.366 17.546 25.675 32.927 22.985 229.777-40.213 213.811-37.348 216.95-38.097-4.547-29.242 2.011-57.895 17.792-78.922-23.892-73.823-22.759-70.303-22.795-70.47zm-201.963 13.264 90.998-7.236c1.104-.072 2.065.734 2.152 1.836.087 1.101-.734 2.064-1.835 2.152-93.844 7.463-91.023 7.242-91.158 7.242-1.033 0-1.909-.794-1.992-1.842-.087-1.1.734-2.064 1.835-2.152zm2.73 25.236 42.992-6.091c6.264-.89 12.227 3.052 13.867 9.164l6.068 22.618c1.961 7.309-2.955 14.663-10.432 15.673l-44.66 6.025c-6.553.883-12.707-3.498-13.981-10.023l-4.4-22.554c-1.382-7.08 3.459-13.807 10.546-14.812zm182.228 101.225-178.312 31.205c-17.489 3.067-34.377-8.645-37.551-26.21l-18.713-103.547c-.196-1.087.525-2.127 1.613-2.323 1.086-.204 2.127.525 2.324 1.612l18.713 103.547c2.776 15.362 17.542 25.667 32.925 22.981l178.312-31.205c1.083-.196 2.125.536 2.315 1.625.19 1.088-.538 2.124-1.626 2.315zm-176.388.595 110.297-20.759c1.081-.202 2.131.511 2.335 1.596.205 1.086-.51 2.131-1.595 2.336-115.463 21.731-110.373 20.793-110.67 20.793-.943 0-1.782-.67-1.963-1.63-.203-1.086.511-2.131 1.596-2.336zm195.544-56.431c-203.83 32.871-194.914 31.449-195.176 31.449-.964 0-1.813-.699-1.972-1.682-.176-1.091.566-2.117 1.656-2.293l194.855-31.424c1.091-.179 2.117.565 2.293 1.656.176 1.092-.565 2.118-1.656 2.294z"/><path fill="#000" fill-rule="evenodd" stroke="#000" stroke-width="42" stroke-linejoin="round" stroke-linecap="round" d="m399.925 101.119c-29.429-16.413-57.623-3.033-63.342 30.288-5.803 33.801 13.826 74.845 43.775 91.546 14.25 7.947 28.661 9.185 40.58 3.485 24.85-11.883 31.252-50.441 14.272-85.952-8.28-17.315-20.811-31.295-35.285-39.367z"/><path fill="#fff" d="m399.925 101.119c-29.429-16.413-57.623-3.033-63.342 30.288-5.803 33.801 13.826 74.845 43.775 91.546 14.25 7.947 28.661 9.185 40.58 3.485 24.85-11.883 31.252-50.441 14.272-85.952-8.28-17.315-20.811-31.295-35.285-39.367z"/><path fill="#000" fill-rule="evenodd" stroke="#000" stroke-width="42" stroke-linejoin="round" stroke-linecap="round" d="m67.589 99.687c.865 4.43 5.046 7.436 9.52 6.824l44.66-6.025c5.117-.69 8.433-5.718 7.104-10.671l-6.068-22.618c-1.121-4.179-5.2-6.847-9.442-6.24l-42.993 6.09c-4.855.687-8.117 5.291-7.181 10.086z"/><path fill="#fff" d="m67.589 99.687c.865 4.43 5.046 7.436 9.52 6.824l44.66-6.025c5.117-.69 8.433-5.718 7.104-10.671l-6.068-22.618c-1.121-4.179-5.2-6.847-9.442-6.24l-42.993 6.09c-4.855.687-8.117 5.291-7.181 10.086z"/><path fill="#000" fill-rule="evenodd" stroke="#000" stroke-width="42" stroke-linejoin="round" stroke-linecap="round" d="m383.648 382.893c-23.784-13.195-66.722-23.381-120.903-28.681-1.099-.107-1.903-1.086-1.796-2.185.107-1.1 1.091-1.898 2.186-1.796 53.821 5.264 96.766 15.374 121.238 28.509 3.969-3.425 18.382-16.89 15.238-29.239-6.32-24.828-76.498-26.952-102.134-27.28-1.104-.015-1.989-.921-1.975-2.025.014-1.096.907-1.975 2-1.975-2.145 0 31.152-.119 57.961 4.329 2.113-2.361 8.362-10.144 6.212-17.482-1.907-6.511-10.307-11.525-24.292-14.501-18.851-4.011-47.814-4.488-86.089-1.423-1.103.111-2.065-.732-2.153-1.833-.088-1.102.733-2.065 1.834-2.153 37.149-2.976 65.697-2.625 84.931 1.036-.146-1.94-.887-5.144-3.722-8.898-7.207-9.539-27.144-21.771-81.201-25.868-57.246-4.342-113.631-5.367-138.388 16.334-18.279 16.023-14.613 40.949-6.026 63.71.497 1.315-.485 2.707-1.871 2.707-.809 0-1.569-.494-1.872-1.295-5.096-13.506-7.545-25.544-7.298-35.822-17.601-2.516-68.95-9.722-95.373-14.009v98.702c26.156 3.773 87.988 11.84 90.054 12.039 24.21 1.709 39.008 4.462 39.155 4.49 1.085.205 1.799 1.25 1.595 2.336-.205 1.091-1.258 1.798-2.335 1.596-.139-.026-13.648-2.535-35.987-4.232 4.773 17.467 20.009 28.59 48.834 22.125 50.633-11.364 46.142 20.667 78.337 38.053 3.004 1.623 5.6 1.603 7.937-.061 7.079-5.042 10.234-23.608 7.182-42.268 0-.001-.001-.002-.001-.003-3.582-21.947-14.248-39.292-29.265-47.585-15.42-8.517-35.041-7.847-58.315 1.987-1.02.43-2.191-.046-2.621-1.063s.046-2.19 1.064-2.62c24.461-10.34 45.256-10.945 61.806-1.806 15.681 8.66 26.884 26.345 30.949 48.667 22.338-1.329 48.643.077 78.249 4.201 50.262 7.004 80.511-1.158 84.417-12.842 2.176-6.503-4.226-14.477-17.562-21.876z"/><path fill="#fff" d="m383.648 382.893c-23.784-13.195-66.722-23.381-120.903-28.681-1.099-.107-1.903-1.086-1.796-2.185.107-1.1 1.091-1.898 2.186-1.796 53.821 5.264 96.766 15.374 121.238 28.509 3.969-3.425 18.382-16.89 15.238-29.239-6.32-24.828-76.498-26.952-102.134-27.28-1.104-.015-1.989-.921-1.975-2.025.014-1.096.907-1.975 2-1.975-2.145 0 31.152-.119 57.961 4.329 2.113-2.361 8.362-10.144 6.212-17.482-1.907-6.511-10.307-11.525-24.292-14.501-18.851-4.011-47.814-4.488-86.089-1.423-1.103.111-2.065-.732-2.153-1.833-.088-1.102.733-2.065 1.834-2.153 37.149-2.976 65.697-2.625 84.931 1.036-.146-1.94-.887-5.144-3.722-8.898-7.207-9.539-27.144-21.771-81.201-25.868-57.246-4.342-113.631-5.367-138.388 16.334-18.279 16.023-14.613 40.949-6.026 63.71.497 1.315-.485 2.707-1.871 2.707-.809 0-1.569-.494-1.872-1.295-5.096-13.506-7.545-25.544-7.298-35.822-17.601-2.516-68.95-9.722-95.373-14.009v98.702c26.156 3.773 87.988 11.84 90.054 12.039 24.21 1.709 39.008 4.462 39.155 4.49 1.085.205 1.799 1.25 1.595 2.336-.205 1.091-1.258 1.798-2.335 1.596-.139-.026-13.648-2.535-35.987-4.232 4.773 17.467 20.009 28.59 48.834 22.125 50.633-11.364 46.142 20.667 78.337 38.053 3.004 1.623 5.6 1.603 7.937-.061 7.079-5.042 10.234-23.608 7.182-42.268 0-.001-.001-.002-.001-.003-3.582-21.947-14.248-39.292-29.265-47.585-15.42-8.517-35.041-7.847-58.315 1.987-1.02.43-2.191-.046-2.621-1.063s.046-2.19 1.064-2.62c24.461-10.34 45.256-10.945 61.806-1.806 15.681 8.66 26.884 26.345 30.949 48.667 22.338-1.329 48.643.077 78.249 4.201 50.262 7.004 80.511-1.158 84.417-12.842 2.176-6.503-4.226-14.477-17.562-21.876z"/><path fill="#000" fill-rule="evenodd" stroke="#000" stroke-width="42" stroke-linejoin="round" stroke-linecap="round" d="m393.705 74.273c-22.654-10.07-47.648-11.141-70.019-.441-44.38 21.222-60.189 80.936-35.24 133.112 18.941 39.609 56.018 63.662 92.191 63.666 34.909.003 66.596-22.678 77.157-62.309 6.711-25.186 3.737-53.005-8.374-78.332v-.001c-12.111-25.328-31.897-45.107-55.715-55.695zm-30.322 176.1c-.567.944-1.795 1.254-2.744.685-39.427-23.687-66.295-74.858-63.479-122.438.065-1.103 1.018-1.947 2.115-1.878 1.103.064 1.944 1.012 1.878 2.114-2.721 45.974 23.291 95.792 61.545 118.772.947.57 1.254 1.798.685 2.745zm59.28-20.325c-14.222 6.801-30.201 4.236-44.253-3.601-31.435-17.531-51.858-60.251-45.77-95.717 6.18-36 37.329-50.896 69.233-33.105 15.191 8.472 28.312 23.08 36.945 41.135 17.933 37.502 10.686 78.453-16.155 91.288z"/><path fill="#fff" d="m393.705 74.273c-22.654-10.07-47.648-11.141-70.019-.441-44.38 21.222-60.189 80.936-35.24 133.112 18.941 39.609 56.018 63.662 92.191 63.666 34.909.003 66.596-22.678 77.157-62.309 6.711-25.186 3.737-53.005-8.374-78.332v-.001c-12.111-25.328-31.897-45.107-55.715-55.695zm-30.322 176.1c-.567.944-1.795 1.254-2.744.685-39.427-23.687-66.295-74.858-63.479-122.438.065-1.103 1.018-1.947 2.115-1.878 1.103.064 1.944 1.012 1.878 2.114-2.721 45.974 23.291 95.792 61.545 118.772.947.57 1.254 1.798.685 2.745zm59.28-20.325c-14.222 6.801-30.201 4.236-44.253-3.601-31.435-17.531-51.858-60.251-45.77-95.717 6.18-36 37.329-50.896 69.233-33.105 15.191 8.472 28.312 23.08 36.945 41.135 17.933 37.502 10.686 78.453-16.155 91.288z"/></g></svg>