<svg id="Layer_1" enable-background="new 0 0 460 460" height="512" viewBox="0 0 460 460" width="512" xmlns="http://www.w3.org/2000/svg"><g data-startx-scale="0.9025" transform="translate(230 230) scale(0.9025) translate(-230 -230)"><path fill="#000" fill-rule="evenodd" stroke="#000" stroke-width="42" stroke-linejoin="round" stroke-linecap="round" d="m202.036 285.613c-5.029 41.599-20.526 82.298-53.354 108.364-.368.292-.807.434-1.242.434-1.887 0-2.727-2.39-1.245-3.566 11.174-8.872 20.773-19.948 28.586-32.954-37.368 5.557-62.182 17.181-62.182 29.34v39.98c0 15.835 44.643 32.79 111.1 32.79 66.451 0 111.09-16.955 111.09-32.79v-39.98c0-11.517-23.009-22.848-57.697-28.641 7.468 12.055 16.544 21.822 27.033 29.054 1.618 1.116.811 3.646-1.138 3.646-.392 0-.787-.114-1.134-.354-33.195-22.889-47.232-65.557-52.037-105.717-15.71 4.798-31.967 4.958-47.78.394zm100.375 124.512c1.057-.317 2.174.277 2.493 1.335.32 1.057-.277 2.174-1.335 2.494-46.879 14.179-122.341 13.218-165.478-1.865-1.042-.364-1.592-1.505-1.228-2.548.365-1.042 1.501-1.593 2.548-1.228 42.026 14.694 116.625 15.84 163 1.812z"/><path fill="#fff" d="m202.036 285.613c-5.029 41.599-20.526 82.298-53.354 108.364-.368.292-.807.434-1.242.434-1.887 0-2.727-2.39-1.245-3.566 11.174-8.872 20.773-19.948 28.586-32.954-37.368 5.557-62.182 17.181-62.182 29.34v39.98c0 15.835 44.643 32.79 111.1 32.79 66.451 0 111.09-16.955 111.09-32.79v-39.98c0-11.517-23.009-22.848-57.697-28.641 7.468 12.055 16.544 21.822 27.033 29.054 1.618 1.116.811 3.646-1.138 3.646-.392 0-.787-.114-1.134-.354-33.195-22.889-47.232-65.557-52.037-105.717-15.71 4.798-31.967 4.958-47.78.394zm100.375 124.512c1.057-.317 2.174.277 2.493 1.335.32 1.057-.277 2.174-1.335 2.494-46.879 14.179-122.341 13.218-165.478-1.865-1.042-.364-1.592-1.505-1.228-2.548.365-1.042 1.501-1.593 2.548-1.228 42.026 14.694 116.625 15.84 163 1.812z"/><path fill="#000" fill-rule="evenodd" stroke="#000" stroke-width="42" stroke-linejoin="round" stroke-linecap="round" d="m363.619 36.66c0-17.705-55.612-36.66-138.4-36.66-82.782 0-138.39 18.956-138.39 36.66 0 11.2.426 22.413 1.249 33.359 13.247 7.426 22.925 14.884 23.812 15.575.872.678 1.028 1.935.35 2.807-.678.871-1.935 1.028-2.807.35-.481-.374-48.461-37.339-78.052-28.881-8.849 2.53-15.259 9.039-19.051 19.346-19.091 51.884 60.215 141.823 105.763 162.294 1.191.536 1.559 2.055.741 3.075-.714.895-17.352 22.229-2.443 44.432 13.356 19.891 72.991 14.219 55.366-42.686-2.931-9.464-10.395-16.842-19.965-19.736-9.696-3.112-18.359-6.712-26.137-10.661-.254-.066-.486-.196-.699-.358-37.931-19.496-54.095-47.495-60.898-69.378-7.243-23.299-5.523-43.469-4.515-50.754-11.251 2.527-17.75 11.192-19.814 26.418-.148 1.088-1.148 1.86-2.251 1.713-1.094-.148-1.861-1.156-1.713-2.251 2.467-18.184 11.195-28.389 25.942-30.332h.001c8.504-1.123 18.198.729 27.664 3.914.148.034.292.081.426.147 9.21 3.14 18.184 7.517 25.608 11.624.967.534 1.317 1.751.782 2.718-.534.967-1.75 1.319-2.718.782-6.479-3.583-14.161-7.381-22.083-10.324 6.232 42.523 18.726 81.41 36.249 112.677 7.776 3.894 16.219 7.317 25.346 10.247 10.812 3.27 19.271 11.637 22.596 22.372 3.138 10.131 3.913 18.497 3.216 25.392 7.209 4.625 14.59 8.155 22.101 10.554.047.014.093.03.138.047 29.076 9.232 57.224 1.089 80.804-17.95.013-.01.026-.021.04-.031 48.143-38.908 81.742-125.796 81.742-226.501zm-249.97 25.592c-1.041-.369-1.586-1.512-1.217-2.553s1.511-1.585 2.553-1.217c54.519 19.311 158.058 19.605 214.984 1.824 1.055-.328 2.177.258 2.506 1.313.329 1.054-.259 2.176-1.313 2.505-57.949 18.099-162.349 17.667-217.513-1.872z"/><path fill="#fff" d="m363.619 36.66c0-17.705-55.612-36.66-138.4-36.66-82.782 0-138.39 18.956-138.39 36.66 0 11.2.426 22.413 1.249 33.359 13.247 7.426 22.925 14.884 23.812 15.575.872.678 1.028 1.935.35 2.807-.678.871-1.935 1.028-2.807.35-.481-.374-48.461-37.339-78.052-28.881-8.849 2.53-15.259 9.039-19.051 19.346-19.091 51.884 60.215 141.823 105.763 162.294 1.191.536 1.559 2.055.741 3.075-.714.895-17.352 22.229-2.443 44.432 13.356 19.891 72.991 14.219 55.366-42.686-2.931-9.464-10.395-16.842-19.965-19.736-9.696-3.112-18.359-6.712-26.137-10.661-.254-.066-.486-.196-.699-.358-37.931-19.496-54.095-47.495-60.898-69.378-7.243-23.299-5.523-43.469-4.515-50.754-11.251 2.527-17.75 11.192-19.814 26.418-.148 1.088-1.148 1.86-2.251 1.713-1.094-.148-1.861-1.156-1.713-2.251 2.467-18.184 11.195-28.389 25.942-30.332h.001c8.504-1.123 18.198.729 27.664 3.914.148.034.292.081.426.147 9.21 3.14 18.184 7.517 25.608 11.624.967.534 1.317 1.751.782 2.718-.534.967-1.75 1.319-2.718.782-6.479-3.583-14.161-7.381-22.083-10.324 6.232 42.523 18.726 81.41 36.249 112.677 7.776 3.894 16.219 7.317 25.346 10.247 10.812 3.27 19.271 11.637 22.596 22.372 3.138 10.131 3.913 18.497 3.216 25.392 7.209 4.625 14.59 8.155 22.101 10.554.047.014.093.03.138.047 29.076 9.232 57.224 1.089 80.804-17.95.013-.01.026-.021.04-.031 48.143-38.908 81.742-125.796 81.742-226.501zm-249.97 25.592c-1.041-.369-1.586-1.512-1.217-2.553s1.511-1.585 2.553-1.217c54.519 19.311 158.058 19.605 214.984 1.824 1.055-.328 2.177.258 2.506 1.313.329 1.054-.259 2.176-1.313 2.505-57.949 18.099-162.349 17.667-217.513-1.872z"/><path fill="#000" fill-rule="evenodd" stroke="#000" stroke-width="42" stroke-linejoin="round" stroke-linecap="round" d="m429.988 57.092c-19.584-6.692-48.148 8.097-63.997 17.926-.551 6.45-1.244 12.837-2.069 19.154 30.993-12.473 55.819-9.17 60.311 23.947.148 1.095-.618 2.103-1.713 2.251-1.096.147-2.102-.619-2.25-1.713-2.066-15.226-8.564-23.891-19.817-26.418.943 6.81 2.511 24.933-3.248 46.383-6.604 24.597-24.553 58.149-72.482 78.625-11.725 20.299-25.094 36.585-39.581 48.472 2.644 35.327 47.073 37.063 58.466 20.098 14.91-22.205-1.726-43.539-2.441-44.436-.818-1.027-.441-2.541.742-3.073 45.547-20.477 124.851-110.418 105.763-162.298-3.597-9.774-9.547-16.139-17.684-18.918z"/><path fill="#fff" d="m429.988 57.092c-19.584-6.692-48.148 8.097-63.997 17.926-.551 6.45-1.244 12.837-2.069 19.154 30.993-12.473 55.819-9.17 60.311 23.947.148 1.095-.618 2.103-1.713 2.251-1.096.147-2.102-.619-2.25-1.713-2.066-15.226-8.564-23.891-19.817-26.418.943 6.81 2.511 24.933-3.248 46.383-6.604 24.597-24.553 58.149-72.482 78.625-11.725 20.299-25.094 36.585-39.581 48.472 2.644 35.327 47.073 37.063 58.466 20.098 14.91-22.205-1.726-43.539-2.441-44.436-.818-1.027-.441-2.541.742-3.073 45.547-20.477 124.851-110.418 105.763-162.298-3.597-9.774-9.547-16.139-17.684-18.918z"/></g></svg>