<svg id="Layer_1" enable-background="new 0 0 459.223 459.223" height="512" viewBox="0 0 459.223 459.223" width="512" xmlns="http://www.w3.org/2000/svg"><g data-startx-scale="0.9025" transform="translate(229.6115 229.6115) scale(0.9025) translate(-229.6115 -229.6115)"><path fill="#000" fill-rule="evenodd" stroke="#000" stroke-width="42" stroke-linejoin="round" stroke-linecap="round" d="m181.569 373.241c-20.699 1.01-40.425-1.581-58.687-7.709l-24.912 38.301 37.237 49.727 21.897-36.418-19.554-28.167c-.63-.908-.405-2.154.502-2.784.908-.63 2.154-.404 2.784.502l19.909 28.679c8.685 2.952 17.828 5.098 27.254 6.399-2.389-3.024-2.378-2.959-2.535-3.372-.241-.629.015 1.207-3.895-45.158z"/><path fill="#fff" d="m181.569 373.241c-20.699 1.01-40.425-1.581-58.687-7.709l-24.912 38.301 37.237 49.727 21.897-36.418-19.554-28.167c-.63-.908-.405-2.154.502-2.784.908-.63 2.154-.404 2.784.502l19.909 28.679c8.685 2.952 17.828 5.098 27.254 6.399-2.389-3.024-2.378-2.959-2.535-3.372-.241-.629.015 1.207-3.895-45.158z"/><path fill="#000" fill-rule="evenodd" stroke="#000" stroke-width="42" stroke-linejoin="round" stroke-linecap="round" d="m184.949 166.349c39.379-33.166 90.394-42.329 128.641-23.597-21.608-62.29-103.582-75.621-165.4-23.538-60.528 50.982-67.189 137.277-11.792 172.813-9.9-42.61 9.177-92.502 48.551-125.678z"/><path fill="#fff" d="m184.949 166.349c39.379-33.166 90.394-42.329 128.641-23.597-21.608-62.29-103.582-75.621-165.4-23.538-60.528 50.982-67.189 137.277-11.792 172.813-9.9-42.61 9.177-92.502 48.551-125.678z"/><path fill="#000" fill-rule="evenodd" stroke="#000" stroke-width="42" stroke-linejoin="round" stroke-linecap="round" d="m367.572 86.621 3.473-1.313 11.532-21.73-36.619-40.097-13.088 23.954c14.111 10.609 25.896 24.011 34.702 39.186z"/><path fill="#fff" d="m367.572 86.621 3.473-1.313 11.532-21.73-36.619-40.097-13.088 23.954c14.111 10.609 25.896 24.011 34.702 39.186z"/><path fill="#000" fill-rule="evenodd" stroke="#000" stroke-width="42" stroke-linejoin="round" stroke-linecap="round" d="m458.404 188.691-16.045-67.168-34.837-38.89 17.145 66.108z"/><path fill="#fff" d="m458.404 188.691-16.045-67.168-34.837-38.89 17.145 66.108z"/><path fill="#000" fill-rule="evenodd" stroke="#000" stroke-width="42" stroke-linejoin="round" stroke-linecap="round" d="m44.935 367.916 26.128 48.339 56.626 33.937-33.592-44.857z"/><path fill="#fff" d="m44.935 367.916 26.128 48.339 56.626 33.937-33.592-44.857z"/><path fill="#000" fill-rule="evenodd" stroke="#000" stroke-width="42" stroke-linejoin="round" stroke-linecap="round" d="m59.802 321.297c-10.34-13.266-18.051-28.297-22.976-44.752l-35.233 13.647 33.753 41.415 20.489-3.619z"/><path fill="#fff" d="m59.802 321.297c-10.34-13.266-18.051-28.297-22.976-44.752l-35.233 13.647 33.753 41.415 20.489-3.619z"/><path fill="#000" fill-rule="evenodd" stroke="#000" stroke-width="42" stroke-linejoin="round" stroke-linecap="round" d="m359.419 324.304c1.393 1.948 32.997 45.99 34.198 47.665l46.199-85.628-30.733-42.875z"/><path fill="#fff" d="m359.419 324.304c1.393 1.948 32.997 45.99 34.198 47.665l46.199-85.628-30.733-42.875z"/><path fill="#000" fill-rule="evenodd" stroke="#000" stroke-width="42" stroke-linejoin="round" stroke-linecap="round" d="m386.693 162.729c-.216 19.795-3.834 39.914-10.765 59.858 36.353 16.585 34.206 15.478 34.652 16.101l6.123 8.543c2.264-12.005 3.297-23.971 3.075-35.645l-19.988-26.78c-.661-.885-.479-2.138.407-2.799.885-.659 2.138-.479 2.799.407l19.538 26.177 36.384-13.09-36.754-43.522z"/><path fill="#fff" d="m386.693 162.729c-.216 19.795-3.834 39.914-10.765 59.858 36.353 16.585 34.206 15.478 34.652 16.101l6.123 8.543c2.264-12.005 3.297-23.971 3.075-35.645l-19.988-26.78c-.661-.885-.479-2.138.407-2.799.885-.659 2.138-.479 2.799.407l19.538 26.177 36.384-13.09-36.754-43.522z"/><path fill="#000" fill-rule="evenodd" stroke="#000" stroke-width="42" stroke-linejoin="round" stroke-linecap="round" d="m321.067 308.586c-16.038 15.864-33.741 29.021-52.517 39.307l5.833 43.933 30.412 38.019-3.141-28.554-15.136-21.889c-.628-.909-.401-2.154.507-2.783.91-.628 2.155-.4 2.783.507l14.391 20.812c19.29-10.63 37.649-24.451 54.116-41.376l-14.331-17.979c-.689-.863-.547-2.122.316-2.811s2.122-.547 2.811.316l15.208 19.079 24.494 14.178-31.13-43.392z"/><path fill="#fff" d="m321.067 308.586c-16.038 15.864-33.741 29.021-52.517 39.307l5.833 43.933 30.412 38.019-3.141-28.554-15.136-21.889c-.628-.909-.401-2.154.507-2.783.91-.628 2.155-.4 2.783.507l14.391 20.812c19.29-10.63 37.649-24.451 54.116-41.376l-14.331-17.979c-.689-.863-.547-2.122.316-2.811s2.122-.547 2.811.316l15.208 19.079 24.494 14.178-31.13-43.392z"/><path fill="#000" fill-rule="evenodd" stroke="#000" stroke-width="42" stroke-linejoin="round" stroke-linecap="round" d="m190.729 418.772 31.956 40.451 81.425-23.83-32.36-40.454z"/><path fill="#fff" d="m190.729 418.772 31.956 40.451 81.425-23.83-32.36-40.454z"/><path fill="#000" fill-rule="evenodd" stroke="#000" stroke-width="42" stroke-linejoin="round" stroke-linecap="round" d="m264.404 347.057c-.109-.824.301-1.629 1.032-2.023 18.831-10.165 37.065-23.526 53.826-40.294.609-.61 1.54-.761 2.312-.374l34.703 17.411 49.79-81.043-33.463-15.267c-.945-.431-1.403-1.514-1.053-2.492 7.352-20.578 11.104-41.35 11.152-61.737.002-.879.579-1.654 1.42-1.909l36.304-11.002-18.283-70.5-34.755 13.139c-.921.35-1.963-.028-2.449-.89-8.807-15.64-20.956-29.578-35.84-40.457-.81-.592-1.056-1.693-.575-2.574l14.175-25.942-54.274-21.103-14.679 24.741c-.425.715-1.244 1.09-2.064.95-18.186-3.172-37.314-3.128-56.855.128-1.212.206-2.329-.734-2.329-1.973v-18.609l-61.221 18.81v22.792c0 .73-.397 1.401-1.037 1.753-16.496 9.062-32.255 20.44-46.89 34.206-.591.556-1.459.7-2.197.365l-27.258-12.366-43.529 64.139 24.001 9.12c1.105.42 1.607 1.705 1.079 2.763-9.465 18.96-15.823 38.618-18.896 58.425-.116.746-.642 1.363-1.36 1.596l-34.887 11.299v68.263l37.111-14.375c1.11-.427 2.329.196 2.646 1.321 4.856 17.173 12.72 32.677 23.737 46.527.517.649.578 1.551.155 2.265l-22.559 38.054 53.635 40.823 25.35-38.972c.501-.771 1.464-1.102 2.333-.798 18.746 6.517 39.124 9.175 60.569 7.896 1.078-.066 2.02.744 2.112 1.829l3.719 44.108 81.155-23.873zm-78.509-37.199c-28.192 0-54.864-10.92-72.461-33.378-34.673-44.253-20.237-116.175 32.179-160.326 65.411-55.11 153.441-39.105 173.282 30.063 13.428 46.811-9.589 98.648-47.332 130.446-25.836 21.761-56.694 33.195-85.668 33.195z"/><path fill="#fff" d="m264.404 347.057c-.109-.824.301-1.629 1.032-2.023 18.831-10.165 37.065-23.526 53.826-40.294.609-.61 1.54-.761 2.312-.374l34.703 17.411 49.79-81.043-33.463-15.267c-.945-.431-1.403-1.514-1.053-2.492 7.352-20.578 11.104-41.35 11.152-61.737.002-.879.579-1.654 1.42-1.909l36.304-11.002-18.283-70.5-34.755 13.139c-.921.35-1.963-.028-2.449-.89-8.807-15.64-20.956-29.578-35.84-40.457-.81-.592-1.056-1.693-.575-2.574l14.175-25.942-54.274-21.103-14.679 24.741c-.425.715-1.244 1.09-2.064.95-18.186-3.172-37.314-3.128-56.855.128-1.212.206-2.329-.734-2.329-1.973v-18.609l-61.221 18.81v22.792c0 .73-.397 1.401-1.037 1.753-16.496 9.062-32.255 20.44-46.89 34.206-.591.556-1.459.7-2.197.365l-27.258-12.366-43.529 64.139 24.001 9.12c1.105.42 1.607 1.705 1.079 2.763-9.465 18.96-15.823 38.618-18.896 58.425-.116.746-.642 1.363-1.36 1.596l-34.887 11.299v68.263l37.111-14.375c1.11-.427 2.329.196 2.646 1.321 4.856 17.173 12.72 32.677 23.737 46.527.517.649.578 1.551.155 2.265l-22.559 38.054 53.635 40.823 25.35-38.972c.501-.771 1.464-1.102 2.333-.798 18.746 6.517 39.124 9.175 60.569 7.896 1.078-.066 2.02.744 2.112 1.829l3.719 44.108 81.155-23.873zm-78.509-37.199c-28.192 0-54.864-10.92-72.461-33.378-34.673-44.253-20.237-116.175 32.179-160.326 65.411-55.11 153.441-39.105 173.282 30.063 13.428 46.811-9.589 98.648-47.332 130.446-25.836 21.761-56.694 33.195-85.668 33.195z"/></g></svg>