<svg xmlns="http://www.w3.org/2000/svg" version="1.1" xmlns:xlink="http://www.w3.org/1999/xlink" width="512" height="512" x="0" y="0" viewBox="0 0 512 512" style="enable-background:new 0 0 512 512" xml:space="preserve" class=""><g><path fill="#e0d3cf" d="M465.64 112.7v57.9H39.26c-10.84 0-20.66-4.39-27.76-11.5C4.4 152 0 142.19 0 131.35c0-21.68 17.58-39.26 39.26-39.26h405.78c11.38 0 20.6 9.23 20.6 20.61z" opacity="1" data-original="#e5c7be" class=""></path><ellipse cx="256" cy="113.614" fill="#d4ac23" rx="115.023" ry="113.614" opacity="1" data-original="#ffe179" class=""></ellipse><path fill="#c18f0f" d="M256 0c-5.241 0-10.398.353-15.453 1.024 56.217 7.457 99.57 55.02 99.57 112.591 0 57.57-43.353 102.686-99.57 112.29A91.619 91.619 0 0 0 256 227.229c63.526 0 115.023-50.867 115.023-113.614C371.023 50.867 319.526 0 256 0z" opacity="1" data-original="#fbd268" class=""></path><path fill="#ffffff" d="M269.369 105.887h-5.642V61.916h5.643c6.797 0 12.327 6.531 12.327 14.558a7.726 7.726 0 1 0 15.452 0c0-16.548-12.462-30.011-27.78-30.011h-5.643v-9.145a7.726 7.726 0 1 0-15.452 0v9.145h-5.643c-15.318 0-27.78 13.463-27.78 30.011V91.33c0 7.864 2.79 15.296 7.857 20.926 5.272 5.858 12.348 9.085 19.924 9.084h5.642v43.972h-5.643c-6.797 0-12.327-6.531-12.327-14.558a7.726 7.726 0 1 0-15.452 0c0 16.548 12.462 30.011 27.78 30.011h5.643v9.145a7.726 7.726 0 1 0 15.452 0v-9.145h5.643c15.318 0 27.78-13.463 27.78-30.011v-14.857c0-7.864-2.79-15.296-7.857-20.926-5.273-5.858-12.349-9.085-19.924-9.084zm-26.738 0c-3.137 0-6.134-1.409-8.437-3.969-2.509-2.788-3.891-6.548-3.891-10.589V76.474c0-8.027 5.53-14.558 12.327-14.558h5.643v43.971zm39.066 44.867c0 8.027-5.53 14.558-12.327 14.558h-5.643V121.34h5.643c3.137 0 6.133 1.409 8.437 3.969 2.509 2.788 3.891 6.548 3.891 10.589v14.856z" opacity="1" data-original="#ffffff" class=""></path><path fill="#d9b3a6" d="M445.038 92.093h-30.905c11.379 0 20.604 9.224 20.604 20.604v57.906h30.905v-57.906c0-11.38-9.225-20.604-20.604-20.604z" opacity="1" data-original="#d9b3a6" class=""></path><path fill="#6c6ba5" d="M512 191.21v289.88c0 17.07-13.84 30.91-30.91 30.91H30.91C13.84 512 0 498.16 0 481.09V131.35C0 142.19 4.4 152 11.5 159.1c7.1 7.11 16.92 11.5 27.76 11.5H491.4c11.38 0 20.6 9.23 20.6 20.61z" opacity="1" data-original="#d1a08f" class=""></path><path fill="#c68d7a" d="M491.396 170.603H460.49c11.379 0 20.604 9.225 20.604 20.604v289.888c0 17.068-13.837 30.905-30.905 30.905h30.905C498.163 512 512 498.163 512 481.095V191.207c0-11.379-9.225-20.604-20.604-20.604z" opacity="1" data-original="#c68d7a" class=""></path><path fill="#e0d3cf" d="M512 395.386h-91.843c-29.87 0-54.084-24.214-54.084-54.084s24.214-54.084 54.084-54.084H512z" opacity="1" data-original="#e5c7be" class=""></path><path fill="#d9b3a6" d="M481.095 287.217H512v108.169h-30.905z" opacity="1" data-original="#d9b3a6" class=""></path><circle cx="420.157" cy="341.302" r="23.179" fill="#c18f0f" opacity="1" data-original="#3d6d93" class=""></circle></g></svg>