<svg id="Layer_1" enable-background="new 0 0 459.909 459.909" height="512" viewBox="0 0 459.909 459.909" width="512" xmlns="http://www.w3.org/2000/svg"><g data-startx-scale="0.9025" transform="translate(229.9545 229.9545) scale(0.9025) translate(-229.9545 -229.9545)"><path fill="#000" fill-rule="evenodd" stroke="#000" stroke-width="42" stroke-linejoin="round" stroke-linecap="round" d="m33.689 132.06c-8.971 24.762-42.967 129.719-31.266 268.681.21 2.508 1.528 4.796 3.615 6.277 8.072 5.73 26.829 14.775 61.776 10.982.077-.008.153-.007.229-.014-5-16.602-30.449-107.643-20.278-208.765.11-1.099 1.086-1.897 2.19-1.79 1.099.11 1.9 1.091 1.79 2.19-10.481 104.216 17.152 197.639 20.586 208.709 1.715.438 3.329 1.227 4.736 2.363 6.427 5.206 23.993 18.464 48.299 29.156 3.539 1.564 7.53 2.407 11.764 2.347-15.788-46.692-45.196-163.437-49.23-289.643z"/><path fill="#fff" d="m33.689 132.06c-8.971 24.762-42.967 129.719-31.266 268.681.21 2.508 1.528 4.796 3.615 6.277 8.072 5.73 26.829 14.775 61.776 10.982.077-.008.153-.007.229-.014-5-16.602-30.449-107.643-20.278-208.765.11-1.099 1.086-1.897 2.19-1.79 1.099.11 1.9 1.091 1.79 2.19-10.481 104.216 17.152 197.639 20.586 208.709 1.715.438 3.329 1.227 4.736 2.363 6.427 5.206 23.993 18.464 48.299 29.156 3.539 1.564 7.53 2.407 11.764 2.347-15.788-46.692-45.196-163.437-49.23-289.643z"/><path fill="#000" fill-rule="evenodd" stroke="#000" stroke-width="42" stroke-linejoin="round" stroke-linecap="round" d="m345.217 245.475c9.53 28.86 2.426 52.16 2.326 52.476-.108.342-.307.647-.574.886-19.8 17.694-43.435 21.048-58.505 21.048-9.075 0-15.044-1.216-15.201-1.25-.477-.102-.9-.374-1.19-.766-10.193-13.77-15.391-28.114-17.85-40.932-52.598 12.01-109.398 11.252-142.203-31.336-.674-.875-.511-2.131.364-2.805s2.131-.511 2.805.364c26.745 34.722 73.294 44.746 138.351 29.836-3.306-21.558.876-37.899.947-38.166.105-.395.329-.748.641-1.012 35.827-30.319 69.587-22.107 71.006-21.743.417.107.789.346 1.06.682 7.868 9.756 13.175 19.588 16.687 28.932 43.567-19.742 94.958-51.185 108.478-97.227 9.542-32.495-4.047-58.875-10.625-69.07l-52.474-32.411c-1.833-1.093-4.021-1.46-6.132-1.024-4.963 1.019-31.2 6.426-68.013 14.419 2.34 10.8 2.627 22.033 2.268 23.263-.185.626-4.825 15.267-32.383 9.643-.934-.19-1.604-1.015-1.6-1.968.001-.178-.034-11.624-4.006-23.085-25.829 5.749-51.137 11.544-75.276 17.239-4.041 13.017-4.421 24.19-4.427 24.44-.011.445-.171.875-.453 1.219-.095.116-7.552 8.961-20.891 8.961-3.894 0-8.287-.753-13.147-2.697-.627-.25-1.085-.801-1.218-1.462-.147-.732-1.717-8.876-1.574-20.43-50.471 12.414-91.659 23.575-122.439 33.181-2 .628-3.649 1.934-4.719 3.669l54.998 30.935c15.479-2.662 183.189-48.967 303.105-76.516 1.077-.248 2.149.425 2.397 1.501s-.425 2.15-1.501 2.397c-117.579 27.012-281.654 72.205-302.331 76.369 4.123 126.372 33.711 243.055 49.321 288.811 88.193-10.569 170.149-38.99 223.502-61.049 52.797-21.828 88.69-41.86 95.171-45.55-3.052-58.011-10.761-113.143-22.898-163.981-18.948 23.651-49.65 45.148-91.797 64.209z"/><path fill="#fff" d="m345.217 245.475c9.53 28.86 2.426 52.16 2.326 52.476-.108.342-.307.647-.574.886-19.8 17.694-43.435 21.048-58.505 21.048-9.075 0-15.044-1.216-15.201-1.25-.477-.102-.9-.374-1.19-.766-10.193-13.77-15.391-28.114-17.85-40.932-52.598 12.01-109.398 11.252-142.203-31.336-.674-.875-.511-2.131.364-2.805s2.131-.511 2.805.364c26.745 34.722 73.294 44.746 138.351 29.836-3.306-21.558.876-37.899.947-38.166.105-.395.329-.748.641-1.012 35.827-30.319 69.587-22.107 71.006-21.743.417.107.789.346 1.06.682 7.868 9.756 13.175 19.588 16.687 28.932 43.567-19.742 94.958-51.185 108.478-97.227 9.542-32.495-4.047-58.875-10.625-69.07l-52.474-32.411c-1.833-1.093-4.021-1.46-6.132-1.024-4.963 1.019-31.2 6.426-68.013 14.419 2.34 10.8 2.627 22.033 2.268 23.263-.185.626-4.825 15.267-32.383 9.643-.934-.19-1.604-1.015-1.6-1.968.001-.178-.034-11.624-4.006-23.085-25.829 5.749-51.137 11.544-75.276 17.239-4.041 13.017-4.421 24.19-4.427 24.44-.011.445-.171.875-.453 1.219-.095.116-7.552 8.961-20.891 8.961-3.894 0-8.287-.753-13.147-2.697-.627-.25-1.085-.801-1.218-1.462-.147-.732-1.717-8.876-1.574-20.43-50.471 12.414-91.659 23.575-122.439 33.181-2 .628-3.649 1.934-4.719 3.669l54.998 30.935c15.479-2.662 183.189-48.967 303.105-76.516 1.077-.248 2.149.425 2.397 1.501s-.425 2.15-1.501 2.397c-117.579 27.012-281.654 72.205-302.331 76.369 4.123 126.372 33.711 243.055 49.321 288.811 88.193-10.569 170.149-38.99 223.502-61.049 52.797-21.828 88.69-41.86 95.171-45.55-3.052-58.011-10.761-113.143-22.898-163.981-18.948 23.651-49.65 45.148-91.797 64.209z"/><path fill="#000" fill-rule="evenodd" stroke="#000" stroke-width="42" stroke-linejoin="round" stroke-linecap="round" d="m195.719 105.049c.156-3.228 1.081-16.042 6.215-29.834 7.799-20.955 21.658-33.889 40.077-37.402 11.657-2.225 21.391-.174 28.93 6.093 14.349 11.927 16.191 35.272 16.424 41.757 20.856 3.775 25.466-5.354 26.104-6.956.055-3.613-.012-39.319-22.502-58.55-13.589-11.621-32.791-15.127-57.07-10.423-24.184 4.686-42.201 15.649-53.551 32.585-18.128 27.049-13.677 61.312-12.632 67.752 16.102 5.914 25.907-2.858 28.005-5.022z"/><path fill="#fff" d="m195.719 105.049c.156-3.228 1.081-16.042 6.215-29.834 7.799-20.955 21.658-33.889 40.077-37.402 11.657-2.225 21.391-.174 28.93 6.093 14.349 11.927 16.191 35.272 16.424 41.757 20.856 3.775 25.466-5.354 26.104-6.956.055-3.613-.012-39.319-22.502-58.55-13.589-11.621-32.791-15.127-57.07-10.423-24.184 4.686-42.201 15.649-53.551 32.585-18.128 27.049-13.677 61.312-12.632 67.752 16.102 5.914 25.907-2.858 28.005-5.022z"/><path fill="#000" fill-rule="evenodd" stroke="#000" stroke-width="42" stroke-linejoin="round" stroke-linecap="round" d="m258.212 236.452c-1.183 5.21-8.719 43.603 16.612 78.405 5.52.949 41.194 5.893 69.051-18.622 1.314-4.823 10.4-43.041-19.356-80.419-4.672-.931-34.898-5.626-66.307 20.636zm38.122 62.357c-.806.751-2.072.71-2.827-.1-27.894-29.935-15.177-61.162-15.045-61.474.43-1.018 1.603-1.494 2.62-1.064 1.017.429 1.493 1.6 1.066 2.617-.494 1.18-11.788 29.214 14.286 57.195.753.807.708 2.072-.1 2.826z"/><path fill="#fff" d="m258.212 236.452c-1.183 5.21-8.719 43.603 16.612 78.405 5.52.949 41.194 5.893 69.051-18.622 1.314-4.823 10.4-43.041-19.356-80.419-4.672-.931-34.898-5.626-66.307 20.636zm38.122 62.357c-.806.751-2.072.71-2.827-.1-27.894-29.935-15.177-61.162-15.045-61.474.43-1.018 1.603-1.494 2.62-1.064 1.017.429 1.493 1.6 1.066 2.617-.494 1.18-11.788 29.214 14.286 57.195.753.807.708 2.072-.1 2.826z"/></g></svg>