<svg id="Layer_1" enable-background="new 0 0 459.971 459.971" height="512" viewBox="0 0 459.971 459.971" width="512" xmlns="http://www.w3.org/2000/svg"><g data-startx-scale="0.9025" transform="translate(229.9855 229.9855) scale(0.9025) translate(-229.9855 -229.9855)"><path fill="#000" fill-rule="evenodd" stroke="#000" stroke-width="42" stroke-linejoin="round" stroke-linecap="round" d="m92.36 333.257c.622-59.094-44.918-63.655-45.54-63.689-.554 0-2.168-.44-5.55-.44-22.756 0-41.27 23.265-41.27 51.86 0 28.601 18.514 51.87 41.27 51.87.046 0 .089.01.135.014.044.003.086-.002.13.004.221.03 22.439 2.873 45.395-3.964 13.607-4.06 20.186-13.973 23.208-20.811l-4.775-.671c-7.488-1.056-13.077-7.149-13.003-14.173zm-41.247 25.66c-12.912 5.089-28.289-.189-36.78-15.836-.527-.971-.167-2.185.804-2.712.972-.528 2.185-.167 2.712.804 5.569 10.262 15.589 17.125 26.977 15.319-23.529-14.623-23.567-56.347 0-70.994-10.212-1.62-19.446 3.73-25.288 12.512-.612.919-1.854 1.169-2.773.557s-1.169-1.853-.557-2.773c8.941-13.44 23.076-17.385 34.912-12.721 12.565 4.911 20.318 17.892 22.099 31.507 2.44 18.673-6.083 38.074-22.106 44.337zm24.747-1.869c-.62.907-1.864 1.148-2.78.521-.912-.624-1.145-1.868-.521-2.78 10.574-15.451 13.019-37.39 6.041-55.925-.389-1.034.133-2.187 1.167-2.576 1.033-.391 2.187.133 2.576 1.167 7.46 19.813 4.792 43.119-6.483 59.593z"/><path fill="#fff" d="m92.36 333.257c.622-59.094-44.918-63.655-45.54-63.689-.554 0-2.168-.44-5.55-.44-22.756 0-41.27 23.265-41.27 51.86 0 28.601 18.514 51.87 41.27 51.87.046 0 .089.01.135.014.044.003.086-.002.13.004.221.03 22.439 2.873 45.395-3.964 13.607-4.06 20.186-13.973 23.208-20.811l-4.775-.671c-7.488-1.056-13.077-7.149-13.003-14.173zm-41.247 25.66c-12.912 5.089-28.289-.189-36.78-15.836-.527-.971-.167-2.185.804-2.712.972-.528 2.185-.167 2.712.804 5.569 10.262 15.589 17.125 26.977 15.319-23.529-14.623-23.567-56.347 0-70.994-10.212-1.62-19.446 3.73-25.288 12.512-.612.919-1.854 1.169-2.773.557s-1.169-1.853-.557-2.773c8.941-13.44 23.076-17.385 34.912-12.721 12.565 4.911 20.318 17.892 22.099 31.507 2.44 18.673-6.083 38.074-22.106 44.337zm24.747-1.869c-.62.907-1.864 1.148-2.78.521-.912-.624-1.145-1.868-.521-2.78 10.574-15.451 13.019-37.39 6.041-55.925-.389-1.034.133-2.187 1.167-2.576 1.033-.391 2.187.133 2.576 1.167 7.46 19.813 4.792 43.119-6.483 59.593z"/><path fill="#000" fill-rule="evenodd" stroke="#000" stroke-width="42" stroke-linejoin="round" stroke-linecap="round" d="m137.705 103.484v142.227l1.19.141c6.612.78 12.435-4.393 12.435-11.054v-94.65c0-7.416 5.312-13.687 12.629-14.913l34.106-5.714-2.365-25.324c-57.542 9.996-53.598 9.585-57.995 9.287z"/><path fill="#fff" d="m137.705 103.484v142.227l1.19.141c6.612.78 12.435-4.393 12.435-11.054v-94.65c0-7.416 5.312-13.687 12.629-14.913l34.106-5.714-2.365-25.324c-57.542 9.996-53.598 9.585-57.995 9.287z"/><path fill="#000" fill-rule="evenodd" stroke="#000" stroke-width="42" stroke-linejoin="round" stroke-linecap="round" d="m133.705 245.238v-142.263l-83.622-12.934c-1.092-.169-1.84-1.191-1.671-2.282s1.188-1.841 2.282-1.671l85.316 13.196c2.468.381 4.97.359 7.433-.069l42.6-7.401-132.533-24.044-22.202 3.919c-10.979 1.934-18.948 11.43-18.948 22.58v136.681c1.242.043-7.904-1.002 121.345 14.288z"/><path fill="#fff" d="m133.705 245.238v-142.263l-83.622-12.934c-1.092-.169-1.84-1.191-1.671-2.282s1.188-1.841 2.282-1.671l85.316 13.196c2.468.381 4.97.359 7.433-.069l42.6-7.401-132.533-24.044-22.202 3.919c-10.979 1.934-18.948 11.43-18.948 22.58v136.681c1.242.043-7.904-1.002 121.345 14.288z"/><path fill="#000" fill-rule="evenodd" stroke="#000" stroke-width="42" stroke-linejoin="round" stroke-linecap="round" d="m64.885 301.141c-3.234-6.137-8.151-11.312-14.53-14.033-11.523 4.947-19.21 18.438-19.21 33.886 0 15.447 7.686 28.938 19.209 33.885 18.163-7.749 24.542-34.763 14.531-53.738z"/><path fill="#fff" d="m64.885 301.141c-3.234-6.137-8.151-11.312-14.53-14.033-11.523 4.947-19.21 18.438-19.21 33.886 0 15.447 7.686 28.938 19.209 33.885 18.163-7.749 24.542-34.763 14.531-53.738z"/><path fill="#000" fill-rule="evenodd" stroke="#000" stroke-width="42" stroke-linejoin="round" stroke-linecap="round" d="m280.824 166.889c2.014 9.711 10.564 51.401 16.719 88.353 96.235-12.284 144.336-18.438 145.434-18.539-2.89-40.898-16.878-81.239-19.828-89.373z"/><path fill="#fff" d="m280.824 166.889c2.014 9.711 10.564 51.401 16.719 88.353 96.235-12.284 144.336-18.438 145.434-18.539-2.89-40.898-16.878-81.239-19.828-89.373z"/><path fill="#000" fill-rule="evenodd" stroke="#000" stroke-width="42" stroke-linejoin="round" stroke-linecap="round" d="m278.087 75.823c1.095-.188 2.125.541 2.313 1.628.188 1.088-.54 2.124-1.628 2.313l-16.912 2.938v26.131l51.09-8.56v-6.305c0-11.257-8.395-21.004-19.527-22.672l-136.361-20.58c-2.471-.37-4.962-.34-7.404.092l-23.409 4.13 133.621 24.05z"/><path fill="#fff" d="m278.087 75.823c1.095-.188 2.125.541 2.313 1.628.188 1.088-.54 2.124-1.628 2.313l-16.912 2.938v26.131l51.09-8.56v-6.305c0-11.257-8.395-21.004-19.527-22.672l-136.361-20.58c-2.471-.37-4.962-.34-7.404.092l-23.409 4.13 133.621 24.05z"/><path fill="#000" fill-rule="evenodd" stroke="#000" stroke-width="42" stroke-linejoin="round" stroke-linecap="round" d="m202.021 118.859 55.839-9.355v-26.106l-58.207 10.112z"/><path fill="#fff" d="m202.021 118.859 55.839-9.355v-26.106l-58.207 10.112z"/><path fill="#000" fill-rule="evenodd" stroke="#000" stroke-width="42" stroke-linejoin="round" stroke-linecap="round" d="m252.729 162.691 18.25 87.67 22.456 4.567c-6.311-37.718-15.035-80.048-16.687-87.996z"/><path fill="#fff" d="m252.729 162.691 18.25 87.67 22.456 4.567c-6.311-37.718-15.035-80.048-16.687-87.996z"/><path fill="#000" fill-rule="evenodd" stroke="#000" stroke-width="42" stroke-linejoin="round" stroke-linecap="round" d="m248.379 80.984-133.534-24.034-49.972 8.816 132.616 24.06z"/><path fill="#fff" d="m248.379 80.984-133.534-24.034-49.972 8.816 132.616 24.06z"/><path fill="#000" fill-rule="evenodd" stroke="#000" stroke-width="42" stroke-linejoin="round" stroke-linecap="round" d="m277.697 359.509c-1.799-22.694-10.229-40.214-25.058-52.076-11.378-9.102-22.514-11.309-22.625-11.33-.004-.001-.222-.055-.237-.06-.001 0-.001-.001-.002-.001-29.999-9.063-57.826 19.209-57.826 55.557 0 30.055 18.188 55.582 46.745 57.233.024.001.047.009.071.011 18.188 1.756 36.365-.036 51.203-4.365 21.113-6.159 27.263-24.037 28.763-30.067l-8.141-1.184c-7.024-1.023-12.326-6.664-12.893-13.718zm-48.156 33.612c-14.503 5.593-31.241-.414-40.61-16.614-.553-.956-.226-2.179.73-2.732.955-.553 2.179-.226 2.733.73 6.575 11.369 18.179 18.491 30.806 16.244-12.291-7.203-20.244-22.231-20.244-39.146 0-16.914 7.952-31.942 20.243-39.146-9.941-1.769-20.408 2.101-28.012 12.05-.67.877-1.925 1.047-2.803.375-.878-.67-1.045-1.926-.375-2.803 9.814-12.842 24.659-16.953 37.529-11.994 13.427 5.174 22.033 18.369 24.446 32.784 3.523 21.039-6.073 43.226-24.443 50.252zm26.072.247c-.673.872-1.928 1.038-2.806.362-.874-.674-1.036-1.93-.362-2.805 8.231-10.671 12.765-24.638 12.765-39.326 0-1.104.896-2 2-2s2 .896 2 2c0 15.567-4.829 30.401-13.597 41.769z"/><path fill="#fff" d="m277.697 359.509c-1.799-22.694-10.229-40.214-25.058-52.076-11.378-9.102-22.514-11.309-22.625-11.33-.004-.001-.222-.055-.237-.06-.001 0-.001-.001-.002-.001-29.999-9.063-57.826 19.209-57.826 55.557 0 30.055 18.188 55.582 46.745 57.233.024.001.047.009.071.011 18.188 1.756 36.365-.036 51.203-4.365 21.113-6.159 27.263-24.037 28.763-30.067l-8.141-1.184c-7.024-1.023-12.326-6.664-12.893-13.718zm-48.156 33.612c-14.503 5.593-31.241-.414-40.61-16.614-.553-.956-.226-2.179.73-2.732.955-.553 2.179-.226 2.733.73 6.575 11.369 18.179 18.491 30.806 16.244-12.291-7.203-20.244-22.231-20.244-39.146 0-16.914 7.952-31.942 20.243-39.146-9.941-1.769-20.408 2.101-28.012 12.05-.67.877-1.925 1.047-2.803.375-.878-.67-1.045-1.926-.375-2.803 9.814-12.842 24.659-16.953 37.529-11.994 13.427 5.174 22.033 18.369 24.446 32.784 3.523 21.039-6.073 43.226-24.443 50.252zm26.072.247c-.673.872-1.928 1.038-2.806.362-.874-.674-1.036-1.93-.362-2.805 8.231-10.671 12.765-24.638 12.765-39.326 0-1.104.896-2 2-2s2 .896 2 2c0 15.567-4.829 30.401-13.597 41.769z"/><path fill="#000" fill-rule="evenodd" stroke="#000" stroke-width="42" stroke-linejoin="round" stroke-linecap="round" d="m404.991 376.008c27.12-2.711 36.401-14.498 39.304-20.037l-81.179 10.941c4.622 6.2 14.462 11.837 41.875 9.096z"/><path fill="#fff" d="m404.991 376.008c27.12-2.711 36.401-14.498 39.304-20.037l-81.179 10.941c4.622 6.2 14.462 11.837 41.875 9.096z"/><path fill="#000" fill-rule="evenodd" stroke="#000" stroke-width="42" stroke-linejoin="round" stroke-linecap="round" d="m442.953 240.712-144.611 18.459c2.456 10.762 12.64 59.491 8.626 111.272 182.026-24.533 1.916-.258 140.214-18.897 4.932-.659 8.852-4.558 9.537-9.483 2.29-16.502 6.723-58.602-1.574-93.026-1.309-5.465-6.549-9.044-12.192-8.325z"/><path fill="#fff" d="m442.953 240.712-144.611 18.459c2.456 10.762 12.64 59.491 8.626 111.272 182.026-24.533 1.916-.258 140.214-18.897 4.932-.659 8.852-4.558 9.537-9.483 2.29-16.502 6.723-58.602-1.574-93.026-1.309-5.465-6.549-9.044-12.192-8.325z"/><path fill="#000" fill-rule="evenodd" stroke="#000" stroke-width="42" stroke-linejoin="round" stroke-linecap="round" d="m268.892 254.019c-.783-.159-1.396-.77-1.56-1.552l-19.12-91.85c-.286-1.378.904-2.621 2.306-2.377l27.951 4.936 145.729-20.028c7.219-.992 11.683-8.575 8.644-15.54-1.522-3.443-4.651-5.86-8.371-6.464l-105.571-17.21c-1.209-.197-2.428-.195-3.624.008l-150.654 25.24c-5.383.901-9.291 5.514-9.291 10.967v94.65c0 9.053-7.913 16.086-16.904 15.026l-125.271-14.82c-6.606-.786-12.435 4.371-12.435 11.043v50.145c7.871-19.518 25.328-33.76 46.39-30.6 2.283.213 17.547 2.144 30.748 15.032 12.516 12.219 18.741 29.941 18.501 52.674-.052 4.939 4.147 9.406 9.56 10.169l62.043 8.723c-.335-38.851 29.845-69.935 62.913-59.995 1.299.265 12.591 2.777 24.262 12.113 10.813 8.649 24.194 25.19 26.547 54.882.416 5.18 4.315 9.326 9.483 10.079 10.88 1.582 10.675 1.596 11.753 1.607 4.263-53.201-6.728-103.348-8.682-111.703zm-64.142-117.628c-1.099-.114-1.897-1.097-1.783-2.196s1.094-1.9 2.196-1.783l68.25 7.083 109.957-14.716c1.102-.139 2.102.622 2.248 1.717s-.622 2.101-1.717 2.248c-113.585 15.201-110.244 14.765-110.458 14.765-.16-.001 3.426.366-68.693-7.118z"/><path fill="#fff" d="m268.892 254.019c-.783-.159-1.396-.77-1.56-1.552l-19.12-91.85c-.286-1.378.904-2.621 2.306-2.377l27.951 4.936 145.729-20.028c7.219-.992 11.683-8.575 8.644-15.54-1.522-3.443-4.651-5.86-8.371-6.464l-105.571-17.21c-1.209-.197-2.428-.195-3.624.008l-150.654 25.24c-5.383.901-9.291 5.514-9.291 10.967v94.65c0 9.053-7.913 16.086-16.904 15.026l-125.271-14.82c-6.606-.786-12.435 4.371-12.435 11.043v50.145c7.871-19.518 25.328-33.76 46.39-30.6 2.283.213 17.547 2.144 30.748 15.032 12.516 12.219 18.741 29.941 18.501 52.674-.052 4.939 4.147 9.406 9.56 10.169l62.043 8.723c-.335-38.851 29.845-69.935 62.913-59.995 1.299.265 12.591 2.777 24.262 12.113 10.813 8.649 24.194 25.19 26.547 54.882.416 5.18 4.315 9.326 9.483 10.079 10.88 1.582 10.675 1.596 11.753 1.607 4.263-53.201-6.728-103.348-8.682-111.703zm-64.142-117.628c-1.099-.114-1.897-1.097-1.783-2.196s1.094-1.9 2.196-1.783l68.25 7.083 109.957-14.716c1.102-.139 2.102.622 2.248 1.717s-.622 2.101-1.717 2.248c-113.585 15.201-110.244 14.765-110.458 14.765-.16-.001 3.426.366-68.693-7.118z"/><path fill="#000" fill-rule="evenodd" stroke="#000" stroke-width="42" stroke-linejoin="round" stroke-linecap="round" d="m243.101 325.982c-3.603-5.224-8.464-9.473-14.284-11.872-13.107 5.428-21.86 20.378-21.86 37.493s8.753 32.065 21.86 37.493c21.776-8.977 28.772-42.114 14.284-63.114z"/><path fill="#fff" d="m243.101 325.982c-3.603-5.224-8.464-9.473-14.284-11.872-13.107 5.428-21.86 20.378-21.86 37.493s8.753 32.065 21.86 37.493c21.776-8.977 28.772-42.114 14.284-63.114z"/></g></svg>