<svg id="Layer_1" enable-background="new 0 0 469.105 469.105" height="512" viewBox="0 0 469.105 469.105" width="512" xmlns="http://www.w3.org/2000/svg"><g data-startx-scale="0.9025" transform="translate(234.5525 234.5525) scale(0.9025) translate(-234.5525 -234.5525)"><path fill="#000" fill-rule="evenodd" stroke="#000" stroke-width="42" stroke-linejoin="round" stroke-linecap="round" d="m118.538 135.368c20.718 23.374 32.248 58.104 34.846 66.56 6.792-1.728 13.902-3.659 21.259-5.755-5.588-36.829-14.706-69.995-27.253-99.258-8.41.048-17.636 1.51-22.038 2.306 5.254 10.393 6.391 19.158 3.375 26.084-2.472 5.675-7.123 8.649-10.189 10.063z"/><path fill="#fff" d="m118.538 135.368c20.718 23.374 32.248 58.104 34.846 66.56 6.792-1.728 13.902-3.659 21.259-5.755-5.588-36.829-14.706-69.995-27.253-99.258-8.41.048-17.636 1.51-22.038 2.306 5.254 10.393 6.391 19.158 3.375 26.084-2.472 5.675-7.123 8.649-10.189 10.063z"/><path fill="#000" fill-rule="evenodd" stroke="#000" stroke-width="42" stroke-linejoin="round" stroke-linecap="round" d="m79.108 206.429c.534 2.393 6.665 6.038 26.267 4.53 4.903-.375 10.534-1.111 16.762-2.188-3.243-8.197-6.81-16.187-10.709-23.954-26.974 10.468-32.973 18.686-32.32 21.612z"/><path fill="#fff" d="m79.108 206.429c.534 2.393 6.665 6.038 26.267 4.53 4.903-.375 10.534-1.111 16.762-2.188-3.243-8.197-6.81-16.187-10.709-23.954-26.974 10.468-32.973 18.686-32.32 21.612z"/><path fill="#000" fill-rule="evenodd" stroke="#000" stroke-width="42" stroke-linejoin="round" stroke-linecap="round" d="m149.491 202.905c-2.758-8.794-14.936-44.775-35.878-66.999-1.046-1.111-.511-2.945.972-3.313.068-.018 7.498-1.99 10.493-8.93 2.7-6.254 1.182-14.643-4.51-24.932-.651-1.175.023-2.648 1.337-2.925.54-.114 12.35-2.549 23.754-2.862-3.341-7.51-6.912-14.757-10.713-21.734-45.533-1.504-85.025 12.543-96.063 16.894 39.374 32.353 68.714 72.683 87.268 119.936 7.191-1.344 15.005-3.074 23.34-5.135z"/><path fill="#fff" d="m149.491 202.905c-2.758-8.794-14.936-44.775-35.878-66.999-1.046-1.111-.511-2.945.972-3.313.068-.018 7.498-1.99 10.493-8.93 2.7-6.254 1.182-14.643-4.51-24.932-.651-1.175.023-2.648 1.337-2.925.54-.114 12.35-2.549 23.754-2.862-3.341-7.51-6.912-14.757-10.713-21.734-45.533-1.504-85.025 12.543-96.063 16.894 39.374 32.353 68.714 72.683 87.268 119.936 7.191-1.344 15.005-3.074 23.34-5.135z"/><path fill="#000" fill-rule="evenodd" stroke="#000" stroke-width="42" stroke-linejoin="round" stroke-linecap="round" d="m195.452 37.458c-1.07 12.385-8.051 20.822-14.333 25.998 11.472 23.175 20.51 63.288 27.599 122.436 27.831-8.793 57.566-19.003 86.51-29.18-1.634-32.875-5.448-65.579-9.409-80.736-18.803-6.348-28.68-17.442-28.033-31.435-23.593-6.964-44.545-9.347-62.334-7.083z"/><path fill="#fff" d="m195.452 37.458c-1.07 12.385-8.051 20.822-14.333 25.998 11.472 23.175 20.51 63.288 27.599 122.436 27.831-8.793 57.566-19.003 86.51-29.18-1.634-32.875-5.448-65.579-9.409-80.736-18.803-6.348-28.68-17.442-28.033-31.435-23.593-6.964-44.545-9.347-62.334-7.083z"/><path fill="#000" fill-rule="evenodd" stroke="#000" stroke-width="42" stroke-linejoin="round" stroke-linecap="round" d="m204.836 187.113c-14.262-119.613-32.222-122.133-27.454-125.794 6.177-4.744 13.651-13.054 14.18-25.698.041-.987.794-1.771 1.723-1.905 19.092-2.756 41.7-.248 67.193 7.455.918.277 1.51 1.167 1.411 2.121-1.725 16.604 13.293 25.055 26.195 29.22.641.207 1.134.722 1.313 1.37 4.146 14.982 8.028 47.464 9.767 81.444 17.771-6.261 22.168-7.967 29.769-10.141-.242-70.054-31.084-113.424-33.876-117.199-52.887-33.691-99.997-30.901-130.23-22.615-27.734 7.603-46.664 21.034-51.986 25.119 33.289 41.751 55.372 97.103 65.679 164.57 8.492-2.458 17.294-5.122 26.316-7.947z"/><path fill="#fff" d="m204.836 187.113c-14.262-119.613-32.222-122.133-27.454-125.794 6.177-4.744 13.651-13.054 14.18-25.698.041-.987.794-1.771 1.723-1.905 19.092-2.756 41.7-.248 67.193 7.455.918.277 1.51 1.167 1.411 2.121-1.725 16.604 13.293 25.055 26.195 29.22.641.207 1.134.722 1.313 1.37 4.146 14.982 8.028 47.464 9.767 81.444 17.771-6.261 22.168-7.967 29.769-10.141-.242-70.054-31.084-113.424-33.876-117.199-52.887-33.691-99.997-30.901-130.23-22.615-27.734 7.603-46.664 21.034-51.986 25.119 33.289 41.751 55.372 97.103 65.679 164.57 8.492-2.458 17.294-5.122 26.316-7.947z"/><path fill="#000" fill-rule="evenodd" stroke="#000" stroke-width="42" stroke-linejoin="round" stroke-linecap="round" d="m324.286 274.155c-23.064 0-48.058 19.639-53.842 42.922-5.333 21.466 7.987 37.318 30.066 35.721 22.573-1.631 45.397-20.841 50.854-42.805 5.134-20.666-6.994-35.838-27.078-35.838z"/><path fill="#fff" d="m324.286 274.155c-23.064 0-48.058 19.639-53.842 42.922-5.333 21.466 7.987 37.318 30.066 35.721 22.573-1.631 45.397-20.841 50.854-42.805 5.134-20.666-6.994-35.838-27.078-35.838z"/><path fill="#000" fill-rule="evenodd" stroke="#000" stroke-width="42" stroke-linejoin="round" stroke-linecap="round" d="m354.298 354.945c-70.947 22.426-110.46 35.601-118.077-17.044-7.491-51.778 2.81-62.011 84.787-84.217 43.929-11.891 67.073-25.691 78.872-35.402-1.596-19.966-3.806-33.641-7.149-44.204-5.52-17.46-14.159-26.332-28.008-28.765-2.919 0-14.055-4.007-46.526 7.525-48.816 17.318-115.988 40.938-165.552 53.397-.027.009-.052.024-.08.032-.035.01-.069.007-.104.015-16.606 4.169-38.472 9.026-55.527 9.026-12.939.001-20.559-2.764-21.73-8.008-2.226-9.974 19.672-20.317 34.39-26.063-3.153-6.069-6.506-12.004-10.062-17.799-44.709 17.76-59.68 33.197-61.337 62.957-2.765 49.71.087 196.491-.007 197.414-.015.165-1.424 17.095 13.072 30.042 12.896 11.52 41.616 22.459 105.198 9.145 123.047-25.772 208.449-62.587 212.766-64.469 1.679-1.189 22.038-16.509 30.411-63.933-14.976 10.017-29.805 15.445-45.337 20.351zm-220.387-108.939c-1.054.188-2.119-.517-2.311-1.631-.188-1.089.542-2.123 1.631-2.311 85.78-14.79 199.996-62.887 201.139-63.371 1.015-.429 2.19.045 2.621 1.063.431 1.017-.045 2.19-1.063 2.621-1.147.486-115.787 48.761-202.017 63.629z"/><path fill="#fff" d="m354.298 354.945c-70.947 22.426-110.46 35.601-118.077-17.044-7.491-51.778 2.81-62.011 84.787-84.217 43.929-11.891 67.073-25.691 78.872-35.402-1.596-19.966-3.806-33.641-7.149-44.204-5.52-17.46-14.159-26.332-28.008-28.765-2.919 0-14.055-4.007-46.526 7.525-48.816 17.318-115.988 40.938-165.552 53.397-.027.009-.052.024-.08.032-.035.01-.069.007-.104.015-16.606 4.169-38.472 9.026-55.527 9.026-12.939.001-20.559-2.764-21.73-8.008-2.226-9.974 19.672-20.317 34.39-26.063-3.153-6.069-6.506-12.004-10.062-17.799-44.709 17.76-59.68 33.197-61.337 62.957-2.765 49.71.087 196.491-.007 197.414-.015.165-1.424 17.095 13.072 30.042 12.896 11.52 41.616 22.459 105.198 9.145 123.047-25.772 208.449-62.587 212.766-64.469 1.679-1.189 22.038-16.509 30.411-63.933-14.976 10.017-29.805 15.445-45.337 20.351zm-220.387-108.939c-1.054.188-2.119-.517-2.311-1.631-.188-1.089.542-2.123 1.631-2.311 85.78-14.79 199.996-62.887 201.139-63.371 1.015-.429 2.19.045 2.621 1.063.431 1.017-.045 2.19-1.063 2.621-1.147.486-115.787 48.761-202.017 63.629z"/><path fill="#000" fill-rule="evenodd" stroke="#000" stroke-width="42" stroke-linejoin="round" stroke-linecap="round" d="m397.802 177.177c2.591 9.631 4.433 21.631 5.822 37.823 6.853-6.419 8.696-10.731 8.715-10.778.403-1.027 1.562-1.536 2.594-1.127 1.027.404 1.532 1.566 1.127 2.594-.101.257-2.592 6.376-12.805 14.99-3.481 2.32-22.303 20.924-81.203 36.867-80.601 21.833-89.02 30.388-81.873 79.783 6.938 47.967 40.096 36.817 117.418 12.379 38.503-12.158 56.555-30.05 64.919-42.917 9.015-13.869 9.015-25.04 9.014-25.151-.002-.266 1.327-9.093.001-51.292-1.02-32.705-24.343-48.231-33.729-53.171zm-42.556 133.78c-5.872 23.637-30.146 44.076-54.447 45.83-24.747 1.785-40.241-16.499-34.237-40.675 2.839-11.426 10.055-22.478 20.319-31.117 21.371-17.99 49.535-19.822 62.783-4.085 6.496 7.718 8.478 18.389 5.582 30.047z"/><path fill="#fff" d="m397.802 177.177c2.591 9.631 4.433 21.631 5.822 37.823 6.853-6.419 8.696-10.731 8.715-10.778.403-1.027 1.562-1.536 2.594-1.127 1.027.404 1.532 1.566 1.127 2.594-.101.257-2.592 6.376-12.805 14.99-3.481 2.32-22.303 20.924-81.203 36.867-80.601 21.833-89.02 30.388-81.873 79.783 6.938 47.967 40.096 36.817 117.418 12.379 38.503-12.158 56.555-30.05 64.919-42.917 9.015-13.869 9.015-25.04 9.014-25.151-.002-.266 1.327-9.093.001-51.292-1.02-32.705-24.343-48.231-33.729-53.171zm-42.556 133.78c-5.872 23.637-30.146 44.076-54.447 45.83-24.747 1.785-40.241-16.499-34.237-40.675 2.839-11.426 10.055-22.478 20.319-31.117 21.371-17.99 49.535-19.822 62.783-4.085 6.496 7.718 8.478 18.389 5.582 30.047z"/><path fill="#000" fill-rule="evenodd" stroke="#000" stroke-width="42" stroke-linejoin="round" stroke-linecap="round" d="m360.591 140.787c-5.516-6.623-14.552-14.351-28.962-19.791.774 7.341 1.236 15.048 1.3 23.102 10.728-2.769 19.892-3.87 27.662-3.311z"/><path fill="#fff" d="m360.591 140.787c-5.516-6.623-14.552-14.351-28.962-19.791.774 7.341 1.236 15.048 1.3 23.102 10.728-2.769 19.892-3.87 27.662-3.311z"/></g></svg>