<svg id="svg2986" height="512" viewBox="0 0 6.3499999 6.3500002" width="512" xmlns="http://www.w3.org/2000/svg" xmlns:svg="http://www.w3.org/2000/svg"><g id="layer1" transform="translate(0 -290.65)"><path fill="#33302b" id="circle2811" d="m3.1739666 290.97039c-1.5731935 0-2.85357269 1.28245-2.85357269 2.85564s1.28037919 2.85357 2.85357269 2.85357c1.5731932 0 2.8556395-1.28038 2.8556395-2.85357s-1.2824463-2.85564-2.8556395-2.85564zm0 .52917c1.2872104 0 2.3264731 1.03926 2.3264728 2.32647 0 1.28721-1.0392624 2.32389-2.3264728 2.32389-1.2872106 0-2.32388923-1.03668-2.32388926-2.32389 0-1.28721 1.03667866-2.32647 2.32388926-2.32647zm-1.3885458 2.60759h2.6463501c.3450344-.008.3450344-.52151 0-.52917h-2.6590109c-.3738348.009-.3477382.55453.012661.52917z" font-variant-ligatures="normal" font-variant-position="normal" font-variant-caps="normal" font-variant-numeric="normal" font-variant-alternates="normal" font-feature-settings="normal" text-indent="0" text-align="start" text-decoration-line="none" text-decoration-style="solid" text-decoration-color="rgb(0,0,0)" text-transform="none" text-orientation="mixed" white-space="normal" shape-padding="0" isolation="auto" mix-blend-mode="normal" solid-color="rgb(0,0,0)" solid-opacity="1" vector-effect="none" paint-order="stroke fill markers"/></g></svg>