<svg height="480pt" viewBox="-8 0 480 480" width="480pt" xmlns="http://www.w3.org/2000/svg"><path fill="#e8b21f" d="m232 384c101.464844 0 184-75.367188 184-168s-82.535156-168-184-168-184 75.367188-184 168 82.535156 168 184 168z"/><path fill="#e8b21f" d="m464 264v-54.398438c-.046875-.339843-.113281-.671874-.199219-1-4.214843-115.691406-106.542969-208.601562-231.800781-208.601562-126.046875 0-228.878906 94.105469-231.855469 210.808594-.0624998.230468-.1093748.460937-.144531.695312v52.496094c0 119.105469 104.078125 216 232 216s232-96.894531 232-216zm-40 91.449219v-18.34375c7.476562-10.253907 14.015625-21.160157 19.535156-32.585938-4.011718 17.832031-10.589844 34.988281-19.535156 50.929688zm-192-339.449219c119.105469 0 216 89.71875 216 200s-96.894531 200-216 200-216-89.71875-216-200 96.894531-200 216-200zm-112 389.078125v29.882813c-8.339844-4.71875-16.355469-9.984376-24-15.761719v-28.398438c7.707031 5.230469 15.722656 10 24 14.277344zm16 7.480469c10.394531 4.417968 21.089844 8.101562 32 11.015625v31.457031c-10.957031-3.160156-21.652344-7.152344-32-11.941406zm48 14.761718c13.191406 2.578126 26.566406 4.078126 40 4.488282v32c-13.449219-.460938-26.832031-2.082032-40-4.855469zm56 4.488282c13.433594-.410156 26.808594-1.910156 40-4.488282v31.640626c-13.167969 2.773437-26.550781 4.398437-40 4.855468zm56-8.234375c10.910156-2.914063 21.605469-6.597657 32-11.015625v30.53125c-10.347656 4.789062-21.042969 8.78125-32 11.941406zm48-18.496094c8.277344-4.265625 16.289062-9.023437 24-14.246094v28.367188c-7.644531 5.765625-15.664062 11.019531-24 15.730469zm-304-68v18.347656c-8.941406-15.941406-15.523438-33.097656-19.535156-50.929687 5.519531 11.433594 12.058594 22.347656 19.535156 32.609375zm16 42.625v-23.214844c7.441406 8.070313 15.464844 15.585938 24 22.488281v26.96875c-8.738281-8.035156-16.769531-16.804687-24-26.21875zm328 26.21875v-26.945313c8.535156-6.902343 16.558594-14.417968 24-22.488281v23.238281c-7.230469 9.414063-15.261719 18.183594-24 26.21875zm0 0"/></svg>
