<svg xmlns="http://www.w3.org/2000/svg" version="1.1" xmlns:xlink="http://www.w3.org/1999/xlink" width="512" height="512" x="0" y="0" viewBox="0 0 512.056 512.056" style="enable-background:new 0 0 512 512" xml:space="preserve" class=""><g><path fill="#919a97" d="M135.485 486.169H12c-6.627 0-12-5.373-12-12V51.071c0-6.627 5.373-12 12-12h123.485c6.627 0 12 5.373 12 12v423.098c0 6.628-5.373 12-12 12z" opacity="1" data-original="#05e29a" class=""></path><path fill="#222826" d="M135.06 39.071h-25.14v361.682c0 27.193-22.045 49.238-49.238 49.238H0v23.754c0 6.862 5.563 12.425 12.425 12.425H135.06c6.862 0 12.425-5.563 12.425-12.425V51.496c0-6.862-5.563-12.425-12.425-12.425z" opacity="1" data-original="#1dd08d" class=""></path><path fill="#586b76" d="M90.93 431.735H56.554c-13.618 0-24.658-11.04-24.658-24.658v-1.746c0-13.618 11.04-24.658 24.658-24.658H90.93c13.618 0 24.658 11.04 24.658 24.658v1.746c.001 13.618-11.039 24.658-24.658 24.658z" opacity="1" data-original="#586b76" class=""></path><path fill="#465961" d="M90.057 380.672h-7.513a25.53 25.53 0 0 1 1.148 7.593c0 14.101-11.431 25.531-25.531 25.531H33.044c3.233 10.393 12.927 17.938 24.383 17.938h32.63c14.101 0 25.531-11.431 25.531-25.531.001-14.1-11.43-25.531-25.531-25.531z" opacity="1" data-original="#465961"></path><path fill="#dedddd" d="M111.959 317.838H35.526a6.736 6.736 0 0 1-6.736-6.736V102.268a6.736 6.736 0 0 1 6.736-6.736h76.433a6.736 6.736 0 0 1 6.736 6.736v208.834a6.736 6.736 0 0 1-6.736 6.736z" opacity="1" data-original="#fff0e1" class=""></path><path fill="#c7c4c0" d="M111.721 95.532H89.905v187.824a6.974 6.974 0 0 1-6.974 6.974H28.79v20.533a6.974 6.974 0 0 0 6.974 6.974h75.956a6.974 6.974 0 0 0 6.974-6.974V102.507a6.974 6.974 0 0 0-6.973-6.975z" opacity="1" data-original="#ffeccf" class=""></path><path fill="#cba368" d="M282.927 486.169H159.442c-6.627 0-12-5.373-12-12V51.071c0-6.627 5.373-12 12-12h123.485c6.627 0 12 5.373 12 12v423.098c0 6.628-5.372 12-12 12z" opacity="1" data-original="#fcb143" class=""></path><path fill="#694403" d="M282.502 39.071h-25.14v361.682c0 27.193-22.045 49.238-49.238 49.238h-60.682v23.754c0 6.862 5.563 12.425 12.425 12.425h122.635c6.862 0 12.425-5.563 12.425-12.425V51.496c0-6.862-5.563-12.425-12.425-12.425z" opacity="1" data-original="#fba615" class=""></path><path fill="#586b76" d="M238.373 431.735h-34.376c-13.618 0-24.658-11.04-24.658-24.658v-1.746c0-13.618 11.04-24.658 24.658-24.658h34.376c13.618 0 24.658 11.04 24.658 24.658v1.746c0 13.618-11.04 24.658-24.658 24.658z" opacity="1" data-original="#586b76" class=""></path><path fill="#465961" d="M237.5 380.672h-7.513a25.53 25.53 0 0 1 1.148 7.593c0 14.101-11.431 25.531-25.531 25.531h-25.117c3.233 10.393 12.927 17.938 24.383 17.938h32.63c14.101 0 25.531-11.431 25.531-25.531S251.6 380.672 237.5 380.672z" opacity="1" data-original="#465961"></path><path fill="#dedddd" d="M259.401 317.838h-76.433a6.736 6.736 0 0 1-6.736-6.736V102.268a6.736 6.736 0 0 1 6.736-6.736h76.433a6.736 6.736 0 0 1 6.736 6.736v208.834a6.736 6.736 0 0 1-6.736 6.736z" opacity="1" data-original="#fff0e1" class=""></path><path fill="#c7c4c0" d="M259.163 95.532h-21.815v187.824a6.974 6.974 0 0 1-6.974 6.974h-54.141v20.533a6.974 6.974 0 0 0 6.974 6.974h75.956a6.974 6.974 0 0 0 6.974-6.974V102.507a6.974 6.974 0 0 0-6.974-6.975z" opacity="1" data-original="#ffeccf" class=""></path><path fill="#ae95b8" d="m502.082 465.933-121.71 20.862c-6.532 1.12-12.735-3.268-13.855-9.8L295.036 59.978c-1.12-6.532 3.268-12.735 9.8-13.855l121.71-20.862c6.532-1.12 12.735 3.268 13.855 9.8l71.481 417.017c1.119 6.532-3.268 12.735-9.8 13.855z" opacity="1" data-original="#fc6b55" class=""></path><path fill="#47344e" d="m426.127 25.333-25.386 4.044 61.128 357.473c4.594 26.803-13.409 52.255-40.212 56.849l-59.202 10.455 3.99 22.422c1.159 6.763 7.582 11.306 14.345 10.147l120.872-20.719c6.763-1.159 11.306-7.582 10.147-14.345L440.472 35.48c-1.159-6.763-7.581-11.306-14.345-10.147z" opacity="1" data-original="#fc534e" class=""></path><path fill="#586b76" d="m448.971 419.809-33.882 5.808c-13.423 2.301-26.169-6.715-28.47-20.138l-.295-1.721c-2.301-13.423 6.715-26.169 20.138-28.47l33.882-5.808c13.423-2.301 26.169 6.715 28.47 20.138l.295 1.721c2.301 13.422-6.715 26.169-20.138 28.47z" opacity="1" data-original="#586b76" class=""></path><path fill="#465961" d="m439.484 369.627-7.405 1.269a25.49 25.49 0 0 1 2.414 7.29c2.382 13.898-6.953 27.096-20.851 29.478l-24.756 4.243c4.942 9.697 15.772 15.497 27.063 13.561l32.161-5.513c13.898-2.382 23.233-15.58 20.851-29.478-2.382-13.897-15.579-23.232-29.477-20.85z" opacity="1" data-original="#465961"></path><path fill="#dedddd" d="m450.455 303.996-75.334 12.913a6.735 6.735 0 0 1-7.777-5.501l-35.282-205.832a6.735 6.735 0 0 1 5.501-7.777l75.334-12.913a6.735 6.735 0 0 1 7.777 5.501l35.282 205.832a6.735 6.735 0 0 1-5.501 7.777z" opacity="1" data-original="#fff0e1" class=""></path><path fill="#c7c4c0" d="m412.662 84.926-21.502 3.686 31.898 186.411a6.974 6.974 0 0 1-5.696 8.053L364 292.222l3.303 18.951a6.975 6.975 0 0 0 8.053 5.696l74.864-12.833a6.974 6.974 0 0 0 5.696-8.052L420.715 90.622a6.974 6.974 0 0 0-8.053-5.696z" opacity="1" data-original="#ffeccf" class=""></path><path fill="#e5ecf1" d="M90.057 372.907h-32.63c-18.36 0-33.297 14.937-33.297 33.297s14.937 33.297 33.297 33.297h32.63c18.36 0 33.297-14.937 33.297-33.297s-14.937-33.297-33.297-33.297zm0 51.063h-32.63c-9.796 0-17.766-7.97-17.766-17.766s7.97-17.766 17.766-17.766h32.63c9.796 0 17.766 7.97 17.766 17.766s-7.97 17.766-17.766 17.766z" opacity="1" data-original="#e5ecf1" class=""></path><path fill="#7f7d7a" d="M59.119 261.267a7.765 7.765 0 0 0 7.766-7.766v-96.024a7.766 7.766 0 0 0-15.532 0v96.024a7.765 7.765 0 0 0 7.766 7.766zM88.366 261.267a7.765 7.765 0 0 0 7.766-7.766v-70.714a7.766 7.766 0 0 0-15.532 0v70.714a7.765 7.765 0 0 0 7.766 7.766z" opacity="1" data-original="#fbbe66" class=""></path><path fill="#e5ecf1" d="M237.499 372.907h-32.63c-18.36 0-33.297 14.937-33.297 33.297s14.937 33.297 33.297 33.297h32.63c18.36 0 33.297-14.937 33.297-33.297s-14.937-33.297-33.297-33.297zm0 51.063h-32.63c-9.796 0-17.766-7.97-17.766-17.766s7.97-17.766 17.766-17.766h32.63c9.796 0 17.766 7.97 17.766 17.766s-7.97 17.766-17.766 17.766z" opacity="1" data-original="#e5ecf1" class=""></path><path fill="#7f7d7a" d="M206.561 261.267a7.765 7.765 0 0 0 7.766-7.766v-96.024a7.766 7.766 0 0 0-15.532 0v96.024a7.766 7.766 0 0 0 7.766 7.766zM235.808 261.268a7.765 7.765 0 0 0 7.766-7.766v-96.025a7.766 7.766 0 0 0-15.532 0v96.025a7.767 7.767 0 0 0 7.766 7.766z" opacity="1" data-original="#fbbe66" class=""></path><path fill="#e5ecf1" d="m438.172 361.973-32.161 5.513c-8.766 1.503-16.422 6.33-21.559 13.591-5.136 7.261-7.137 16.087-5.634 24.853 1.503 8.767 6.329 16.423 13.59 21.559 5.687 4.022 12.331 6.121 19.158 6.121 1.89 0 3.795-.161 5.696-.486l32.16-5.513c8.766-1.503 16.422-6.33 21.559-13.591 5.136-7.261 7.137-16.087 5.635-24.854-3.103-18.097-20.348-30.294-38.444-27.193zm20.129 43.077a17.645 17.645 0 0 1-11.503 7.251l-32.16 5.513c-4.676.802-9.387-.266-13.261-3.006s-6.449-6.825-7.251-11.502a17.65 17.65 0 0 1 3.006-13.261 17.644 17.644 0 0 1 11.503-7.251l32.161-5.513a17.748 17.748 0 0 1 3.011-.258c8.489 0 16.02 6.122 17.501 14.766a17.644 17.644 0 0 1-3.007 13.261z" opacity="1" data-original="#e5ecf1" class=""></path><g fill="#fbbe66"><path d="M369.97 147.214a7.767 7.767 0 0 0-6.342 8.967l16.223 94.644a7.768 7.768 0 0 0 8.966 6.342 7.767 7.767 0 0 0 6.342-8.967l-16.223-94.644a7.768 7.768 0 0 0-8.966-6.342zM416.323 252.337a7.767 7.767 0 0 0 7.663-9.079l-16.223-94.644a7.765 7.765 0 0 0-8.966-6.342 7.767 7.767 0 0 0-6.342 8.967l16.223 94.644a7.769 7.769 0 0 0 7.645 6.454z" fill="#7f7d7a" opacity="1" data-original="#fbbe66" class=""></path></g></g></svg>