<svg xmlns="http://www.w3.org/2000/svg" version="1.1" xmlns:xlink="http://www.w3.org/1999/xlink" width="512" height="512" x="0" y="0" viewBox="0 0 32 32" style="enable-background:new 0 0 512 512" xml:space="preserve" class=""><g><path fill="#f4d5d5" d="M31 16c0 1.849-2.991 3.09-3.658 4.697-.691 1.667.521 4.653-.736 5.909-1.256 1.256-4.242.044-5.909.735C19.09 28.009 17.849 31 16 31s-3.09-2.991-4.697-3.658c-1.667-.691-4.653.521-5.909-.736-1.256-1.256-.044-4.242-.735-5.909C3.991 19.09 1 17.849 1 16s2.991-3.09 3.658-4.697c.691-1.667-.521-4.653.735-5.909s4.242-.044 5.909-.735C12.91 3.991 14.151 1 16 1s3.09 2.991 4.697 3.658c1.667.691 4.653-.521 5.909.735s.044 4.242.735 5.909C28.009 12.91 31 14.151 31 16z" opacity="1" data-original="#ffee58" class=""></path><path fill="#f4bfbf" d="M31 16c0 1.09-1.04 1.97-2.03 2.84.02-.11.03-.22.03-.34 0-1.91-3.09-3.19-3.78-4.85-.71-1.73.54-4.81-.76-6.11s-4.38-.05-6.11-.76C16.69 6.09 15.41 3 13.5 3c-.12 0-.23.01-.34.03C14.03 2.04 14.91 1 16 1c1.85 0 3.09 2.99 4.7 3.66 1.66.69 4.65-.52 5.91.73 1.25 1.26.04 4.25.73 5.91.67 1.61 3.66 2.85 3.66 4.7z" opacity="1" data-original="#fffbd7" class=""></path><path fill="#ebafaf" d="M19.04 28.73C18.11 29.78 17.18 31 16 31c-1.85 0-3.09-2.99-4.7-3.66-1.66-.69-4.65.52-5.91-.73-1.25-1.26-.04-4.25-.73-5.91C3.99 19.09 1 17.85 1 16s2.99-3.09 3.66-4.7c.69-1.66-.52-4.65.73-5.91.75-.74 2.11-.62 3.43-.54-.14 1.42.33 3.27-.16 4.45C7.99 10.91 5 12.15 5 14s2.99 3.09 3.66 4.7c.69 1.66-.52 4.65.73 5.91 1.26 1.25 4.25.04 5.91.73 1.31.55 2.38 2.64 3.74 3.39z" opacity="1" data-original="#ffb300" class=""></path><path d="M29.711 12.483c-.615-.538-1.25-1.094-1.445-1.563-.212-.513-.158-1.387-.106-2.232.085-1.394.182-2.974-.846-4.001s-2.606-.932-4-.845c-.847.051-1.72.105-2.233-.107-.47-.195-1.025-.83-1.563-1.445C18.578 1.217 17.514 0 16 0s-2.578 1.217-3.517 2.29c-.538.614-1.093 1.249-1.563 1.444-.513.212-1.388.159-2.232.106-1.392-.085-2.973-.181-4.001.847-1.028 1.027-.932 2.607-.846 4.001.052.846.105 1.72-.107 2.232-.195.47-.831 1.025-1.445 1.563C1.216 13.422 0 14.486 0 16s1.216 2.578 2.29 3.517c.614.538 1.25 1.094 1.445 1.563.212.513.159 1.387.107 2.232-.086 1.394-.183 2.974.845 4.001s2.605.931 4.001.845c.846-.05 1.72-.106 2.232.107.47.195 1.026.83 1.563 1.444C13.422 30.783 14.486 32 16 32s2.578-1.217 3.517-2.289c.538-.615 1.094-1.25 1.563-1.445.512-.212 1.386-.159 2.232-.106 1.392.086 2.973.183 4.001-.846 1.027-1.027.931-2.606.845-4-.052-.846-.105-1.721.107-2.233.195-.47.83-1.025 1.445-1.563C30.783 18.578 32 17.514 32 16s-1.217-2.578-2.289-3.517zm-1.317 5.529c-.787.688-1.602 1.4-1.976 2.303-.39.939-.321 2.049-.256 3.121.06.972.128 2.073-.263 2.464s-1.493.321-2.465.264c-1.07-.065-2.181-.134-3.12.255-.902.374-1.614 1.188-2.303 1.976C17.32 29.184 16.606 30 16 30s-1.321-.816-2.012-1.606c-.688-.787-1.401-1.602-2.302-1.976-.58-.24-1.224-.307-1.884-.307-.41 0-.827.025-1.238.051-.973.061-2.073.128-2.464-.263-.39-.391-.322-1.492-.263-2.464.066-1.072.134-2.182-.255-3.121-.374-.902-1.188-1.614-1.976-2.303C2.816 17.32 2 16.606 2 16s.816-1.32 1.606-2.012c.787-.688 1.602-1.4 1.976-2.303.389-.939.321-2.048.255-3.12-.059-.972-.127-2.074.264-2.464s1.492-.321 2.465-.264c1.073.066 2.182.135 3.121-.255.901-.374 1.614-1.188 2.302-1.976C14.679 2.816 15.394 2 16 2s1.32.816 2.012 1.606c.688.787 1.4 1.602 2.303 1.976.939.39 2.049.321 3.121.256.973-.061 2.073-.129 2.464.263.391.391.323 1.492.264 2.465-.066 1.072-.134 2.181.255 3.12.374.902 1.188 1.614 1.976 2.303C29.184 14.68 30 15.394 30 16s-.816 1.32-1.606 2.012z" fill="#c90000" opacity="1" data-original="#000000" class=""></path><path d="M13.717 21.16a.977.977 0 0 0-.074-.54l-2.536-5.438a1 1 0 0 0-1.812.846l.745 1.598-1.937-1.537c-.353-.28-.914-.264-1.257.023-.325.271-.453.794-.271 1.183l2.536 5.438c.23.493.837.712 1.329.483a1 1 0 0 0 .483-1.329l-.746-1.599 1.937 1.537c.345.274.882.275 1.228.006.206-.159.339-.41.375-.671zM16.845 18.024l-.906.422-.423-.907.907-.423a1 1 0 1 0-.846-1.812l-.906.423-.423-.906.906-.423a1 1 0 1 0-.846-1.812l-1.813.846a1 1 0 0 0-.483 1.329l2.536 5.438a1 1 0 0 0 1.329.483l.001-.001 1.812-.844a1 1 0 0 0-.845-1.813zM25.5 15.357a.643.643 0 0 0-.017-.076l-1.63-5.86c-.339-1.22-2.278-.727-1.928.535l.806 2.898-1.094-.868c-.616-.489-1.599-.034-1.621.756l-.038 1.397-1.702-2.48c-.719-1.048-2.388.055-1.649 1.131l3.443 5.016c.232.337.709.503 1.098.391.39-.113.714-.517.726-.929l.068-2.472s1.936 1.536 1.947 1.542c.145.112.344.197.526.208.306.019.618-.11.82-.341.197-.225.296-.551.245-.848z" fill="#c90000" opacity="1" data-original="#000000" class=""></path></g></svg>