<svg id="Layer_1" enable-background="new 0 0 68 68" height="512" viewBox="0 0 68 68" width="512" xmlns="http://www.w3.org/2000/svg"><g id="_x31_01"><path d="m32.9 39.2c6.5 0 9.9-6.9 7.8-11.9-1.9-4.7-8.5-7.4-12.7-4.2-1.8 1.4-3.1 3.8-3.4 6.4-.7 5.7 3.1 9.7 8.3 9.7zm-6.9-9.5c.3-2.2 1.3-4.2 2.9-5.4 1-.7 2.1-1.1 3.4-1.1.6 0 1.2.1 1.8.3 2.3.6 4.3 2.4 5.2 4.4 1.3 3.1 0 7.1-2.9 8.9s-7 1-9.1-1.6c-1-1.4-1.5-3.4-1.3-5.5z"/><path d="m30.4 32c1.2.2 2.1-.6 2.8-.8.6-.1 1.4.2 1.7.8s.1 1.4-.4 1.8-1.3.4-1.8 0c-.3-.3-.8-.2-1.1.1s-.2.8.1 1.1c.5.4 1.2.6 1.8.6.4 0 .7-.1 1.1-.2l.2.4c.2.4.6.6 1 .4s.6-.6.4-1l-.3-.6s0 0 0-.1c.7-.9.9-2.1.3-3.2-.6-1.2-2-1.9-3.4-1.6-.4.1-.8.3-1.1.4-.4.2-.8.4-1.1.3-.2 0-.3-.2-.4-.4-.2-.3-.2-.8 0-1.1.3-.6 1-1 2.1-1.4.4-.1.6-.6.5-1s-.6-.6-1-.5c-.3.1-.7.3-1.1.4l-.3-.4c-.2-.4-.6-.6-1-.4s-.6.6-.4 1l.4 1c-.2.2-.4.5-.6.8-.4.7-.4 1.7 0 2.4s.9 1.1 1.6 1.2z"/><path d="m37.6 18.6c4.4-2.9 9.9-4 15.1-3.1.1 1 .5 1.7 1.3 1.9.6.2 1.2.2 1.8 0 .7 3.2 2.5 9 3.1 10.7-1.5.1-2.5 1-2.7 2.2-5.3-.7-9.1.2-13 2.5-.4.2-.5.7-.3 1 .2.4.7.5 1 .3 3.8-2.2 7.4-3.1 12.9-2.2.5.1.9-.3.9-.8-.2-1.4 1.1-1.6 2.4-1.4.8.1 1.2-.9.6-1.3-.3-.5-.8-2.4-.9-2.8-.2-.5-.3-1-.5-1.6-.6-2-1.4-4.2-2.2-8.1-.1-.6-1-.8-1.3-.3-.2.3-.7.5-1.1.4-.3-.1-.3-.7-.3-1.1s-.2-.7-.6-.8c-5.8-1.1-11.9 0-16.8 3.2-.3.2-.4.7-.2 1 0 .4.4.5.8.3z"/><path d="m14.8 46.7c.2-.2.6-.2.9-.1.2.1.4.5.3.7-.1.5.2.9.7.9 5.2.2 10.6-1.2 15.2-4.2.3-.2.4-.7.2-1s-.7-.4-1-.2c-4 2.6-8.8 4-13.7 4-.3-1.2-1.4-1.9-2.6-1.7-.9-4.4-2.2-8.7-4.1-12.8 1-.2 1.7-1 1.6-2 3 .2 6-.4 8.6-1.8.4-.2.5-.6.3-1s-.6-.5-1-.3c-2.8 1.5-6.3 2-9.5 1.4-.4-.1-.8.2-.9.6s.2.8.6.9c.1 0 .2.1.3.3.2.6-.7.6-.8.3-.2-.3-.6-.5-1-.3s-.5.6-.3 1c2.3 4.7 4 9.8 4.9 14.9.2.6.9.8 1.3.4z"/><path d="m55 14.3c.1.1.3.2.5.2.7 0 1-.8.5-1.3-.3-.3-.8-.3-1.1 0s-.3.7.1 1.1z"/><path d="m61.6 32.2c.4 0 .8-.3.8-.8v-.2c0-.4-.3-.8-.8-.8-1 .2-1 1.8 0 1.8z"/><path d="m14.1 47.9c-.5 0-.8.3-.8.8s.4.8.8.8.8-.3.8-.8-.4-.8-.8-.8z"/><path d="m7.5 27.9c-.4 0-.8.3-.8.8v.1c0 .4.3.7.8.7s.8-.4.8-.8-.4-.8-.8-.8z"/><path d="m65.7 35.1c-.6-6.6-3.6-17.1-6.5-22.4 0-.3-.2-.5-.4-.6-7.4-3.8-16.7-3.3-23.8 1-4.3 2.6-7.7 6.6-11.9 9.1-5.7 3.4-12.5 4.2-19.7 2.3-.4-.1-.8 0-1 .3-.1.1-.1.2-.2.4-.2.1-.2.4-.2.6.1 2.1 1.4 3.8 2.1 5.6 3.1 7.9 4.5 10.7 6 19.5.2 1 .4 1.4 1.6 1.5 4.8.5 9.7.3 14.5-.8 11.3-2.6 12.5-8.5 18.3-12.8 5.5-4.1 13.4-4.5 19.5-1.5.5.3 1.2.5 1.7.2.6-.6.2-1.6 0-2.4zm-41.9-11.6c4.4-2.6 7.7-6.5 12-9.1 6.5-4 15.1-4.5 22.1-1.2v.1c2.8 5.2 5.7 15.3 6.3 21.8-5.9-3-15.3-2.7-20.2.9-3.6 2.5-5.8 6.2-9.1 8.9-4.9 4-12.4 5.8-22.4 5.4-1.2-7.7-3.9-15.6-8.4-24 7.2 1.6 14 .6 19.7-2.8z"/><path d="m49.6 43.9v.5.1c-2.6 1.2-2.2 4.6-.1 5.5 1 .4 2.3.2 2.8.7.3.2.3.8.1 1.1-.5.9-2.1 1-2.8.2-.3-.3-.7-.4-1.1-.1-.3.3-.4.7-.1 1.1.5.6 1.2 1 2 1.1v.5c0 .4.3.7.8.7.4 0 .7-.3.7-.8v-.6c2.2-.7 2.7-3.2 1.3-4.4s-3.3-.1-3.9-1.8c-.5-1.5 1.1-2.5 2.4-2 .4.2.8 0 1-.4s0-.8-.4-1-.8-.2-1.3-.2v-.3c0-1-1.4-.9-1.4.1z"/><path d="m47.1 58c1.5.4 3.2.6 4.7.3 4.6-.4 8.1-4.3 8.1-8.9 0-4.9-4-9-8.9-9-1.3-.2-3.3.1-4.7.7-3.5 1.6-6.2 6.3-4.8 11.1.9 2.7 2.8 5 5.6 5.8zm11.4-8.6c0 4.1-3.4 7.5-7.5 7.5s-7.5-3.4-7.5-7.5 3.4-7.5 7.5-7.5 7.5 3.4 7.5 7.5z"/><path d="m12.5 17.5c-.3-.2-.8-.1-1 .2s-.1.8.2 1c1 .6 2.1 1.2 3.2 1.6.4.1.8-.1 1-.5.1-.4-.1-.8-.5-1-1-.3-2-.7-2.9-1.3z"/><path d="m17.7 18.2c.4-.1.6-.5.5-.9l-1.2-4.4c-.1-.4-.5-.6-.9-.5s-.6.5-.5.9l1.2 4.3c.1.4.5.7.9.6z"/><path d="m21.7 17.2 1.1-2.8c.2-.4 0-.8-.4-1s-.8 0-1 .4l-1.1 2.8c-.2.4 0 .8.4 1s.8 0 1-.4z"/></g></svg>