<svg id="Layer_1" viewBox="0 0 64 64" xmlns="http://www.w3.org/2000/svg" data-name="Layer 1"><path d="m51.973 8.049c-.642-.616-1.546-.783-2.363-.435-.802.342-1.32 1.125-1.32 1.996v2.71h-30.541c-.552 0-1 .448-1 1s.448 1 1 1h31.542c.552 0 1-.448 1-1v-3.71c0-.03 0-.111.104-.155.107-.045.17.014.193.037l9.364 8.994c.045.044.052.101.052.13s-.007.085-.045.124l-9.37 9c-.023.022-.086.083-.193.037-.104-.044-.104-.125-.104-.155v-3.71c0-.552-.448-1-1-1h-5.362c-2.747-3.596-7.065-5.93-11.929-5.93-8.282 0-15.02 6.738-15.02 15.02 0 2.563.648 4.977 1.785 7.09h-3.055v-2.71c0-.871-.518-1.654-1.32-1.996-.818-.349-1.722-.181-2.363.435l-9.377 9.004c-.421.412-.653.966-.653 1.56s.232 1.148.66 1.566l9.37 9c.42.403.952.613 1.499.613.289 0 .582-.059.864-.179.802-.342 1.32-1.125 1.32-1.996v-2.71h30.542c.552 0 1-.448 1-1s-.448-1-1-1h-31.543c-.552 0-1 .448-1 1v3.71c0 .03 0 .111-.104.155-.106.047-.17-.014-.193-.037l-9.364-8.994c-.045-.044-.052-.101-.052-.13s.007-.085.045-.124l9.37-9c.023-.022.086-.083.193-.037.104.044.104.125.104.155v3.71c0 .552.448 1 1 1h5.362c2.747 3.596 7.065 5.93 11.929 5.93 8.282 0 15.02-6.738 15.02-15.02 0-2.563-.648-4.977-1.785-7.09h3.055v2.71c0 .871.518 1.654 1.32 1.996.282.12.575.179.864.179.547 0 1.08-.21 1.499-.613l9.376-9.006c.421-.412.653-.966.653-1.56s-.232-1.148-.66-1.566l-9.37-9zm-19.973 36.971c-7.179 0-13.02-5.84-13.02-13.02s5.84-13.02 13.02-13.02 13.02 5.84 13.02 13.02-5.84 13.02-13.02 13.02z"/><path d="m31.167 26.928h.818c.005 0 .009.003.015.003s.009-.003.015-.003h.818c1.123 0 2.036.913 2.036 2.036 0 .552.448 1 1 1s1-.448 1-1c0-2.168-1.722-3.929-3.869-4.019v-1.773c0-.552-.448-1-1-1s-1 .448-1 1v1.773c-2.147.09-3.869 1.851-3.869 4.019 0 2.226 1.811 4.036 4.036 4.036h1.666c1.123 0 2.036.914 2.036 2.036s-.914 2.036-2.036 2.036h-1.666c-1.123 0-2.036-.913-2.036-2.036 0-.552-.448-1-1-1s-1 .448-1 1c0 2.168 1.722 3.929 3.869 4.019v1.778c0 .552.448 1 1 1s1-.448 1-1v-1.778c2.147-.09 3.869-1.851 3.869-4.019 0-2.226-1.811-4.036-4.036-4.036h-1.666c-1.123 0-2.036-.914-2.036-2.036s.914-2.036 2.036-2.036z"/><path d="m12.333 14.32c.552 0 1-.448 1-1s-.448-1-1-1h-1.556c-.552 0-1 .448-1 1s.448 1 1 1z"/><path d="m5.093 23.852c0 .552.448 1 1 1h8.018c.552 0 1-.448 1-1s-.448-1-1-1h-8.018c-.552 0-1 .448-1 1z"/><path d="m51.667 49.68c-.552 0-1 .448-1 1s.448 1 1 1h1.556c.552 0 1-.448 1-1s-.448-1-1-1z"/><path d="m58.907 40.148c0-.552-.448-1-1-1h-8.019c-.552 0-1 .448-1 1s.448 1 1 1h8.019c.552 0 1-.448 1-1z"/></svg>