<svg xmlns="http://www.w3.org/2000/svg" version="1.1" xmlns:xlink="http://www.w3.org/1999/xlink" width="512" height="512" x="0" y="0" viewBox="0 0 512.002 512" style="enable-background:new 0 0 512 512" xml:space="preserve" class=""><g><path fill="#c5d6be" d="M474.469 265.2c-127.965 14.562-224.75 123.675-350.953 143.577-29.895 4.72-58.797-12.98-68.274-41.718L9.227 227.523c-6.73-20.418 6.945-41.945 28.308-44.375C165.5 168.582 262.285 59.468 388.488 39.566c29.895-4.714 58.797 12.98 68.274 41.723l46.015 139.531c6.73 20.418-6.945 41.946-28.308 44.38zm0 0" opacity="1" data-original="#b2e59c" class=""></path><path fill="#a8ada8" d="M240.871 291.64c-11.504 37.926-30.879 72.364-47.027 96.923 54.527-22.133 105.234-55.915 158.203-82.774l12.86-71s-101.583-17.156-124.036 56.852zm0 0" opacity="1" data-original="#9ad880" class=""></path><path fill="#c8efb9" d="m437.57 160.715-3.422-10.383c-2.73-8.277-10.437-13.738-19.152-13.969-21.863-.582-42.309-12.289-53.742-31.308-4.434-7.38-13.406-10.61-21.434-7.5-33.414 12.93-65.925 31.289-100.074 50.578-37.039 20.918-75.207 42.476-116.566 57.89-8.196 3.055-13.957 10.391-15.149 19.055-1.816 13.176-7.992 32.836-27.84 46.012-5.421 3.597-7.796 10.36-5.757 16.543l9.214 27.937c2.114 6.403 8.375 10.371 15.098 9.832 21.719-1.746 37.879 9.309 47.496 18.703 7.45 7.274 18.41 9.668 28.094 5.848 32.652-12.879 64.5-30.867 97.914-49.738 36.187-20.438 73.45-41.48 113.715-56.817 9.8-3.734 17.336-11.863 19.887-22.039 2.976-11.863 9.57-27.707 24.125-37.66 7.382-5.05 10.398-14.484 7.593-22.984zm0 0" opacity="1" data-original="#c8efb9" class=""></path><path fill="#c5d6be" d="M240.871 291.64c-3.406 11.231-7.5 22.15-11.996 32.598 14.29-7.597 28.68-15.722 43.375-24.023 25.816-14.578 52.188-29.473 79.797-42.375l12.86-23.05s-101.583-17.157-124.036 56.85zm0 0" opacity="1" data-original="#b2e59c" class=""></path><path fill="#c5d6be" d="M303.816 200.285c-11.796-22.695-45.046-28.785-74.265-13.597s-43.34 45.898-31.543 68.593c11.797 22.696 45.047 28.785 74.262 13.598 29.218-15.188 43.343-45.899 31.546-68.594zm0 0" opacity="1" data-original="#b2e59c" class=""></path><path fill="#a8ada8" d="M303.57 237.063c-21.734 5.144-43.902 16.39-56.52 39.699 8.348-.992 16.95-3.582 25.227-7.887 14.739-7.66 25.63-19.273 31.293-31.813zm0 0" opacity="1" data-original="#9ad880" class=""></path><path fill="#ffb000" d="m466.063 272.348-20.168-20.168-129.043 129.039 20.171 20.172c31.516 31.515 85.954 28.175 121.586-7.457 35.633-35.633 38.973-90.067 7.454-121.586zm0 0" opacity="1" data-original="#ffb000" class=""></path><path fill="#ffde55" d="M438.438 373.758c35.632-35.633 38.972-90.067 7.453-121.586-31.516-31.516-85.95-28.176-121.582 7.457-35.633 35.633-38.973 90.07-7.457 121.586 31.515 31.515 85.953 28.176 121.585-7.457zm0 0" opacity="1" data-original="#ffde55"></path><path fill="#ffcd00" d="M445.895 252.188a72.312 72.312 0 0 0-9.141-7.747c1.39 18.371-4.723 51.305-55.379 80.29-34.637 19.82-52.762 41.292-62.223 58.687 31.809 29.133 84.508 25.137 119.285-9.645 35.633-35.632 38.973-90.066 7.458-121.586zm0 0" opacity="1" data-original="#ffcd00"></path><path fill="#ffeb99" d="M370.816 372.836c-9.086 0-22.148-2.227-32.75-12.832-9.082-9.078-13.597-21.934-12.722-36.2.96-15.648 8.125-30.906 20.176-42.956 12.894-12.891 29.808-20.286 46.41-20.286 9.086 0 22.144 2.227 32.75 12.829 9.082 9.082 13.597 21.937 12.722 36.199-.957 15.652-8.125 30.91-20.175 42.96-12.895 12.891-29.809 20.286-46.41 20.286zm0 0" opacity="1" data-original="#ffeb99" class=""></path><path fill="#ffde55" d="M381.371 324.719c-19.594 11.215-33.91 22.965-44.351 34.199.34.367.69.73 1.046 1.086 10.602 10.605 23.664 12.828 32.75 12.828 16.602 0 33.516-7.39 46.41-20.281 12.051-12.055 19.22-27.309 20.176-42.961.707-11.52-2.101-22.117-7.992-30.555-7.48 14.57-21.77 30.656-48.039 45.684zm0 0" opacity="1" data-original="#ffde55"></path><path fill="#f8bb86" d="m112.703 14.613 5.067 9.262a55.075 55.075 0 0 0 21.894 21.895l9.266 5.066c9.48 5.184 9.48 18.8 0 23.988l-9.266 5.067a55.075 55.075 0 0 0-21.894 21.894l-5.067 9.266c-5.183 9.48-18.8 9.48-23.988 0l-5.067-9.266a55.075 55.075 0 0 0-21.894-21.894l-9.262-5.067c-9.48-5.183-9.48-18.8 0-23.988l9.262-5.066a55.075 55.075 0 0 0 21.894-21.895l5.067-9.262c5.187-9.48 18.805-9.48 23.988 0zM285.973 398.645l3.105 5.671a33.747 33.747 0 0 0 13.41 13.414l5.676 3.106c5.809 3.176 5.809 11.516 0 14.695l-5.676 3.102a33.747 33.747 0 0 0-13.41 13.414l-3.105 5.672c-3.176 5.812-11.52 5.812-14.696 0l-3.101-5.672a33.757 33.757 0 0 0-13.414-13.414l-5.676-3.102c-5.805-3.18-5.805-11.52 0-14.695l5.676-3.106a33.757 33.757 0 0 0 13.414-13.414l3.101-5.671c3.18-5.81 11.52-5.81 14.696 0zm0 0" opacity="1" data-original="#ccf8ff" class=""></path><path d="M444.887 310.05c1.008-16.44-4.285-31.343-14.907-41.96-12.417-12.422-27.546-15.028-38.05-15.028-18.578 0-37.426 8.196-51.711 22.481a7.497 7.497 0 0 0 0 10.605c2.926 2.934 7.676 2.93 10.605 0 11.496-11.492 26.477-18.086 41.106-18.086 7.668 0 18.66 1.844 27.445 10.633 7.54 7.54 11.281 18.348 10.543 30.438-.848 13.82-7.238 27.355-17.996 38.113-11.496 11.496-26.477 18.086-41.106 18.086-7.668 0-18.66-1.844-27.445-10.629-7.539-7.539-11.285-18.348-10.543-30.437a54.115 54.115 0 0 1 2.68-13.711 7.5 7.5 0 0 0-4.754-9.48c-3.934-1.31-8.176.823-9.484 4.753-1.903 5.734-3.051 11.629-3.41 17.52-1.008 16.437 4.285 31.34 14.906 41.96 12.418 12.419 27.547 15.024 38.054 15.024 18.575 0 37.422-8.191 51.707-22.48 13.348-13.344 21.29-30.325 22.36-47.801zM226.09 180.027c-32.84 17.07-48.422 52.38-34.738 78.707 8.73 16.79 27.273 25.934 48.09 25.934 11.828 0 24.39-2.957 36.288-9.14 15.606-8.11 27.86-20.544 34.508-35.005 6.946-15.105 7.028-30.628.23-43.707-13.683-26.328-51.534-33.859-84.378-16.789zm70.52 54.227c-5.262 11.453-15.133 21.383-27.794 27.96-25.503 13.259-54.28 8.59-64.152-10.398-9.871-18.992 2.844-45.226 28.348-58.48 9.808-5.102 20.101-7.547 29.62-7.547 15.223 0 28.458 6.262 34.528 17.945 4.613 8.88 4.418 19.72-.55 30.52zm0 0" fill="#000000" opacity="1" data-original="#000000" class=""></path><path d="M509.898 218.473 463.883 78.937c-10.692-32.417-42.887-52.09-76.563-46.78-62.61 9.874-118.453 41.413-172.457 71.917-32.879 18.57-66.879 37.77-101.71 51.594a7.5 7.5 0 0 0-4.208 9.738 7.495 7.495 0 0 0 9.739 4.203c35.785-14.199 70.238-33.656 103.554-52.472 52.844-29.848 107.489-60.711 167.418-70.164 26.38-4.16 51.606 11.261 59.985 36.664l46.015 139.535a26.413 26.413 0 0 1-2.855 22.601c-4.293 6.711-13.434 11.137-29.364 13.34l-12.242-12.238c-10.703-10.703-23.976-17.988-38.707-21.469.235-.734.586-21.219 21.719-35.515 10.07-6.809 14.348-19.825 10.488-31.524l-3.425-10.383c-3.668-11.12-14.145-18.804-26.075-19.12-19.355-.512-37.558-11.114-47.511-27.673-6.348-10.558-19.207-15.027-30.57-10.632-33.938 13.136-66.54 31.55-101.075 51.054-36.715 20.735-74.684 42.176-115.48 57.383-10.735 4-18.383 13.606-19.961 25.063-1.692 12.293-7.325 29.347-24.555 40.78-8.223 5.458-11.813 15.798-8.73 25.141l9.21 27.938c3.18 9.633 12.559 15.781 22.825 14.96 18.836-1.519 33.047 8.188 41.656 16.595 6.531 6.375 15.16 9.77 23.883 9.77 4.117 0 8.254-.759 12.203-2.313 33.137-13.07 109.867-56.407 115.473-59.547-3.68 11.496-5.235 23.328-4.614 34.855-52.281 29.524-106.36 59.79-165.601 69.133-26.38 4.156-51.606-11.258-59.985-36.664L16.352 225.172a26.401 26.401 0 0 1 2.851-22.602c4.293-6.71 11.285-11.074 19.18-11.972 16.445-1.871 32.742-5.258 49.816-10.352a7.498 7.498 0 0 0 5.04-9.332 7.497 7.497 0 0 0-9.333-5.043c-16.218 4.84-31.664 8.05-47.222 9.824-12.399 1.41-23.375 8.258-30.114 18.785-6.77 10.57-8.398 23.473-4.465 35.391l46.012 139.535c9.524 28.88 36.117 47.645 65.613 47.645 55.165 0 124.641-39.633 176.508-68.883 3.438 14.297 10.512 27.555 21.309 38.352l20.172 20.171c15.922 15.926 37.187 23.758 59.254 23.758 25.59 0 52.265-10.539 72.937-31.21 18.531-18.532 29.574-42.391 31.094-67.184 1.379-22.516-5.215-43.383-18.664-59.551 11.976-1.664 22.539-8.406 29.094-18.645 6.77-10.57 8.394-23.468 4.464-35.386zM171.586 342.977c-6.82 2.687-14.711 1.023-20.102-4.239-10.836-10.582-28.879-22.773-53.34-20.812-3.34.265-6.37-1.668-7.374-4.707l-9.215-27.938c-.97-2.945.175-6.21 2.785-7.945 21.89-14.531 29.004-35.879 31.117-51.234.824-5.98 4.785-10.98 10.34-13.051 41.906-15.621 80.394-37.356 117.637-58.387 34.027-19.223 66.168-37.375 99.09-50.117 4.55-1.758 9.722.078 12.304 4.371 12.563 20.906 35.543 34.297 59.969 34.941 5.621.149 10.535 3.696 12.226 8.82l3.422 10.384c1.782 5.394-.207 11.261-4.707 14.449-26.195 18.554-27.906 44.511-28.425 45.703-62.262-1.442-89.793 44.07-94.16 51.164-11.723 6.39-99.4 55.906-131.567 68.598zm131.297-20.547c1.297-21.137 10.875-41.47 26.726-57.493 26.93-27.214 60.766-26.875 62.383-26.875 18.867 0 35.977 6.801 48.598 19.418 13.703 13.704 20.543 32.7 19.27 53.489-1.298 21.136-10.79 41.554-26.727 57.492-32.653 32.652-82.434 35.996-110.977 7.453-13.703-13.7-20.547-32.695-19.273-53.484zm177.148 8.707c-1.297 21.136-10.789 41.554-26.726 57.496-15.938 15.937-36.356 25.43-57.493 26.722-11.777.723-22.98-1.164-32.968-5.425 2.636.226 46.238 3.793 80.898-30.864 34.656-34.656 31.317-76.285 30.945-80.71 4.208 9.945 6.063 21.078 5.344 32.78zM48.895 81.402l9.261 5.067a47.483 47.483 0 0 1 18.914 18.914l5.067 9.262a21.17 21.17 0 0 0 37.148.004l5.067-9.266a47.483 47.483 0 0 1 18.914-18.914l9.261-5.063a21.161 21.161 0 0 0 11.012-18.574c0-7.742-4.219-14.86-11.012-18.574l-9.261-5.07a47.449 47.449 0 0 1-18.914-18.91l-5.067-9.266a21.17 21.17 0 0 0-37.148 0l-5.067 9.265a47.473 47.473 0 0 1-18.914 18.91l-9.261 5.07a21.161 21.161 0 0 0-11.012 18.575c0 7.738 4.219 14.86 11.012 18.57zm7.195-23.984 9.265-5.07A62.436 62.436 0 0 0 90.23 27.477l5.067-9.266C96.879 15.313 99.609 15 100.71 15c1.102 0 3.828.312 5.414 3.21l5.066 9.263a62.446 62.446 0 0 0 24.875 24.875l9.262 5.066c2.899 1.586 3.211 4.316 3.211 5.414 0 1.102-.312 3.832-3.21 5.414l-9.263 5.067a62.446 62.446 0 0 0-24.875 24.875l-5.07 9.265c-1.582 2.899-4.312 3.211-5.41 3.211-1.102 0-3.832-.312-5.414-3.21l-5.07-9.266a62.427 62.427 0 0 0-24.872-24.871l-9.265-5.067c-2.899-1.586-3.211-4.316-3.211-5.414.004-1.102.316-3.832 3.21-5.414zm0 0" fill="#000000" opacity="1" data-original="#000000" class=""></path><path d="m311.766 414.254-5.676-3.102a26.213 26.213 0 0 1-10.434-10.433l-3.101-5.676a15.867 15.867 0 0 0-13.93-8.258 15.866 15.866 0 0 0-13.926 8.258l-3.105 5.676a26.204 26.204 0 0 1-10.43 10.433l-5.676 3.102a15.876 15.876 0 0 0 0 27.86l5.676 3.1a26.204 26.204 0 0 1 10.43 10.434l3.105 5.672a15.866 15.866 0 0 0 13.926 8.258 15.871 15.871 0 0 0 13.93-8.254l3.101-5.676a26.213 26.213 0 0 1 10.434-10.433l5.676-3.102a15.876 15.876 0 0 0 0-27.86zm-12.875 17.8A41.167 41.167 0 0 0 282.5 448.45s-3.355 6.13-3.875 6.13c-.516 0-3.871-6.13-3.871-6.13a41.167 41.167 0 0 0-16.39-16.394s-6.134-3.352-6.134-3.871c0-.52 6.133-3.872 6.133-3.872a41.167 41.167 0 0 0 16.39-16.394s3.356-6.129 3.872-6.129c.52 0 3.875 6.129 3.875 6.129a41.167 41.167 0 0 0 16.39 16.394s6.133 3.352 6.133 3.872-6.132 3.87-6.132 3.87zm0 0" fill="#000000" opacity="1" data-original="#000000" class=""></path></g></svg>