<svg id="outline" height="512" viewBox="0 0 512 512" width="512" xmlns="http://www.w3.org/2000/svg"><path d="m88 312h16v16h-16z"/><path d="m88 352h16v16h-16z"/><path d="m88 392h16v16h-16z"/><path d="m120 168h32v16h-32z"/><path d="m456 64h-400a40.04552 40.04552 0 0 0 -40 40v304a40.04552 40.04552 0 0 0 40 40h400a40.04552 40.04552 0 0 0 40-40v-304a40.04552 40.04552 0 0 0 -40-40zm-264 224h128v144h-128zm-144-72h-16v-80h16a40.04552 40.04552 0 0 0 40-40v-16h88v192h-88v-16a40.04552 40.04552 0 0 0 -40-40zm144-136h128v192h-128zm272 56h16v32h-88a24.0275 24.0275 0 0 0 -24 24v80h-32v-192h88v16a40.04552 40.04552 0 0 0 40 40zm-128 232h144v24h-144zm0-16v-24h144v24zm0-40v-24h120a39.79015 39.79015 0 0 0 24-8.022v32.022zm48-120a8.00917 8.00917 0 0 1 8-8h75.62793l-83.62793 77.65454zm96-88v16h-16a24.02718 24.02718 0 0 1 -24-24v-16h16a24.0275 24.0275 0 0 1 24 24zm-424-24h16v16a24.02718 24.02718 0 0 1 -24 24h-16v-16a24.0275 24.0275 0 0 1 24-24zm-24 152h16a24.02718 24.02718 0 0 1 24 24v16h-16a24.0275 24.0275 0 0 1 -24-24zm0 176h24v-16h-24v-24h24v-16h-24v-24h24v-16h-24v-32.022a39.79015 39.79015 0 0 0 24 8.022h120v24h-56v16h56v24h-56v16h56v24h-56v16h56v24h-120a24.0275 24.0275 0 0 1 -24-24zm424 24h-120v-24h144a24.0275 24.0275 0 0 1 -24 24zm24-184a24.0275 24.0275 0 0 1 -24 24h-59.62793l83.62793-77.65454z"/><path d="m264 168h-16a12 12 0 0 1 0-24h32v-16h-16v-16h-16v16a28 28 0 0 0 0 56h16a12 12 0 0 1 0 24h-40v16h24v16h16v-16a28 28 0 0 0 0-56z"/></svg>