<?xml version="1.0"?>
<svg xmlns="http://www.w3.org/2000/svg" id="outline" viewBox="0 0 512 512" width="512" height="512"><path d="M488,248H476.94434l-13.78907-27.57812A7.99967,7.99967,0,0,0,456,216h-8V112h40a8.00064,8.00064,0,0,0,7.69238-10.19824l-16-56A8.001,8.001,0,0,0,472,40H408a8.001,8.001,0,0,0-7.69238,5.80176l-16,56A8.00064,8.00064,0,0,0,392,112h40V216h-8a7.99967,7.99967,0,0,0-7.15527,4.42188L403.05566,248H395.816l27.61169-69.0293A7.99953,7.99953,0,0,0,416,168H328a7.93949,7.93949,0,0,0-1.76355.21924A71.99285,71.99285,0,0,0,184,184v34.707a27.95093,27.95093,0,0,0-24,0V160a8.00008,8.00008,0,0,0-8-8H56a8.00008,8.00008,0,0,0-8,8v88H24a8.00008,8.00008,0,0,0-8,8v32a8.00008,8.00008,0,0,0,8,8H62.8349L40.07324,462.919A8.00039,8.00039,0,0,0,48,472H64a8.0009,8.0009,0,0,0,7.62354-5.57422L125.84991,296H144v16a32.03635,32.03635,0,0,0,32,32h56v48H200a8.00035,8.00035,0,0,0-5.65674,2.34277l-24,24A8.00076,8.00076,0,0,0,168,424v8a8.00008,8.00008,0,0,0,8,8h1.37616a24,24,0,1,0,45.24768,0h10.75232a24,24,0,1,0,45.24762,0h10.75244a24,24,0,1,0,45.24756,0H336a8.00008,8.00008,0,0,0,8-8v-8a8.00076,8.00076,0,0,0-2.34326-5.65723l-24-24A8.00035,8.00035,0,0,0,312,392H280V344h56a32.03635,32.03635,0,0,0,32-32V296h18.15015l54.22631,170.42578A8.0009,8.0009,0,0,0,448,472h16a8.00039,8.00039,0,0,0,7.92676-9.08105L449.165,296H488a8.00008,8.00008,0,0,0,8-8V256A8.00008,8.00008,0,0,0,488,248ZM414.03418,56h51.93164L477.394,96H402.606Zm14.91016,176h22.11132l8,16H420.94434ZM333.4165,184h70.76709L378.584,248H307.81616ZM200,184a55.805,55.805,0,0,1,2.39728-16.19653l23.35565,29.19458A8.00055,8.00055,0,0,0,232,200h48a8.00055,8.00055,0,0,0,6.24707-3.00195l23.35571-29.19458A55.80464,55.80464,0,0,1,312,184v10.46L300.184,224H224a8.00008,8.00008,0,0,0-8,8v8a23.88535,23.88535,0,0,0,1.37616,8H200Zm32,56h61.78394l-3.2,8H240A8.00917,8.00917,0,0,1,232,240Zm24-112a55.96149,55.96149,0,0,1,45.84033,23.89258L276.15479,184H235.84521l-25.6856-32.10742A55.9616,55.9616,0,0,1,256,128ZM172,232a12.01343,12.01343,0,0,1,12,12v4H160v-4A12.01343,12.01343,0,0,1,172,232ZM64,200h80v16H64Zm0-32h80v16H64Zm0,64h80v16H64ZM58.15039,456H57.165L78.98328,296H109.0592ZM160,312V296h24v32h-8A16.01833,16.01833,0,0,1,160,312Zm40,0a16.01833,16.01833,0,0,1,16-16h80a16.01833,16.01833,0,0,1,16,16v16H200Zm8,136a8,8,0,1,1-8-8A8.00917,8.00917,0,0,1,208,448Zm56,0a8,8,0,1,1-8-8A8.00917,8.00917,0,0,1,264,448Zm56,0a8,8,0,1,1-8-8A8.00917,8.00917,0,0,1,320,448Zm4.686-24H187.314l16-16H308.686ZM264,392H248V344h16Zm88-80a16.01833,16.01833,0,0,1-16,16h-8V296h24ZM454.835,456h-.98535L402.9408,296h30.07592ZM480,280H32V264H480Z"/><circle cx="360" cy="216" r="8"/></svg>
