<?xml version="1.0"?>
<svg xmlns="http://www.w3.org/2000/svg" viewBox="0 0 512 512" width="512" height="512"><g id="Out_line" data-name="Out line"><path d="M471.99,210.25l18.31006-68.01A24.00474,24.00474,0,0,0,467.12,112H228.26a24.045,24.045,0,0,0-23.17993,17.76l-8.52,31.65c-.71008-.81-1.45007-1.61-2.22-2.38a50.96708,50.96708,0,0,0-36.28-15.03H156a55.89016,55.89016,0,0,0-39.8,16.49l-.84.84a32.01709,32.01709,0,0,0-49.99-6.02A31.817,31.817,0,0,0,56,177.94v58.75l-12.2,12.2a94.90259,94.90259,0,0,0,0,134.22l17.57,17.58A24.97261,24.97261,0,0,0,98.97,368H432a24.03189,24.03189,0,0,0,24-24,23.71855,23.71855,0,0,0-2.78-11.19,62.31948,62.31948,0,0,0,24.43994-15.15,8.015,8.015,0,0,0,0-11.32L470.63,299.31a65.8356,65.8356,0,0,0-16.22009-11.91A62.23141,62.23141,0,0,0,456,273.37V262.63a62.92955,62.92955,0,0,0-.87-10.49,62.11041,62.11041,0,0,0,16.86-41.88ZM220.54,133.92a7.99456,7.99456,0,0,1,7.72-5.92H435.12a7.99033,7.99033,0,0,1,7.72009,10.08L428.39,191.75A85.24683,85.24683,0,0,0,404.7,208H351.2A40.06909,40.06909,0,0,0,312,176H209.21ZM241.38,352H83.31006L72.97,341.66A30.44343,30.44343,0,0,1,68.51,336H241.38a23.87841,23.87841,0,0,0,0,16ZM74.71,320H64a30.39419,30.39419,0,0,1,8-20.64V308A27.74986,27.74986,0,0,0,74.71,320ZM432,352H264a8,8,0,0,1,0-16H432a8,8,0,0,1,0,16Zm24-142.63a46.24727,46.24727,0,0,1-6.95,24.51,62.79293,62.79293,0,0,0-11.39014-15.54l-11.31982,11.32A46.28989,46.28989,0,0,1,440,262.63v10.74a47.00637,47.00637,0,0,1-.76,8.39A66.5799,66.5799,0,0,0,424,280v16a49.57278,49.57278,0,0,1,35.31006,14.63l.8999.89A46.305,46.305,0,0,1,433.37,320v.04c-.45008-.03-.91-.04-1.37-.04H256a16,16,0,0,1,0-32h25.37a46.28984,46.28984,0,0,1,32.97009,13.66l11.31982-11.32A62.22154,62.22154,0,0,0,281.37,272H256a31.98245,31.98245,0,0,0-27.69995,48H202.26A35.01336,35.01336,0,0,0,208,300.69v-9.38A35.30307,35.30307,0,0,0,172.68994,256H152v16h20.68994A19.32426,19.32426,0,0,1,192,291.31v9.38A19.32436,19.32436,0,0,1,172.68994,320H125.29A27.74986,27.74986,0,0,0,128,308V296a24.03185,24.03185,0,0,0-24-24v16a8.01066,8.01066,0,0,1,8,8v12a12,12,0,0,1-24,0V280a8.00449,8.00449,0,0,0-13.65991-5.66L61.65991,287.03a46.61868,46.61868,0,0,0,0,65.94L85.37,376.69A8.86933,8.86933,0,0,1,88,383.03,8.97514,8.97514,0,0,1,79.03,392a8.86985,8.86985,0,0,1-6.34009-2.63L55.11,371.8a78.92064,78.92064,0,0,1,0-111.6l14.54992-14.54A8.008,8.008,0,0,0,72,240V177.94a16,16,0,0,1,32,0,44.98582,44.98582,0,0,1-13.25,32l-.40991.4,11.31982,11.32.40015-.41A60.77924,60.77924,0,0,0,119.98,179.34l7.53-7.54A40.02976,40.02976,0,0,1,156,160h2.06006a35.08259,35.08259,0,0,1,24.97,10.34,30.63644,30.63644,0,0,1,0,43.32l-4.68994,4.68,11.31982,11.32,4.68018-4.69A46.32409,46.32409,0,0,0,208,192H312a24,24,0,0,1,0,48H280a8,8,0,0,1,0-16h16V208H280a24,24,0,0,0,0,48h32a40.06909,40.06909,0,0,0,39.2-32H408a8.00784,8.00784,0,0,0,5.65991-2.34l1.37012-1.38A68.78827,68.78827,0,0,1,456,200.45Zm-9.42993-23.59,11.72-43.54a23.81893,23.81893,0,0,0-.53-14.24h9.36a8.0025,8.0025,0,0,1,7.73,10.08l-12.37,45.93A85.65534,85.65534,0,0,0,446.57007,185.78Z"/><path d="M392,264v16a8.00437,8.00437,0,0,1-13.65991,5.66L372.67993,280H370.37a4.9424,4.9424,0,0,0-1.43006,2.75,4.82811,4.82811,0,0,0,1.37012,4.24l3.34985,3.35-11.31982,11.32-3.3501-3.35A20.8762,20.8762,0,0,1,356.35,272a20.8762,20.8762,0,0,1,2.64-26.31l3.3501-3.35,11.31982,11.32-3.34985,3.35a4.82811,4.82811,0,0,0-1.37012,4.24A4.9424,4.9424,0,0,0,370.37,264h2.30993l5.66016-5.66A8.00449,8.00449,0,0,1,392,264Z"/><path d="M405.65674,261.65674l-11.31348-11.31348A19.18705,19.18705,0,0,0,400,236.68652V232h16v4.68652A35.08178,35.08178,0,0,1,405.65674,261.65674Z"/><path d="M416,312H400v-4.68652a19.18705,19.18705,0,0,0-5.65674-13.65674l11.31348-11.31348A35.08178,35.08178,0,0,1,416,307.31348Z"/></g></svg>
