<?xml version="1.0"?>
<svg xmlns="http://www.w3.org/2000/svg" viewBox="0 0 512 512" width="512" height="512"><g id="Out_line" data-name="Out line"><path d="M400,216a95.38205,95.38205,0,0,0-10.91223.647L377.7583,160h51.0415a8,8,0,0,1,0,16h-16v16h16a24,24,0,0,0,0-48H368a8.00053,8.00053,0,0,0-7.84473,9.56885L366.24146,184h-159.683l-6.4-32H232a24,24,0,0,0,0-48H176a24,24,0,0,0,0,48h7.84143l7.62244,38.11218-29.32215,39.98468a96.01724,96.01724,0,1,0,38.55786,118.6557l12.72474,1.81781A39.88557,39.88557,0,0,0,224,352v-.28516c.11511.001.23071.01221.3457.01221A39.70953,39.70953,0,0,0,263.24072,320H272v8a7.99977,7.99977,0,0,0,8,8h27.04761A96.00034,96.00034,0,1,0,400,216ZM168,128a8.00917,8.00917,0,0,1,8-8h56a8,8,0,0,1,0,16H176A8.00917,8.00917,0,0,1,168,128Zm184.95605,72L249.74713,281.48132a39.68232,39.68232,0,0,0-25.53131-9.19458L209.75842,200ZM133.33679,322.9671a23.91287,23.91287,0,0,0,0-21.9342l55.41217-7.91608a39.91686,39.91686,0,0,0,0,37.76636Zm50.918-45.37036-41.44751,5.92114,22.7334-31.00012A79.74827,79.74827,0,0,1,184.25482,277.59674ZM120,312a8.00314,8.00314,0,0,1-7.58118,7.97876l-1.71081-.24438a7.8129,7.8129,0,0,1,0-15.46876l1.71081-.24438A8.00314,8.00314,0,0,1,120,312Zm.64441-25.316-12.1991,1.74274a23.81251,23.81251,0,0,0,0,47.14648l41.41736,5.91681A47.99673,47.99673,0,1,1,112,264a47.66712,47.66712,0,0,1,21.54364,5.09418Zm75.07111-75.31372,12.559,62.795-7.57508,1.08222a95.72429,95.72429,0,0,0-25.66021-35.68231ZM112,392a80,80,0,1,1,40.63116-148.9342l-9.5263,12.99041A64.004,64.004,0,1,0,112,376a64.20879,64.20879,0,0,0,55.42505-32.001l16.82995,2.40436A79.91541,79.91541,0,0,1,112,392Zm127.897-62.08936a23.71305,23.71305,0,0,1-18.916,5.57715l-4.20429-.60058a24,24,0,0,1,0-45.77442l4.20429-.60058A23.70679,23.70679,0,0,1,246.66571,304H216v16h30.66571A23.70457,23.70457,0,0,1,239.897,329.91064ZM272,296v8h-8.76147a39.69455,39.69455,0,0,0-3.50586-10.0174L370.7146,206.36542l2.68774,13.4389A96.36756,96.36756,0,0,0,307.03784,288H280A7.99977,7.99977,0,0,0,272,296Zm16,8h24v16H288Zm112,88a79.95,79.95,0,0,1-76.56714-56.78229A7.99266,7.99266,0,0,0,328,328V296a7.99282,7.99282,0,0,0-4.57349-7.22083,80.35407,80.35407,0,0,1,53.12378-53.2348l3.15479,15.77326A63.96261,63.96261,0,1,0,400,248c-1.55,0-3.082.075-4.60474.18384l-3.15857-15.79224c2.56092-.25091,5.149-.3916,7.76331-.3916a80,80,0,0,1,0,160Zm-7.84473-78.43115,15.68946-3.1377-9.27906-46.39477C399.04346,264.02228,399.519,264,400,264a48.03389,48.03389,0,1,1-17.12463,3.16919Z"/></g></svg>
