<?xml version="1.0"?>
<svg xmlns="http://www.w3.org/2000/svg" viewBox="0 0 512 512" width="512" height="512"><g id="Out_line" data-name="Out line"><path d="M480,472V432a8.00039,8.00039,0,0,0-8-8H360a8.00039,8.00039,0,0,0-8,8v40H200V328a8.00039,8.00039,0,0,0-8-8H112a8.00039,8.00039,0,0,0-8,8v80h16V336h64V472H160V432a8.00039,8.00039,0,0,0-8-8H40a8.00039,8.00039,0,0,0-8,8v40H16v16H496V472ZM368,440h96v32H368ZM48,440h96v32H48Z"/><path d="M400,320H224a8.00039,8.00039,0,0,0-8,8v80a8.00039,8.00039,0,0,0,8,8H400a8.00039,8.00039,0,0,0,8-8V328A8.00039,8.00039,0,0,0,400,320Zm-8,80H232V336H392Z"/><path d="M69.42773,312c.86377,0,1.72071-.03564,2.57227-.09448V408H88V306.99512a36.87586,36.87586,0,0,0,11.93774-11.10279c.17554.25635.3396.51758.52222.77076A36.537,36.537,0,0,0,130.41992,312h2.43262a37.00759,37.00759,0,0,0,29.49365-14.749c.31152.4143.62305.82837.95361,1.23144A36.79772,36.79772,0,0,0,191.86035,312H195.793a36.93991,36.93991,0,0,0,28.97949-14.09888c.64746.824,1.32275,1.62867,2.043,2.39868A37.06,37.06,0,0,0,253.78418,312h4.43945a37.05777,37.05777,0,0,0,26.96973-11.70117c.72021-.76978,1.395-1.57422,2.042-2.398A36.94162,36.94162,0,0,0,316.21484,312h3.92481a36.79772,36.79772,0,0,0,28.56055-13.51758c.33056-.40307.64209-.81738.95361-1.23144A37.00865,37.00865,0,0,0,379.14746,312h2.42285a36.537,36.537,0,0,0,29.96-15.33691c.18262-.25342.34668-.51465.52246-.771A36.86767,36.86767,0,0,0,424,306.99951V408h16V311.90576c.85156.05884,1.7085.09424,2.57227.09424a36.93064,36.93064,0,0,0,33.46582-52.54883l-36.78907-78.834A7.99868,7.99868,0,0,0,432,176H336V160h56a8.00039,8.00039,0,0,0,8-8V24a8.00039,8.00039,0,0,0-8-8H120a8.00039,8.00039,0,0,0-8,8V152a8.00039,8.00039,0,0,0,8,8h56v16H80a7.99868,7.99868,0,0,0-7.249,4.61719l-36.78907,78.834A36.93064,36.93064,0,0,0,69.42773,312ZM195.793,296h-3.93262a20.93,20.93,0,0,1-20.52563-25.0293L187.12891,192h35.18017l-5.63135,84.46094A20.9837,20.9837,0,0,1,195.793,296ZM288,160v16H224V160ZM273.50879,289.36816A20.724,20.724,0,0,1,258.22363,296h-4.43945a20.93144,20.93144,0,0,1-20.88477-22.32324h-.00024L238.34473,192h35.311l5.45215,81.6748h-.00049A20.722,20.722,0,0,1,273.50879,289.36816Zm62.81836-1.02929A20.85722,20.85722,0,0,1,320.13965,296h-3.92481a20.98619,20.98619,0,0,1-20.88476-19.53711L289.69189,192h35.1792L340.665,270.9707A20.85464,20.85464,0,0,1,336.32715,288.33887ZM426.90527,192,461.54,266.2168A20.9313,20.9313,0,0,1,442.5625,296a20.902,20.902,0,0,1-19.85645-14.3125L392.80957,192Zm-25.478,76.45-.00049.00025A20.93,20.93,0,0,1,381.57031,296h-2.42285a20.98757,20.98757,0,0,1-20.52441-16.82617l-2.26856-11.3418-.001-.00683h0L341.18848,192h34.75586ZM320,176H304V160h16ZM128,32H384V144H128Zm64,128h16v16H192Zm-21.18823,32-15.165,75.8252h-.00025l-.00122.00683-2.26831,11.3418A20.98757,20.98757,0,0,1,132.85254,296h-2.43262a20.93,20.93,0,0,1-19.85644-27.5498H110.563L136.0459,192ZM50.46,266.2168,85.09473,192h34.08593L95.38379,263.38965h0l-.00049.00195-6.09912,18.29688A20.90238,20.90238,0,0,1,69.42773,296,20.9313,20.9313,0,0,1,50.46,266.2168Z"/><circle cx="168" cy="408" r="8"/><path d="M312,64h16V80h-8a8.00039,8.00039,0,0,0-8,8H296a24.0275,24.0275,0,0,0-24-24H240a24.0275,24.0275,0,0,0-24,24H200a8.00039,8.00039,0,0,0-8-8h-8V64h16V48H152V64h16V80h-8a8.00039,8.00039,0,0,0-8,8v32a8.00039,8.00039,0,0,0,8,8h32a8.00039,8.00039,0,0,0,8-8V104h16a24.0275,24.0275,0,0,0,24,24h32a24.0275,24.0275,0,0,0,24-24h16v16a8.00039,8.00039,0,0,0,8,8h32a8.00039,8.00039,0,0,0,8-8V88a8.00039,8.00039,0,0,0-8-8h-8V64h16V48H312ZM184,112H168V96h16Zm96-8a8.00917,8.00917,0,0,1-8,8H240a8.00917,8.00917,0,0,1-8-8V88a8.00917,8.00917,0,0,1,8-8h32a8.00917,8.00917,0,0,1,8,8Zm64,8H328V96h16Z"/><circle cx="256" cy="96" r="8"/></g></svg>
