<svg xmlns="http://www.w3.org/2000/svg" width="16" height="16" viewBox="0 0 16 16" shape-rendering="crispEdges"><rect x="5" y="0" width="6" height="1" fill="#f2f2f2"/><rect x="5" y="1" width="1" height="1" fill="#f2f2f2"/><rect x="6" y="1" width="4" height="1" fill="#9c9c9c"/><rect x="10" y="1" width="1" height="1" fill="#f2f2f2"/><rect x="6" y="2" width="1" height="1" fill="#f2f2f2"/><rect x="7" y="2" width="2" height="1" fill="#9c9c9c"/><rect x="9" y="2" width="1" height="1" fill="#f2f2f2"/><rect x="6" y="3" width="1" height="1" fill="#f2f2f2"/><rect x="7" y="3" width="2" height="1" fill="#9c9c9c"/><rect x="9" y="3" width="1" height="1" fill="#f2f2f2"/><rect x="6" y="4" width="1" height="1" fill="#f2f2f2"/><rect x="7" y="4" width="2" height="1" fill="#9c9c9c"/><rect x="9" y="4" width="1" height="1" fill="#f2f2f2"/><rect x="5" y="5" width="2" height="1" fill="#f2f2f2"/><rect x="7" y="5" width="2" height="1" fill="#9c9c9c"/><rect x="9" y="5" width="2" height="1" fill="#f2f2f2"/><rect x="4" y="6" width="2" height="1" fill="#f2f2f2"/><rect x="6" y="6" width="4" height="1" fill="#9c9c9c"/><rect x="10" y="6" width="2" height="1" fill="#f2f2f2"/><rect x="3" y="7" width="2" height="1" fill="#f2f2f2"/><rect x="5" y="7" width="6" height="1" fill="#9c9c9c"/><rect x="11" y="7" width="2" height="1" fill="#f2f2f2"/><rect x="2" y="8" width="2" height="1" fill="#f2f2f2"/><rect x="4" y="8" width="8" height="1" fill="#9c9c9c"/><rect x="12" y="8" width="2" height="1" fill="#f2f2f2"/><rect x="2" y="9" width="1" height="1" fill="#f2f2f2"/><rect x="3" y="9" width="2" height="1" fill="#9c9c9c"/><rect x="5" y="9" width="6" height="1" fill="#565656"/><rect x="11" y="9" width="2" height="1" fill="#9c9c9c"/><rect x="13" y="9" width="1" height="1" fill="#f2f2f2"/><rect x="2" y="10" width="1" height="1" fill="#f2f2f2"/><rect x="3" y="10" width="1" height="1" fill="#9c9c9c"/><rect x="4" y="10" width="8" height="1" fill="#565656"/><rect x="12" y="10" width="1" height="1" fill="#9c9c9c"/><rect x="13" y="10" width="1" height="1" fill="#f2f2f2"/><rect x="2" y="11" width="1" height="1" fill="#f2f2f2"/><rect x="3" y="11" width="1" height="1" fill="#9c9c9c"/><rect x="4" y="11" width="3" height="1" fill="#565656"/><rect x="7" y="11" width="2" height="1" fill="#f2f2f2"/><rect x="9" y="11" width="3" height="1" fill="#565656"/><rect x="12" y="11" width="1" height="1" fill="#9c9c9c"/><rect x="13" y="11" width="1" height="1" fill="#f2f2f2"/><rect x="2" y="12" width="1" height="1" fill="#f2f2f2"/><rect x="3" y="12" width="1" height="1" fill="#9c9c9c"/><rect x="4" y="12" width="8" height="1" fill="#565656"/><rect x="12" y="12" width="1" height="1" fill="#9c9c9c"/><rect x="13" y="12" width="1" height="1" fill="#f2f2f2"/><rect x="2" y="13" width="2" height="1" fill="#f2f2f2"/><rect x="4" y="13" width="1" height="1" fill="#9c9c9c"/><rect x="5" y="13" width="6" height="1" fill="#565656"/><rect x="11" y="13" width="1" height="1" fill="#9c9c9c"/><rect x="12" y="13" width="2" height="1" fill="#f2f2f2"/><rect x="3" y="14" width="2" height="1" fill="#f2f2f2"/><rect x="5" y="14" width="6" height="1" fill="#9c9c9c"/><rect x="11" y="14" width="2" height="1" fill="#f2f2f2"/><rect x="4" y="15" width="8" height="1" fill="#f2f2f2"/></svg>
